<svg width="14" height="14" viewBox="0 0 14 14" fill="none" xmlns="http://www.w3.org/2000/svg">
<path d="M2.33341 3.86927C2.41508 3.8366 2.51308 3.80043 2.62683 3.76368C3.19232 3.58539 3.78216 3.49643 4.37508 3.50002C4.968 3.49643 5.55785 3.58539 6.12333 3.76368C6.23708 3.80043 6.33508 3.8366 6.41675 3.86927V10.2159C5.75506 10.0143 5.0668 9.91343 4.37508 9.91668C3.52341 9.91668 2.82983 10.0614 2.33341 10.2159V3.86927ZM7.00008 2.8496C6.83089 2.77525 6.658 2.70964 6.48208 2.65302C5.80067 2.43744 5.08977 2.32958 4.37508 2.33335C3.48491 2.33335 2.768 2.49143 2.26808 2.65302C2.06905 2.71682 1.87405 2.7926 1.68416 2.87993C1.61358 2.91257 1.54413 2.94759 1.47591 2.98493L1.46133 2.9931L1.45608 2.99602L1.45433 2.99718C1.45316 2.99835 1.30966 3.08293 1.45258 2.99835C1.3655 3.04998 1.29336 3.12338 1.24324 3.21134C1.19313 3.2993 1.16677 3.39878 1.16675 3.50002V11.0834C1.16677 11.1863 1.19404 11.2874 1.24579 11.3764C1.29754 11.4655 1.37192 11.5392 1.46139 11.5901C1.55086 11.6411 1.65222 11.6675 1.75518 11.6666C1.85813 11.6657 1.95902 11.6375 2.04758 11.585L2.04466 11.5868L2.04641 11.5862L2.047 11.5856L2.06858 11.5739C2.09016 11.5623 2.12575 11.5448 2.17475 11.5214C2.27391 11.4759 2.42558 11.4118 2.62683 11.3464C3.19235 11.1683 3.78219 11.0796 4.37508 11.0834C4.96797 11.0796 5.55781 11.1683 6.12333 11.3464C6.27741 11.3956 6.42837 11.4541 6.57542 11.5214C6.61945 11.5418 6.66283 11.5636 6.7055 11.5868M6.7055 11.5868L6.70375 11.5862L6.70317 11.5856C6.88633 11.6935 7.11383 11.6935 7.297 11.5856L7.31858 11.5739C7.34016 11.5623 7.37575 11.5448 7.42475 11.5214C7.57179 11.4541 7.72276 11.3956 7.87683 11.3464C8.44235 11.1683 9.0322 11.0796 9.62508 11.0834C10.218 11.0796 10.8078 11.1683 11.3733 11.3464C11.5274 11.3956 11.6784 11.4541 11.8254 11.5214C11.8686 11.5415 11.9113 11.5629 11.9532 11.5856C12.0418 11.638 12.1426 11.666 12.2456 11.6668C12.3485 11.6676 12.4498 11.6412 12.5392 11.5901C12.6286 11.5391 12.7029 11.4654 12.7546 11.3764C12.8062 11.2874 12.8334 11.1863 12.8334 11.0834V3.50002C12.8334 3.39878 12.807 3.2993 12.7569 3.21134C12.7068 3.12338 12.6347 3.04998 12.5476 2.99835L12.5464 2.99777L12.5441 2.99602L12.5382 2.9931L12.5242 2.98493C12.456 2.94758 12.3866 2.91256 12.316 2.87993C12.1263 2.79263 11.9315 2.71685 11.7327 2.65302C11.0511 2.43738 10.34 2.32952 9.62508 2.33335C8.7355 2.33335 8.018 2.49143 7.51808 2.65302C7.34211 2.7095 7.16921 2.77511 7.00008 2.8496M11.6667 3.86927V10.2159C11.0051 10.0143 10.3168 9.91343 9.62508 9.91668C8.77342 9.91668 8.07983 10.0614 7.58342 10.2159V3.86927C7.66508 3.8366 7.76308 3.80043 7.87683 3.76368C8.44232 3.58539 9.03216 3.49643 9.62508 3.50002C10.218 3.49643 10.8078 3.58539 11.3733 3.76368C11.4871 3.80043 11.5851 3.8366 11.6667 3.86927ZM11.9526 4.00227L11.9555 4.00343H11.9549L11.9526 4.00227ZM11.9532 11.5856L11.9549 11.5868L11.9537 11.5856" fill="#6D6E8C"/>
</svg>