<svg width="20" height="20" viewBox="0 0 20 20" fill="none" xmlns="http://www.w3.org/2000/svg">
<path d="M17.5 13.4082V9.24817C17.5 5.67317 17.5 3.88734 16.4017 2.7765C15.3033 1.6665 13.535 1.6665 10 1.6665C6.46417 1.6665 4.69667 1.6665 3.59833 2.7765C2.5 3.88734 2.5 5.67484 2.5 9.24817V13.409C2.5 15.989 2.5 17.2798 3.11167 17.8432C3.40333 18.1123 3.77167 18.2815 4.16417 18.3265C4.98667 18.4207 5.9475 17.5707 7.86833 15.8715C8.71833 15.1207 9.1425 14.7448 9.63333 14.6465C9.875 14.5965 10.125 14.5965 10.3667 14.6465C10.8583 14.7448 11.2825 15.1207 12.1317 15.8715C14.0525 17.5707 15.0133 18.4207 15.8358 18.3257C16.2275 18.2815 16.5967 18.1123 16.8883 17.8432C17.5 17.2798 17.5 15.989 17.5 13.4082Z" stroke="#6D6E8C" stroke-width="1.5"/>
<path d="M12.5 5H7.5" stroke="#6D6E8C" stroke-width="1.5" stroke-linecap="round"/>
</svg>
