<svg width="42" height="42" viewBox="0 0 42 42" fill="none" xmlns="http://www.w3.org/2000/svg">
<path d="M30 25.09V20.098C30 15.808 30 13.665 28.682 12.332C27.364 11 25.242 11 21 11C16.757 11 14.636 11 13.318 12.332C12 13.665 12 15.81 12 20.098V25.091C12 28.187 12 29.736 12.734 30.412C13.084 30.735 13.526 30.938 13.997 30.992C14.984 31.105 16.137 30.085 18.442 28.046C19.462 27.145 19.971 26.694 20.56 26.576C20.85 26.516 21.15 26.516 21.44 26.576C22.03 26.694 22.539 27.145 23.558 28.046C25.863 30.085 27.016 31.105 28.003 30.991C28.473 30.938 28.916 30.735 29.266 30.412C30 29.736 30 28.187 30 25.09Z" stroke="#6D6E8C" stroke-width="1.5"/>
<path d="M24 15H18" stroke="#6D6E8C" stroke-width="1.5" stroke-linecap="round"/>
</svg>
