<svg width="14" height="14" viewBox="0 0 14 14" fill="none" xmlns="http://www.w3.org/2000/svg">
<path d="M3.79167 6.41669L7 1.16669L10.2083 6.41669H3.79167ZM10.2083 12.8334C9.47917 12.8334 8.85928 12.578 8.34867 12.0674C7.83806 11.5568 7.58294 10.9371 7.58333 10.2084C7.58333 9.47919 7.83864 8.8593 8.34925 8.34869C8.85986 7.83808 9.47956 7.58296 10.2083 7.58335C10.9375 7.58335 11.5574 7.83866 12.068 8.34927C12.5786 8.85988 12.8337 9.47958 12.8333 10.2084C12.8333 10.9375 12.578 11.5574 12.0674 12.068C11.5568 12.5786 10.9371 12.8337 10.2083 12.8334ZM1.75 12.5417V7.87502H6.41667V12.5417H1.75ZM10.2083 11.6667C10.6167 11.6667 10.9618 11.5257 11.2437 11.2438C11.5257 10.9618 11.6667 10.6167 11.6667 10.2084C11.6667 9.80002 11.5257 9.45488 11.2437 9.17294C10.9618 8.89099 10.6167 8.75002 10.2083 8.75002C9.8 8.75002 9.45486 8.89099 9.17292 9.17294C8.89097 9.45488 8.75 9.80002 8.75 10.2084C8.75 10.6167 8.89097 10.9618 9.17292 11.2438C9.45486 11.5257 9.8 11.6667 10.2083 11.6667ZM2.91667 11.375H5.25V9.04169H2.91667V11.375ZM5.8625 5.25002H8.1375L7 3.41252L5.8625 5.25002Z" fill="#6D6E8C"/>
</svg>
