<svg width="25" height="24" viewBox="0 0 25 24" fill="none" xmlns="http://www.w3.org/2000/svg">
<g clip-path="url(#clip0_1_7985)">
<path fill-rule="evenodd" clip-rule="evenodd" d="M19.5 11C20.1076 11 20.7008 11.1845 21.2012 11.529C21.7016 11.8736 22.0856 12.362 22.3024 12.9295C22.5192 13.4971 22.5586 14.1171 22.4153 14.7075C22.272 15.2979 21.9528 15.8309 21.5 16.236V21.191C21.5 21.2763 21.4782 21.3601 21.4367 21.4346C21.3951 21.509 21.3352 21.5716 21.2627 21.6164C21.1901 21.6612 21.1073 21.6867 21.0221 21.6905C20.937 21.6943 20.8522 21.6762 20.776 21.638L19.5 21L18.224 21.638C18.1478 21.6762 18.063 21.6943 17.9779 21.6905C17.8927 21.6867 17.8099 21.6612 17.7373 21.6164C17.6648 21.5716 17.6049 21.509 17.5633 21.4346C17.5218 21.3601 17.5 21.2763 17.5 21.191V16.236C17.0472 15.8309 16.728 15.2979 16.5847 14.7075C16.4414 14.1171 16.4808 13.4971 16.6976 12.9295C16.9144 12.362 17.2984 11.8736 17.7988 11.529C18.2992 11.1845 18.8924 11 19.5 11ZM20.5 4C21.0304 4 21.5391 4.21071 21.9142 4.58579C22.2893 4.96086 22.5 5.46957 22.5 6V10C21.5371 9.27785 20.3461 8.92726 19.1456 9.01258C17.945 9.0979 16.8155 9.61341 15.9645 10.4645C15.1134 11.3155 14.5979 12.445 14.5126 13.6456C14.4273 14.8461 14.7779 16.0371 15.5 17V20H4.5C3.96957 20 3.46086 19.7893 3.08579 19.4142C2.71071 19.0391 2.5 18.5304 2.5 18V6C2.5 5.46957 2.71071 4.96086 3.08579 4.58579C3.46086 4.21071 3.96957 4 4.5 4H20.5ZM8.5 13H6.5C6.23478 13 5.98043 13.1054 5.79289 13.2929C5.60536 13.4804 5.5 13.7348 5.5 14C5.5 14.2652 5.60536 14.5196 5.79289 14.7071C5.98043 14.8946 6.23478 15 6.5 15H8.5C8.76522 15 9.01957 14.8946 9.20711 14.7071C9.39464 14.5196 9.5 14.2652 9.5 14C9.5 13.7348 9.39464 13.4804 9.20711 13.2929C9.01957 13.1054 8.76522 13 8.5 13ZM12.5 9H6.5C6.24512 9.00028 5.99997 9.09788 5.81463 9.27285C5.6293 9.44782 5.51777 9.68695 5.50283 9.94139C5.48789 10.1958 5.57067 10.4464 5.73426 10.6418C5.89786 10.8373 6.1299 10.9629 6.383 10.993L6.5 11H12.5C12.7549 10.9997 13 10.9021 13.1854 10.7272C13.3707 10.5522 13.4822 10.313 13.4972 10.0586C13.5121 9.80416 13.4293 9.55362 13.2657 9.35817C13.1021 9.16271 12.8701 9.0371 12.617 9.007L12.5 9Z" fill="#1355FF"/>
</g>
<defs>
<clipPath id="clip0_1_7985">
<rect width="24" height="24" fill="white" transform="translate(0.5)"/>
</clipPath>
</defs>
</svg>
