<svg width="25" height="24" viewBox="0 0 25 24" fill="none" xmlns="http://www.w3.org/2000/svg"><path d="M18.5 10a4 4 0 0 1 3 6.646v4.192a1.1 1.1 0 0 1-1.592.984l-1.408-.704-1.408.704a1.1 1.1 0 0 1-1.592-.984v-4.192a4 4 0 0 1 3-6.646m2-6a2 2 0 0 1 2 2v2a1 1 0 0 1-2 0V6h-16v12h8a1 1 0 0 1 0 2h-8a2 2 0 0 1-2-2V6a2 2 0 0 1 2-2zm-1 13.874a4 4 0 0 1-2 0v1.508l.553-.276a1 1 0 0 1 .894 0l.553.276zM18.5 12a2 2 0 1 0 0 4 2 2 0 0 0 0-4m-9 1a1 1 0 0 1 .117 1.993L9.5 15h-2a1 1 0 0 1-.117-1.993L7.5 13zm4-4a1 1 0 1 1 0 2h-6a1 1 0 0 1 0-2z" fill="#6D6E8C"/></svg>