<svg width="25" height="24" viewBox="0 0 25 24" fill="none" xmlns="http://www.w3.org/2000/svg">
<path d="M2.54983 13.0001H8.02683C8.19777 16.1673 9.20721 19.2322 10.9518 21.8811C8.76658 21.5381 6.75661 20.4806 5.23624 18.8739C3.71586 17.2672 2.7708 15.202 2.54883 13.0011L2.54983 13.0001ZM2.54983 11.0001C2.77175 8.79942 3.71667 6.73429 5.23684 5.12763C6.75702 3.52097 8.76676 2.46334 10.9518 2.12012C9.20738 4.76873 8.19794 7.83326 8.02683 11.0001H2.54983ZM22.4498 11.0001H16.9728C16.8017 7.83326 15.7923 4.76873 14.0478 2.12012C16.2329 2.46334 18.2426 3.52097 19.7628 5.12763C21.283 6.73429 22.2279 8.79942 22.4498 11.0001ZM22.4498 13.0001C22.2281 15.201 21.2833 17.2663 19.7631 18.8732C18.2429 20.4801 16.233 21.5378 14.0478 21.8811C15.7923 19.2325 16.8017 16.168 16.9728 13.0011H22.4508L22.4498 13.0001ZM10.0298 13.0001H14.9698C14.8052 15.6996 13.9551 18.3126 12.4998 20.5921C11.0445 18.3126 10.1944 15.6996 10.0298 13.0001ZM10.0298 11.0001C10.1948 8.30132 11.0449 5.6891 12.4998 3.41012C13.9548 5.6891 14.8049 8.30132 14.9698 11.0001H10.0298Z" fill="#1355FF"/>
</svg>
