<svg width="350" height="294" viewBox="0 0 350 294" fill="none" xmlns="http://www.w3.org/2000/svg">
<path d="M175 228.396C120.602 228.396 76.3453 192.563 76.3453 148.518C76.3453 104.473 120.602 68.6401 175 68.6401C229.398 68.6401 273.655 104.473 273.655 148.518C273.655 192.562 229.399 228.396 175 228.396ZM175 69.3568C121.09 69.3568 77.2303 104.868 77.2303 148.518C77.2303 192.167 121.09 227.679 175 227.679C228.91 227.679 272.77 192.167 272.77 148.518C272.77 104.868 228.91 69.3568 175 69.3568Z" fill="#EBEBEB"/>
<path d="M175 219.737C126.498 219.737 87.0384 187.788 87.0384 148.518C87.0384 109.247 126.498 77.2979 175 77.2979C223.502 77.2979 262.962 109.247 262.962 148.518C262.962 187.788 223.502 219.737 175 219.737ZM175 78.0145C126.986 78.0145 87.9235 109.642 87.9235 148.518C87.9235 187.393 126.986 219.021 175 219.021C223.014 219.021 262.076 187.393 262.076 148.518C262.076 109.642 223.014 78.0145 175 78.0145Z" fill="#EBEBEB"/>
<path d="M114.583 26.485L113.762 26.7534L119.858 38.9685L120.678 38.7001L114.583 26.485Z" fill="#EBEBEB"/>
<path d="M123.38 44.1149L122.56 44.3833L132.614 64.5319L133.434 64.2636L123.38 44.1149Z" fill="#EBEBEB"/>
<path d="M25.7038 96.8176L25.3581 97.4771L40.336 102.625L40.6817 101.965L25.7038 96.8176Z" fill="#EBEBEB"/>
<path d="M47.3211 104.247L46.9754 104.907L71.6813 113.398L72.027 112.738L47.3211 104.247Z" fill="#EBEBEB"/>
<path d="M39.3673 192.501L24.2807 197.436L24.6122 198.1L39.6988 193.165L39.3673 192.501Z" fill="#EBEBEB"/>
<path d="M70.94 182.172L46.055 190.313L46.3864 190.977L71.2715 182.836L70.94 182.172Z" fill="#EBEBEB"/>
<path d="M117.505 257.271L111.147 269.398L111.961 269.678L118.319 257.551L117.505 257.271Z" fill="#EBEBEB"/>
<path d="M130.81 231.892L120.323 251.896L121.138 252.175L131.624 232.172L130.81 231.892Z" fill="#EBEBEB"/>
<path d="M230.142 258.067L229.322 258.335L235.417 270.551L236.238 270.282L230.142 258.067Z" fill="#EBEBEB"/>
<path d="M217.386 232.504L216.566 232.772L226.62 252.921L227.441 252.652L217.386 232.504Z" fill="#EBEBEB"/>
<path d="M309.664 194.41L309.318 195.07L324.296 200.217L324.642 199.558L309.664 194.41Z" fill="#EBEBEB"/>
<path d="M278.319 183.637L277.973 184.297L302.679 192.788L303.025 192.128L278.319 183.637Z" fill="#EBEBEB"/>
<path d="M325.388 98.9354L310.301 103.871L310.633 104.535L325.719 99.5996L325.388 98.9354Z" fill="#EBEBEB"/>
<path d="M303.614 106.058L278.729 114.199L279.06 114.863L303.945 106.723L303.614 106.058Z" fill="#EBEBEB"/>
<path d="M238.039 27.3573L231.681 39.4844L232.495 39.7643L238.853 27.6372L238.039 27.3573Z" fill="#EBEBEB"/>
<path d="M228.862 44.8602L218.376 64.8638L219.19 65.1437L229.677 45.1401L228.862 44.8602Z" fill="#EBEBEB"/>
<path d="M175.443 6.82568H174.557V39.2332H175.443V6.82568Z" fill="#EBEBEB"/>
<path d="M175.443 46.5381H174.557V57.7913H175.443V46.5381Z" fill="#EBEBEB"/>
<path d="M51.5693 48.0734L50.9435 48.5801L79.2459 71.4956L79.8717 70.9889L51.5693 48.0734Z" fill="#EBEBEB"/>
<path d="M86.2514 76.1544L85.6256 76.6611L95.4533 84.6183L96.0792 84.1116L86.2514 76.1544Z" fill="#EBEBEB"/>
<path d="M40.0256 148.159H0V148.876H40.0256V148.159Z" fill="#EBEBEB"/>
<path d="M62.9465 148.159H49.0479V148.876H62.9465V148.159Z" fill="#EBEBEB"/>
<path d="M79.2459 225.54L50.9435 248.456L51.5693 248.962L79.8717 226.047L79.2459 225.54Z" fill="#EBEBEB"/>
<path d="M95.4533 212.417L85.6256 220.375L86.2514 220.881L96.0792 212.924L95.4533 212.417Z" fill="#EBEBEB"/>
<path d="M175.443 257.802H174.557V290.21H175.443V257.802Z" fill="#EBEBEB"/>
<path d="M175.443 239.244H174.557V250.497H175.443V239.244Z" fill="#EBEBEB"/>
<path d="M270.754 225.54L270.128 226.047L298.431 248.962L299.057 248.456L270.754 225.54Z" fill="#EBEBEB"/>
<path d="M254.547 212.418L253.921 212.924L263.749 220.882L264.374 220.375L254.547 212.418Z" fill="#EBEBEB"/>
<path d="M350 148.159H309.974V148.876H350V148.159Z" fill="#EBEBEB"/>
<path d="M300.952 148.159H287.054V148.876H300.952V148.159Z" fill="#EBEBEB"/>
<path d="M298.431 48.0732L270.128 70.9888L270.754 71.4955L299.057 48.5799L298.431 48.0732Z" fill="#EBEBEB"/>
<path d="M263.749 76.1541L253.921 84.1113L254.547 84.618L264.374 76.6608L263.749 76.1541Z" fill="#EBEBEB"/>
<path d="M175 150.151C176.114 150.151 177.018 149.42 177.018 148.518C177.018 147.615 176.114 146.884 175 146.884C173.886 146.884 172.982 147.615 172.982 148.518C172.982 149.42 173.886 150.151 175 150.151Z" fill="#EBEBEB"/>
<path d="M36.4009 293.7C125.196 293.301 224.805 293.298 313.599 293.7C224.804 294.101 125.195 294.099 36.4009 293.7Z" fill="#1A1D3E"/>
<path d="M92.6894 283.215C90.5013 284.367 88.0842 285.684 85.361 285.412C82.8477 285.161 80.1222 284.288 78.9714 282.324C78.6439 281.763 78.5514 281.364 79.4187 281.249C80.7407 281.074 82.2702 281.626 83.505 281.935C85.1075 282.336 86.7051 282.654 88.3751 282.806C89.5369 282.913 90.7116 282.922 91.8779 283.006C92.0241 283.014 92.1708 283.025 92.3178 283.04C92.372 283.044 92.4292 283.048 92.4854 283.054C92.507 283.045 92.5293 283.035 92.55 283.025C92.5942 283.005 92.6373 283.005 92.671 283.019C92.6856 283.024 92.6996 283.031 92.7112 283.041C92.7646 283.087 92.7752 283.17 92.6894 283.215Z" fill="#1355FF"/>
<path d="M92.7113 283.041C90.7261 283.97 88.6585 285.076 86.2842 284.761C85.1862 284.615 84.1072 284.271 83.1255 283.854C82.6758 283.665 81.3318 283.105 81.3499 282.612C81.3836 281.72 85.6713 283.2 86.1821 283.293C88.0983 283.64 90.0309 283.456 91.878 283.005C92.0242 283.014 92.1709 283.025 92.3179 283.04C91.0264 283.398 89.6721 283.611 88.3056 283.613C86.4102 283.619 84.8947 283.001 83.1127 282.602C82.7271 282.515 81.5137 282.185 81.5584 282.737C81.5877 283.1 82.8945 283.654 83.1755 283.772C84.1078 284.166 85.1308 284.49 86.1684 284.639C88.5587 284.984 90.6414 283.917 92.671 283.019C92.6857 283.024 92.6997 283.031 92.7113 283.041Z" fill="white"/>
<path d="M94.743 283.719C94.7749 283.798 94.8102 283.875 94.8448 283.954C94.8468 283.957 94.8461 283.959 94.8464 283.962C94.8559 283.984 94.8493 284.005 94.8342 284.019C94.8014 284.054 94.7316 284.065 94.6894 284.04C94.6729 284.032 94.6616 284.016 94.6556 283.997C94.6523 283.986 94.6487 283.975 94.6459 283.963L94.6244 283.889L94.6158 283.886C94.6095 283.881 94.6006 283.875 94.5942 283.869C93.3085 282.864 92.2291 281.694 90.9214 280.698C89.6739 279.749 88.3453 278.868 87.1913 277.84C86.4635 277.193 83.0882 273.807 85.4401 273.288C86.4826 273.059 87.8683 273.806 88.67 274.266C89.7446 274.883 90.6455 275.678 91.3812 276.559C93.2003 278.74 93.7029 281.285 94.743 283.719Z" fill="#1355FF"/>
<path d="M94.848 283.954C94.8194 283.892 94.7905 283.83 94.762 283.76C94.7524 283.745 94.7524 283.737 94.7429 283.721C94.6759 283.628 94.5993 283.535 94.5323 283.45C93.7192 281.886 93.0016 280.282 91.9684 278.803C91.3658 277.951 90.6672 277.145 89.7872 276.456C89.4907 276.216 88.0364 275.069 87.5007 275.379C87.1468 275.58 87.5199 276.2 87.6347 276.409C88.113 277.292 89.0697 277.974 89.8542 278.671C91.471 280.104 92.9252 281.645 94.2548 283.249C94.3219 283.357 94.3793 283.473 94.4367 283.59C94.4845 283.683 94.5419 283.776 94.5898 283.868L94.6472 283.961C94.6567 283.992 94.6759 284.016 94.6854 284.039C94.7237 284.054 94.7716 284.054 94.8003 284.047C94.8098 284.031 94.8194 284.023 94.829 284.016C94.7905 283.946 94.7524 283.868 94.7142 283.799C94.762 283.853 94.8003 283.899 94.848 283.954ZM91.5666 280.143C90.8587 279.43 90.1125 278.756 89.3376 278.09C88.907 277.71 88.467 277.339 88.113 276.905C87.8452 276.58 86.9842 275.302 88.3426 275.689C89.3376 275.968 90.3611 277.099 90.9352 277.749C91.5858 278.47 92.112 279.26 92.5903 280.065C93.126 280.987 93.5853 281.932 94.0636 282.869C93.2887 281.924 92.4563 281.018 91.5666 280.143Z" fill="white"/>
<path d="M99.6363 288.1L99.635 288.1C99.6017 288.125 99.5638 288.146 99.5587 288.149C97.4522 289.06 94.8442 290.541 92.3306 290.274C90.4737 290.077 88.0526 289.08 87.4424 287.53C86.7586 285.781 90.6711 286.374 91.6745 286.488C94.2314 286.78 99.5749 287.941 99.6146 287.995C99.6303 288.002 99.647 288.005 99.6626 288.012L99.6705 288.016C99.7084 288.033 99.6761 288.069 99.6363 288.1Z" fill="#1355FF"/>
<path d="M99.6697 288.02C99.5071 288.013 99.3445 288.013 99.1818 288.013C97.3354 287.982 95.4795 287.889 93.6331 287.718C93.1738 287.672 89.6436 287.137 89.7298 287.896C89.7872 288.353 91.0883 288.717 91.5187 288.849C92.2841 289.074 93.0973 289.198 93.9009 289.213C95.776 289.236 97.5362 288.578 99.3253 288.16C99.4114 288.136 99.4975 288.121 99.5836 288.098H99.641C99.6697 288.074 99.6887 288.059 99.6887 288.044C99.6887 288.036 99.6793 288.028 99.6697 288.02ZM94.9245 289.043C94.1019 289.12 93.26 289.081 92.4468 288.934C91.911 288.841 89.9594 288.439 89.9786 287.873C89.9881 287.579 90.2177 287.625 90.6387 287.594C90.83 287.579 91.0309 287.579 91.2222 287.586C91.7006 287.602 92.1789 287.656 92.6476 287.71C93.48 287.803 94.3027 287.873 95.1445 287.935C96.5127 288.028 97.8807 288.082 99.2488 288.098C97.7946 288.392 96.4073 288.903 94.9245 289.043Z" fill="white"/>
<path d="M100.838 282.872C101.724 285.019 101.763 287.356 101.014 289.532C101.008 289.547 101 289.56 100.989 289.569C100.958 289.599 100.905 289.604 100.861 289.588C100.818 289.574 100.785 289.538 100.801 289.488C100.816 289.444 100.828 289.398 100.842 289.353C99.5091 286.938 98.2207 284.519 96.8306 282.123C96.5028 281.559 94.503 277.924 96.1966 277.85C97.2424 277.804 98.3256 279.165 98.8562 279.755C99.7094 280.703 100.378 281.761 100.838 282.872Z" fill="#1355FF"/>
<path d="M101.066 288.059C101.066 287.052 100.923 286.038 100.655 285.069C100.406 284.202 100.052 283.365 99.5933 282.552C99.1723 281.808 98.6173 280.77 97.8521 280.22C97.6416 280.066 97.3833 279.926 97.2207 280.19C96.905 280.685 97.8903 282.366 98.139 282.846C99.1436 284.829 99.909 286.836 100.684 288.873C100.751 289.043 100.818 289.221 100.885 289.392C100.875 289.461 100.866 289.523 100.866 289.585C100.904 289.609 100.961 289.601 100.99 289.57C100.98 289.554 100.98 289.531 100.971 289.516C100.98 289.43 101 289.337 101 289.252C101.047 288.857 101.066 288.462 101.066 288.059ZM100.894 289.26C100.875 289.183 100.856 289.113 100.827 289.043C100.339 287.44 99.7558 285.844 99.0096 284.303C98.6365 283.52 98.1964 282.761 97.8521 281.971C97.7086 281.63 97.259 280.693 97.4599 280.406C97.6512 280.128 97.8998 280.461 98.0721 280.631C98.1964 280.763 98.3878 281.011 98.4835 281.134C100.359 283.574 101.134 286.332 100.904 289.128C100.904 289.175 100.894 289.214 100.894 289.26Z" fill="white"/>
<path d="M104.367 293.473H103.812C102.903 292.35 102.004 291.227 101.066 290.127C100.512 289.476 99.9663 288.849 99.3827 288.229V288.222C99.3635 288.206 99.3445 288.183 99.3254 288.16C99.2773 288.113 99.2297 288.059 99.1818 288.012C99.134 287.958 99.0766 287.904 99.0287 287.85C97.7085 286.479 96.2448 285.216 94.4176 284.209C93.8148 283.884 93.2121 283.574 92.5806 283.272H92.5712C92.5136 283.249 92.4563 283.218 92.3989 283.187H92.3894C92.3798 283.179 92.3607 283.171 92.3414 283.171C92.3414 283.171 92.3319 283.171 92.3319 283.163C92.2841 283.14 92.2171 283.109 92.1596 283.078H92.1502C92.1022 283.055 92.0641 283.039 92.0067 283.016C90.0645 282.133 88.0269 281.366 86.037 280.569C85.4726 280.344 84.9081 280.112 84.3437 279.879H84.3341C84.2959 279.871 84.2576 279.856 84.2289 279.84C84.1906 279.825 84.1427 279.809 84.1045 279.786C81.5884 278.771 79.0915 277.726 76.5467 276.765C76.4511 276.727 76.5371 276.618 76.6328 276.649C78.3262 277.284 80.0482 277.881 81.7606 278.493C81.9901 278.57 82.2198 278.655 82.4495 278.733C82.9086 278.895 83.3583 279.058 83.8079 279.221H83.8175C84.7168 279.538 85.6065 279.871 86.4962 280.212C88.9931 281.165 91.5666 282.11 93.9201 283.311C93.9201 283.311 93.9296 283.311 93.9296 283.318C94.1019 283.404 94.2645 283.489 94.4367 283.589C94.5514 283.644 94.6567 283.706 94.762 283.76C94.8863 283.83 95.0107 283.899 95.1351 283.969C97.2876 285.216 98.9044 286.796 100.378 288.516C100.483 288.632 100.588 288.756 100.684 288.872C100.732 288.926 100.78 288.988 100.827 289.043C100.856 289.074 100.875 289.105 100.904 289.128C100.933 289.174 100.971 289.205 101 289.252C101.028 289.283 101.047 289.306 101.076 289.337C101.162 289.445 101.239 289.546 101.334 289.655C102.262 290.801 103.171 291.955 104.08 293.117C104.176 293.233 104.271 293.357 104.367 293.473Z" fill="#1355FF"/>
<path d="M76.9351 278.862C74.9111 278.188 71.6093 276.373 72.2878 274.262C72.5596 273.413 73.4427 272.911 74.5221 272.984C75.7727 273.07 76.8799 273.844 77.7551 274.505C80.0944 276.269 82.2092 278.198 84.7049 279.827C84.7308 279.831 84.9172 279.967 84.9738 280.001C85.0256 280.035 84.9535 280.095 84.9026 280.063C84.8205 280.01 84.7397 279.956 84.6575 279.904C82.0972 279.725 79.3356 279.661 76.9351 278.862Z" fill="#1355FF"/>
<path d="M84.7455 279.849C84.7455 279.841 84.736 279.833 84.7265 279.825C84.7074 279.818 84.6978 279.81 84.6787 279.81L84.6691 279.802C83.8941 279.484 83.1671 279.12 82.4496 278.733C80.9667 277.92 79.5985 276.982 78.2497 276.03C77.7331 275.658 75.2649 273.807 74.9394 275.185C74.8056 275.759 75.351 276.394 75.7623 276.828C76.4129 277.517 77.2547 278.075 78.1827 278.508C80.0291 279.368 82.1338 279.678 84.229 279.841L84.516 279.864C84.5447 279.879 84.5637 279.887 84.5925 279.895C84.5925 279.903 84.6021 279.903 84.6021 279.903C84.6117 279.91 84.6404 279.918 84.6595 279.926C84.6691 279.926 84.6786 279.934 84.688 279.926C84.736 279.926 84.7647 279.887 84.7551 279.856L84.7455 279.849ZM84.1046 279.787C82.3826 279.616 80.6414 279.353 79.0533 278.764C78.2305 278.462 77.446 278.059 76.7669 277.571C76.4703 277.354 76.1833 277.114 75.9345 276.859C75.7527 276.665 75.571 276.464 75.4275 276.247C75.1022 275.782 74.9587 275.162 75.2649 274.953C75.6284 274.69 75.9154 274.814 76.4799 275.069C76.6711 275.154 76.8528 275.255 77.0252 275.356C77.4652 275.611 77.8766 275.898 78.2784 276.192C78.948 276.665 79.6177 277.145 80.316 277.602C80.7849 277.904 81.2727 278.206 81.7607 278.493C82.6122 278.981 83.5019 279.43 84.4298 279.825C84.3245 279.818 84.2098 279.802 84.1046 279.787Z" fill="white"/>
<path d="M257.311 283.215C259.499 284.367 261.916 285.684 264.639 285.412C267.152 285.161 269.878 284.288 271.029 282.324C271.356 281.763 271.449 281.364 270.581 281.249C269.259 281.074 267.73 281.626 266.495 281.935C264.892 282.336 263.295 282.654 261.625 282.806C260.463 282.913 259.288 282.922 258.122 283.006C257.976 283.014 257.829 283.025 257.682 283.04C257.628 283.044 257.571 283.048 257.515 283.054C257.493 283.045 257.471 283.035 257.45 283.025C257.406 283.005 257.363 283.005 257.329 283.019C257.314 283.024 257.3 283.031 257.289 283.041C257.235 283.087 257.225 283.17 257.311 283.215Z" fill="#1355FF"/>
<path d="M257.289 283.041C259.274 283.97 261.342 285.076 263.716 284.761C264.814 284.615 265.893 284.271 266.874 283.854C267.324 283.665 268.668 283.105 268.65 282.612C268.616 281.72 264.329 283.2 263.818 283.293C261.902 283.64 259.969 283.456 258.122 283.005C257.976 283.014 257.829 283.025 257.682 283.04C258.974 283.398 260.328 283.611 261.694 283.613C263.59 283.619 265.105 283.001 266.887 282.602C267.273 282.515 268.486 282.185 268.442 282.737C268.412 283.1 267.106 283.654 266.824 283.772C265.892 284.166 264.869 284.49 263.832 284.639C261.441 284.984 259.359 283.917 257.329 283.019C257.314 283.024 257.3 283.031 257.289 283.041Z" fill="white"/>
<path d="M255.257 283.719C255.225 283.798 255.19 283.875 255.155 283.954C255.153 283.957 255.154 283.959 255.154 283.962C255.144 283.984 255.151 284.005 255.166 284.019C255.199 284.054 255.268 284.065 255.311 284.04C255.327 284.032 255.338 284.016 255.344 283.997C255.348 283.986 255.351 283.975 255.354 283.963L255.376 283.889L255.384 283.886C255.391 283.881 255.399 283.875 255.406 283.869C256.692 282.864 257.771 281.694 259.079 280.698C260.326 279.749 261.655 278.868 262.809 277.84C263.537 277.193 266.912 273.807 264.56 273.288C263.517 273.059 262.132 273.806 261.33 274.266C260.255 274.883 259.355 275.678 258.619 276.559C256.8 278.74 256.297 281.285 255.257 283.719Z" fill="#1355FF"/>
<path d="M255.286 283.799C255.248 283.868 255.209 283.946 255.171 284.016C255.181 284.023 255.19 284.031 255.2 284.047C255.228 284.054 255.276 284.054 255.315 284.039C255.324 284.016 255.343 283.992 255.353 283.961L255.41 283.868C255.458 283.776 255.515 283.683 255.563 283.59C255.621 283.473 255.678 283.357 255.745 283.249C257.075 281.645 258.529 280.104 260.146 278.671C260.93 277.974 261.887 277.292 262.365 276.409C262.48 276.2 262.853 275.58 262.499 275.379C261.964 275.069 260.509 276.216 260.213 276.456C259.333 277.145 258.634 277.951 258.032 278.803C256.998 280.282 256.281 281.886 255.468 283.45C255.401 283.535 255.324 283.628 255.257 283.721C255.248 283.737 255.248 283.745 255.238 283.76C255.209 283.83 255.181 283.892 255.152 283.954C255.2 283.899 255.238 283.853 255.286 283.799ZM255.936 282.869C256.415 281.932 256.874 280.987 257.41 280.065C257.888 279.26 258.414 278.47 259.065 277.749C259.639 277.099 260.662 275.968 261.657 275.689C263.016 275.302 262.155 276.58 261.887 276.905C261.533 277.339 261.093 277.71 260.662 278.09C259.888 278.756 259.141 279.43 258.433 280.143C257.544 281.018 256.711 281.924 255.936 282.869Z" fill="white"/>
<path d="M250.364 288.1L250.365 288.1C250.399 288.125 250.436 288.146 250.442 288.149C252.548 289.06 255.156 290.541 257.67 290.274C259.527 290.077 261.948 289.08 262.558 287.53C263.242 285.781 259.329 286.374 258.326 286.488C255.769 286.78 250.425 287.941 250.386 287.995C250.37 288.002 250.353 288.005 250.338 288.012L250.33 288.016C250.292 288.033 250.324 288.069 250.364 288.1Z" fill="#1355FF"/>
<path d="M250.311 288.044C250.311 288.059 250.33 288.074 250.359 288.098H250.416C250.503 288.121 250.589 288.136 250.675 288.16C252.464 288.578 254.224 289.236 256.099 289.213C256.903 289.198 257.716 289.074 258.481 288.849C258.912 288.717 260.213 288.353 260.27 287.896C260.356 287.137 256.826 287.672 256.367 287.718C254.521 287.889 252.665 287.982 250.818 288.013C250.656 288.013 250.493 288.013 250.33 288.02C250.321 288.028 250.311 288.036 250.311 288.044ZM250.751 288.098C252.119 288.082 253.487 288.028 254.856 287.935C255.697 287.873 256.52 287.803 257.352 287.71C257.821 287.656 258.299 287.602 258.778 287.586C258.969 287.579 259.17 287.579 259.361 287.594C259.782 287.625 260.012 287.579 260.021 287.873C260.041 288.439 258.089 288.841 257.553 288.934C256.74 289.081 255.898 289.12 255.075 289.043C253.593 288.903 252.205 288.392 250.751 288.098Z" fill="white"/>
<path d="M249.162 282.872C248.276 285.019 248.237 287.356 248.986 289.532C248.992 289.547 249 289.56 249.011 289.569C249.042 289.599 249.095 289.604 249.139 289.588C249.182 289.574 249.215 289.538 249.199 289.488C249.184 289.444 249.172 289.398 249.158 289.353C250.491 286.938 251.779 284.519 253.169 282.123C253.497 281.559 255.497 277.924 253.803 277.85C252.758 277.804 251.674 279.165 251.144 279.755C250.291 280.703 249.622 281.761 249.162 282.872Z" fill="#1355FF"/>
<path d="M249 289.252C249 289.337 249.02 289.43 249.029 289.516C249.02 289.531 249.02 289.554 249.01 289.57C249.039 289.601 249.096 289.609 249.134 289.585C249.134 289.523 249.125 289.461 249.115 289.392C249.182 289.221 249.249 289.043 249.316 288.873C250.091 286.836 250.856 284.829 251.861 282.846C252.11 282.366 253.095 280.685 252.779 280.19C252.617 279.926 252.358 280.066 252.148 280.22C251.383 280.77 250.828 281.808 250.407 282.552C249.948 283.365 249.594 284.202 249.345 285.069C249.077 286.038 248.934 287.052 248.934 288.059C248.934 288.462 248.953 288.857 249 289.252ZM249.096 289.128C248.866 286.332 249.641 283.574 251.517 281.134C251.612 281.011 251.804 280.763 251.928 280.631C252.1 280.461 252.349 280.128 252.54 280.406C252.741 280.693 252.291 281.63 252.148 281.971C251.804 282.761 251.363 283.52 250.99 284.303C250.244 285.844 249.661 287.44 249.173 289.043C249.144 289.113 249.125 289.183 249.106 289.26C249.106 289.214 249.096 289.175 249.096 289.128Z" fill="white"/>
<path d="M245.633 293.473H246.188C247.097 292.35 247.996 291.227 248.933 290.127C249.488 289.476 250.034 288.849 250.617 288.229V288.222C250.636 288.206 250.655 288.183 250.675 288.16C250.723 288.113 250.77 288.059 250.818 288.012C250.866 287.958 250.923 287.904 250.971 287.85C252.291 286.479 253.755 285.216 255.582 284.209C256.185 283.884 256.788 283.574 257.419 283.272H257.429C257.486 283.249 257.544 283.218 257.601 283.187H257.611C257.62 283.179 257.639 283.171 257.658 283.171C257.658 283.171 257.668 283.171 257.668 283.163C257.716 283.14 257.783 283.109 257.84 283.078H257.85C257.898 283.055 257.936 283.039 257.993 283.016C259.935 282.133 261.973 281.366 263.963 280.569C264.527 280.344 265.092 280.112 265.656 279.879H265.666C265.704 279.871 265.742 279.856 265.771 279.84C265.809 279.825 265.857 279.809 265.895 279.786C268.411 278.771 270.908 277.726 273.453 276.765C273.549 276.727 273.463 276.618 273.367 276.649C271.674 277.284 269.952 277.881 268.239 278.493C268.01 278.57 267.78 278.655 267.55 278.733C267.091 278.895 266.642 279.058 266.192 279.221H266.182C265.283 279.538 264.393 279.871 263.504 280.212C261.007 281.165 258.433 282.11 256.08 283.311C256.08 283.311 256.07 283.311 256.07 283.318C255.898 283.404 255.735 283.489 255.563 283.589C255.449 283.644 255.343 283.706 255.238 283.76C255.114 283.83 254.989 283.899 254.865 283.969C252.712 285.216 251.096 286.796 249.622 288.516C249.517 288.632 249.412 288.756 249.316 288.872C249.268 288.926 249.22 288.988 249.173 289.043C249.144 289.074 249.125 289.105 249.096 289.128C249.067 289.174 249.029 289.205 249 289.252C248.972 289.283 248.953 289.306 248.924 289.337C248.838 289.445 248.761 289.546 248.666 289.655C247.738 290.801 246.829 291.955 245.92 293.117C245.824 293.233 245.729 293.357 245.633 293.473Z" fill="#1355FF"/>
<path d="M273.065 278.862C275.089 278.188 278.391 276.373 277.712 274.262C277.44 273.413 276.557 272.911 275.478 272.984C274.227 273.07 273.12 273.844 272.245 274.505C269.906 276.269 267.791 278.198 265.295 279.827C265.269 279.831 265.083 279.967 265.026 280.001C264.974 280.035 265.047 280.095 265.097 280.063C265.18 280.01 265.26 279.956 265.343 279.904C267.903 279.725 270.664 279.661 273.065 278.862Z" fill="#1355FF"/>
<path d="M265.245 279.856C265.235 279.887 265.264 279.926 265.312 279.926C265.321 279.934 265.331 279.926 265.341 279.926C265.36 279.918 265.388 279.91 265.398 279.903C265.398 279.903 265.408 279.903 265.408 279.895C265.436 279.887 265.455 279.879 265.484 279.864L265.771 279.841C267.866 279.678 269.971 279.368 271.817 278.508C272.745 278.075 273.587 277.517 274.238 276.828C274.649 276.394 275.194 275.759 275.061 275.185C274.735 273.807 272.267 275.658 271.75 276.03C270.402 276.982 269.033 277.92 267.55 278.733C266.833 279.12 266.106 279.484 265.331 279.802L265.321 279.81C265.302 279.81 265.293 279.818 265.274 279.825C265.264 279.833 265.255 279.841 265.255 279.849L265.245 279.856ZM265.57 279.825C266.498 279.43 267.388 278.981 268.239 278.493C268.727 278.206 269.215 277.904 269.684 277.602C270.382 277.145 271.052 276.665 271.722 276.192C272.123 275.898 272.535 275.611 272.975 275.356C273.147 275.255 273.329 275.154 273.52 275.069C274.085 274.814 274.372 274.69 274.735 274.953C275.041 275.162 274.898 275.782 274.573 276.247C274.429 276.464 274.247 276.665 274.066 276.859C273.817 277.114 273.53 277.354 273.233 277.571C272.554 278.059 271.77 278.462 270.947 278.764C269.359 279.353 267.617 279.616 265.895 279.787C265.79 279.802 265.676 279.818 265.57 279.825Z" fill="white"/>
<path d="M108.089 264.736C107.792 266.676 107.334 268.597 106.849 270.51C106.577 271.596 106.287 272.678 106.016 273.768C105.717 274.964 105.278 276.184 105.678 277.392L105.686 277.395C105.701 277.406 105.704 277.56 105.702 277.562C105.697 277.571 105.691 277.578 105.685 277.583C105.613 277.66 105.423 277.66 105.376 277.538C105.366 277.511 105.359 277.484 105.349 277.458C105.342 277.449 105.333 277.441 105.325 277.433C105.073 277.157 104.911 276.628 104.809 276.427C104.342 275.515 103.952 274.574 103.619 273.622C102.935 271.676 102.519 269.666 102.454 267.64C102.395 265.828 102.619 264.01 103.15 262.25C103.577 260.841 104.184 258.74 105.481 257.662C106.657 256.688 107.635 258.249 107.975 259.039C108.737 260.834 108.37 262.901 108.089 264.736Z" fill="#1355FF"/>
<path d="M105.944 260.62C105.07 260.62 104.436 262.905 104.124 263.892C103.629 265.446 103.395 267.046 103.378 268.65C103.345 271.539 104.041 274.382 105.187 277.104C105.232 277.212 105.276 277.325 105.326 277.433C105.332 277.442 105.343 277.451 105.348 277.46C105.36 277.482 105.365 277.509 105.376 277.536C105.421 277.658 105.616 277.663 105.688 277.582C105.632 277.343 105.588 277.108 105.554 276.869C105.521 276.653 105.493 276.441 105.477 276.23C105.237 273.909 105.649 271.534 106.011 269.231C106.434 266.528 107.102 260.625 105.944 260.62ZM105.315 276.685C105.36 277 105.421 277.311 105.493 277.618C105.404 277.392 105.315 277.167 105.232 276.942C104.313 274.517 103.673 272.025 103.584 269.484C103.529 268.06 103.651 266.627 103.968 265.221C104.141 264.464 104.363 263.72 104.647 262.99C104.77 262.684 105.404 260.773 105.944 260.868C106.322 260.936 106.411 262.657 106.417 262.693C106.439 263.036 106.439 263.382 106.434 263.729C106.422 264.441 106.361 265.153 106.289 265.861C106.122 267.398 105.849 268.93 105.621 270.462C105.315 272.503 105.02 274.63 105.315 276.685Z" fill="white"/>
<path d="M121.846 270.093C120.242 272.627 117.541 274.567 114.751 276.23C113.255 277.12 111.709 277.953 110.19 278.813C108.916 279.534 107.376 280.297 106.25 281.268C106.2 281.308 106.149 281.353 106.1 281.399C105.786 281.683 105.509 281.987 105.283 282.311C105.263 282.337 105.237 282.349 105.208 282.35C105.192 282.389 105.177 282.425 105.155 282.462C105.143 282.488 105.09 282.484 105.094 282.451C105.098 282.411 105.107 282.366 105.111 282.326L105.114 282.316C105.087 282.289 105.078 282.255 105.104 282.218C105.111 282.205 105.122 282.192 105.133 282.178C105.139 282.137 105.144 282.095 105.153 282.054C105.61 279.092 108.167 276.1 110.33 273.82C112.481 271.55 115.162 269.525 118.502 268.482C119.342 268.222 121.25 267.5 122.104 268.054C122.884 268.559 122.188 269.557 121.846 270.093Z" fill="#1355FF"/>
<path d="M119.368 270.106C118.605 269.488 116.363 271.011 115.8 271.367C114.092 272.444 112.606 273.729 111.159 275.022C108.788 277.153 106.673 279.37 105.232 281.966V281.97C105.204 281.997 105.181 282.025 105.154 282.051C105.142 282.097 105.137 282.137 105.131 282.178C105.12 282.191 105.109 282.205 105.104 282.218C105.076 282.254 105.087 282.29 105.115 282.317C105.154 282.281 105.187 282.245 105.226 282.214C105.504 281.934 105.799 281.664 106.1 281.398C106.15 281.353 106.2 281.308 106.25 281.267C108.343 279.443 110.814 277.906 113.19 276.306C114.838 275.193 116.446 274.012 117.809 272.67C118.16 272.327 120.008 270.624 119.368 270.106ZM118.667 271.462C116.774 274.003 113.496 275.86 110.713 277.712C108.827 278.96 106.979 280.263 105.432 281.772C106.829 279.479 108.838 277.415 110.914 275.527C112.11 274.436 113.341 273.359 114.682 272.386C115.4 271.859 116.157 271.34 116.969 270.903C117.337 270.705 118.071 270.335 118.516 270.227C119.579 269.975 118.989 271.025 118.667 271.462Z" fill="white"/>
<path d="M104.775 288.344C104.745 288.389 104.679 288.416 104.612 288.418C104.626 288.435 104.639 288.449 104.653 288.464C104.674 288.488 104.664 288.514 104.643 288.527C104.623 288.544 104.59 288.548 104.565 288.527C101.6 286.085 98.7431 283.117 97.2665 279.881C96.6437 278.516 96.2575 277.079 96.2077 275.621C96.1746 274.625 96.1094 272.618 97.1615 271.892C99.2816 270.433 101.213 276.625 101.5 277.559C102.026 279.261 102.371 280.994 102.855 282.704C103.386 284.574 104.084 286.41 104.78 288.244C104.795 288.283 104.792 288.317 104.775 288.344Z" fill="#1355FF"/>
<path d="M104.775 288.343C104.658 288.185 104.547 288.027 104.441 287.865C102.616 285.247 101.419 282.548 100.623 279.547C100.239 278.1 99.8999 276.595 99.2153 275.216C99.0428 274.873 98.514 273.553 97.8127 274.22C97.451 274.567 97.7516 277.068 97.8963 277.712C98.2301 279.186 98.8535 280.61 99.616 281.966C100.885 284.228 102.538 286.41 104.475 288.356C104.53 288.415 104.586 288.473 104.642 288.527C104.664 288.514 104.675 288.487 104.653 288.464C104.642 288.451 104.625 288.437 104.614 288.419C104.681 288.415 104.747 288.388 104.775 288.343ZM100.473 283.021C99.6383 281.705 98.9148 280.326 98.436 278.893C98.2468 278.325 98.0966 277.744 97.9909 277.158C97.913 276.699 97.8407 276.234 97.8461 275.775C97.8573 274.644 97.9686 274.351 98.2024 274.31C98.347 274.288 98.5473 274.409 98.9592 275.085C99.2209 275.513 99.4045 276 99.5547 276.46C99.7719 277.127 99.961 277.798 100.139 278.474C100.501 279.821 100.84 281.178 101.325 282.498C102.009 284.386 102.989 286.229 104.269 287.91C102.85 286.364 101.564 284.751 100.473 283.021Z" fill="white"/>
<path d="M114.284 282.407C114 283.605 113.211 284.7 112.339 285.68C110.58 287.648 108.33 289.283 106.408 291.143C106.121 291.421 105.841 291.703 105.57 291.994C105.542 292.027 105.32 292.437 105.323 292.403C105.323 292.395 105.357 292.239 105.42 291.975L105.422 291.973C105.731 290.669 106.742 286.735 108.003 284.722C108.779 283.485 109.68 282.215 110.811 281.164C111.356 280.665 112.636 279.586 113.6 279.822C114.637 280.076 114.433 281.782 114.284 282.407Z" fill="#1355FF"/>
<path d="M112.717 281.61C111.687 281.092 109.033 284.931 108.677 285.427C107.358 287.265 106.339 289.23 105.649 291.28C105.566 291.51 105.493 291.74 105.421 291.974C105.359 292.24 105.32 292.393 105.32 292.402C105.337 292.402 105.543 292.028 105.571 291.992C105.616 291.943 105.666 291.893 105.71 291.844C105.938 291.605 106.172 291.37 106.406 291.145C107.558 289.748 108.743 288.365 109.862 286.945C110.669 285.923 111.409 284.873 112.005 283.755C112.138 283.503 113.168 281.835 112.717 281.61ZM112.422 282.691C110.958 286.031 107.97 288.662 105.688 291.627C105.649 291.677 105.616 291.722 105.577 291.772C105.61 291.686 105.638 291.596 105.671 291.51C106.295 289.825 107.09 288.194 108.092 286.634C108.699 285.688 109.383 284.769 110.129 283.886C110.524 283.422 110.925 282.876 111.398 282.457C111.61 282.268 112.216 281.768 112.422 281.853C112.717 281.971 112.517 282.471 112.422 282.691Z" fill="white"/>
<path d="M124.62 254.846C121.562 260.537 113.533 263.187 110.054 268.673C110.047 268.684 110.042 268.693 110.037 268.702C109.931 268.869 109.83 269.039 109.732 269.212C109.684 269.296 109.556 269.291 109.501 269.241C109.475 269.218 109.467 269.186 109.488 269.146C109.508 269.105 109.534 269.063 109.56 269.023C110.103 265.601 111.837 262.079 113.856 259.061C115.614 256.438 118.021 253.984 121.355 252.603C122.176 252.261 123.779 251.54 124.699 252.105C125.675 252.702 124.998 254.145 124.62 254.846Z" fill="#1355FF"/>
<path d="M121.867 255.091C121.477 254.857 120.888 255.141 120.553 255.28C119.719 255.623 118.939 256.073 118.233 256.565C116.763 257.574 115.567 258.818 114.532 260.129C112.795 262.337 111.192 264.761 110.168 267.289C109.935 267.862 109.729 268.438 109.562 269.024C109.539 269.096 109.523 269.168 109.5 269.24C109.556 269.29 109.684 269.295 109.734 269.213C109.823 269.042 109.923 268.884 110.024 268.718C110.029 268.704 110.04 268.691 110.051 268.673C110.658 267.542 111.359 266.456 112.233 265.428C113.574 263.846 115.238 262.454 116.813 261.03C117.437 260.471 123.214 255.889 121.867 255.091ZM121.377 256.407C120.448 257.745 119.006 258.836 117.749 259.971C116.48 261.12 115.194 262.256 113.947 263.418C112.962 264.338 112.055 265.329 111.27 266.379C110.614 267.249 110.046 268.168 109.595 269.119C109.912 268.15 110.324 267.199 110.792 266.271C110.797 266.257 110.803 266.248 110.814 266.239C111.654 264.586 112.701 262.99 113.78 261.454C113.791 261.436 113.808 261.413 113.819 261.395C114.782 260.034 115.862 258.709 117.203 257.569C117.932 256.952 118.728 256.38 119.613 255.911C120.62 255.384 121.5 255.041 121.75 255.303C121.917 255.483 121.656 256.015 121.377 256.407Z" fill="white"/>
<path d="M113.936 261.517C113.018 263.121 112.138 264.748 111.27 266.379C110.858 267.146 110.452 267.912 110.051 268.673C110.04 268.691 110.029 268.705 110.024 268.718C109.879 268.993 109.729 269.272 109.584 269.547C108.259 272.044 106.801 274.599 105.994 277.244C105.571 278.627 105.36 280.069 105.259 281.52C105.254 281.669 105.243 281.818 105.232 281.966V281.971C105.232 282.052 105.226 282.133 105.226 282.214C105.22 282.259 105.22 282.304 105.22 282.349C105.165 283.598 105.187 284.85 105.215 286.067C105.254 287.766 105.432 289.451 105.632 291.132C105.632 291.182 105.638 291.231 105.649 291.281C105.654 291.357 105.666 291.434 105.671 291.511C105.677 291.551 105.682 291.587 105.688 291.628C105.694 291.7 105.705 291.772 105.71 291.844C105.777 292.385 105.838 292.926 105.894 293.471H105.254C104.831 291.84 104.597 290.141 104.48 288.46C104.475 288.424 104.475 288.392 104.475 288.356C104.458 288.194 104.447 288.027 104.441 287.865C104.425 287.662 104.413 287.464 104.408 287.261C104.386 286.775 104.369 286.292 104.358 285.815C104.297 283.039 104.336 280.146 105.093 277.424C105.115 277.347 105.137 277.275 105.159 277.199C105.165 277.167 105.176 277.136 105.187 277.104C105.198 277.05 105.215 276.996 105.232 276.942L105.315 276.685C105.365 276.532 105.421 276.379 105.477 276.23C105.493 276.185 105.51 276.14 105.527 276.095C106.406 273.72 107.797 271.417 109.061 269.187C109.294 268.777 109.528 268.371 109.767 267.966C109.901 267.74 110.035 267.515 110.168 267.29C110.374 266.952 110.586 266.609 110.792 266.271C110.797 266.258 110.803 266.249 110.814 266.24C111.793 264.64 112.812 263.058 113.78 261.454C113.825 261.382 113.981 261.441 113.936 261.517Z" fill="#1355FF"/>
<path d="M199.387 137.334C190.189 145.76 172.231 154.052 156.782 156.443C154.245 156.847 151.773 157.084 149.424 157.133C146.101 157.207 142.85 157.232 139.714 157.256C118.845 157.432 100.83 157.575 74.2337 170.564C42.4695 186.074 35.9975 191.275 35.3608 191.514L38.8752 185.866L30.9734 184.022C31.126 183.967 37.703 178.716 68.942 163.459C97.9321 149.31 118.175 149.146 139.608 148.966C142.712 148.943 145.913 148.916 149.148 148.849C150.359 148.822 151.606 148.735 152.893 148.598C167.816 146.971 187.123 138.044 193.758 130.552C194.666 129.521 195.057 128.629 195.216 127.982L198.369 136.533C198.556 136.669 198.898 136.942 199.387 137.334Z" fill="#1355FF"/>
<path opacity="0.2" d="M199.387 137.334C190.189 145.76 172.231 154.052 156.782 156.443C154.245 156.847 151.773 157.084 149.424 157.133C146.101 157.207 142.85 157.232 139.714 157.256C118.845 157.432 100.83 157.575 74.2337 170.564C42.4695 186.074 35.9975 191.275 35.3608 191.514L38.8752 185.866L30.9734 184.022C31.126 183.967 37.703 178.716 68.942 163.459C97.9321 149.31 118.175 149.146 139.608 148.966C142.712 148.943 145.913 148.916 149.148 148.849C150.359 148.822 151.606 148.735 152.893 148.598C167.816 146.971 187.123 138.044 193.758 130.552C194.666 129.521 195.057 128.629 195.216 127.982L198.369 136.533C198.556 136.669 198.898 136.942 199.387 137.334Z" fill="#1A1D3E"/>
<path d="M195.675 227.206L124.064 227.304L124.07 230.495L195.682 230.397L195.675 227.206Z" fill="#DBDBDB"/>
<path d="M268.448 282.877C268.46 288.679 273.076 293.376 278.757 293.368C284.439 293.36 289.035 288.651 289.022 282.849C289.01 277.047 284.395 272.351 278.713 272.358C273.032 272.366 268.436 277.076 268.448 282.877Z" fill="#DBDBDB"/>
<path d="M265.151 282.882C265.163 288.683 269.779 293.38 275.461 293.373C281.142 293.365 285.738 288.655 285.726 282.854C285.714 277.052 281.098 272.355 275.417 272.363C269.735 272.371 265.139 277.08 265.151 282.882Z" fill="#A6A6A6"/>
<path d="M195.322 187.7L276.795 187.588L276.741 162.119L195.268 162.231L195.322 187.7Z" fill="#A6A6A6"/>
<path d="M208.624 234.086L276.892 233.992L276.885 230.801L208.618 230.894C202.443 230.903 197.411 226.842 197.4 221.843L197.158 105.633C197.144 98.8742 190.34 93.3846 181.992 93.396L172.793 93.4086L172.799 96.5998L181.999 96.5873C188.174 96.5788 193.206 100.639 193.216 105.639L193.459 221.848C193.473 228.607 200.276 234.097 208.624 234.086Z" fill="#DBDBDB"/>
<path d="M275.001 272.363L278.943 272.358L278.68 146.61C278.667 140.524 272.542 135.582 265.026 135.592L195.25 135.687L195.256 138.879L265.033 138.783C270.375 138.776 274.729 142.289 274.738 146.615L275.001 272.363Z" fill="#DBDBDB"/>
<path d="M160.594 98.0789L185.011 98.0454L184.998 91.7005L160.581 91.734L160.594 98.0789Z" fill="#1A1D3E"/>
<path d="M123.97 182.846L193.58 182.75L193.419 105.545L123.809 105.64L123.97 182.846Z" fill="#1355FF"/>
<path opacity="0.5" d="M123.97 182.846L193.58 182.75L193.419 105.545L123.809 105.64L123.97 182.846Z" fill="#1A1D3E"/>
<path d="M194.924 226.996C194.935 232.176 199.056 236.371 204.13 236.364C209.203 236.357 213.307 232.151 213.296 226.971C213.286 221.79 209.164 217.596 204.091 217.603C199.017 217.61 194.913 221.815 194.924 226.996Z" fill="#DBDBDB"/>
<path d="M191.981 227C191.992 232.181 196.113 236.375 201.186 236.368C206.26 236.361 210.364 232.156 210.353 226.975C210.342 221.795 206.22 217.6 201.147 217.607C196.074 217.614 191.97 221.82 191.981 227Z" fill="#A6A6A6"/>
<path d="M142.951 227.902C142.875 191.752 171.916 162.302 207.688 162.253C243.46 162.205 272.623 191.575 272.698 227.724C272.774 263.874 243.733 293.323 207.961 293.372C172.189 293.421 143.026 264.052 142.951 227.902ZM149.443 227.893C149.512 261.144 175.759 288.16 207.951 288.116C240.142 288.072 266.275 260.984 266.206 227.733C266.137 194.482 239.89 167.466 207.699 167.51C175.507 167.554 149.374 194.642 149.443 227.893Z" fill="#1A1D3E"/>
<path d="M145.311 227.899C145.244 195.853 170.937 169.747 202.584 169.704C234.231 169.66 260.032 195.696 260.098 227.742C260.165 259.787 234.474 285.893 202.826 285.937C171.179 285.98 145.378 259.944 145.311 227.899ZM149.948 227.893C150.011 257.867 173.729 282.222 202.819 282.182C231.908 282.142 255.524 257.723 255.461 227.748C255.398 197.773 231.681 173.419 202.592 173.458C173.502 173.498 149.886 197.917 149.948 227.893Z" fill="#A6A6A6"/>
<path d="M180.022 89.9708C196.018 95.3226 215.643 97.7014 221.581 94.9406C228.456 91.7441 234.63 79.3803 240.555 64.8357C241.694 62.0396 216.698 56.6389 215.915 58.6125C213.233 65.3725 207.812 78.028 206.859 78.8549C205.768 79.8026 191.874 80.6824 182.687 80.4904C168.203 80.1877 168.689 86.1787 180.022 89.9708Z" fill="#D3766A"/>
<path d="M215.209 97.4782L205.604 78.7725C205.604 78.7725 192.388 79.0474 178.777 80.2371C165.165 81.4267 167.251 86.3765 183.098 91.8232C198.945 97.2699 215.209 97.4782 215.209 97.4782Z" fill="#455A64"/>
<path d="M207.783 94.9755C203.935 88.4191 201.213 81.1579 200.618 79.9118C200.59 79.8528 200.72 79.8318 200.745 79.8923C201.243 81.1332 205.562 89.2365 207.922 94.9542C207.949 95.0201 207.82 95.0387 207.783 94.9755Z" fill="#1A1D3E"/>
<path opacity="0.1" d="M198.58 95.7296C193.796 94.8905 188.428 93.6506 183.101 91.8236C167.531 86.4754 165.244 81.6016 178.073 80.3071L198.58 95.7296Z" fill="#1A1D3E"/>
<path d="M239.136 65.8748C236.767 67.5838 214.248 65.4269 214.643 62.8097C214.73 62.2353 214.335 58.5689 214.254 57.788C213.966 54.9892 212.224 51.8898 209.093 47.3602C206.471 43.5517 202.039 38.14 204.516 36.922C208.121 35.1373 214.74 41.435 218.268 45.2376C219.552 42.87 220.931 40.9296 222.246 40.0377C226.614 37.076 248.623 44.7413 247.84 49.3896C245.784 61.6048 241.605 64.0935 239.136 65.8748Z" fill="#D3766A"/>
<path d="M256.373 51.6891C257.77 50.6912 258.7 49.9341 258.799 49.853L256.175 47.7531C256.116 47.8016 250.141 52.663 245.721 53.9213C242.201 54.9238 232.904 51.0634 225.951 46.752C221.55 44.0238 220.853 42.6688 220.828 42.1038C220.823 41.9806 220.809 41.6531 221.541 41.1303L224.068 39.3246C226.742 40.5859 229.869 41.541 231.632 40.2817L236.73 36.6389L234.289 34.3994L229.397 37.895C228.608 37.8547 226.551 37.0991 224.876 36.2201L223.702 35.6036L219.1 38.8908C217.747 39.8573 217.089 40.9732 217.142 42.2077C217.229 44.2287 219.254 46.3617 223.708 49.1234C227.257 51.3235 231.553 53.4817 235.201 54.8963C240.319 56.8806 244.27 57.5008 246.944 56.7391C250.239 55.8009 253.987 53.3938 256.373 51.6891Z" fill="#1355FF"/>
<path opacity="0.2" d="M230.242 37.2941L234.292 34.3999L236.734 36.6398L233.307 39.0881L230.242 37.2941Z" fill="#1A1D3E"/>
<path opacity="0.2" d="M258.799 49.8531C258.697 49.9352 257.771 50.6918 256.372 51.6909C256.138 51.8581 255.898 52.0296 255.636 52.1999L252.571 50.3968C254.634 49.009 256.146 47.7815 256.177 47.751L258.799 49.8531Z" fill="#1A1D3E"/>
<path d="M282.884 32.7463C281.488 33.7445 280.444 34.3972 280.332 34.4666L278.085 32.0979C278.152 32.0563 284.853 27.8608 286.945 24.466C288.611 21.7629 285.037 13.8143 280.618 7.6917C277.822 3.81711 276.248 3.08785 275.559 2.99814C275.408 2.97867 275.009 2.92672 274.277 3.44945L271.75 5.25517C272.963 7.56012 273.745 10.1914 271.982 11.4507L266.884 15.0935L264.443 12.854L269.335 9.35835C269.384 8.71966 268.714 6.97358 267.845 5.51852L267.235 4.49857L271.836 1.21C273.189 0.243563 274.638 -0.146878 276.145 0.0492212C278.611 0.37052 280.973 2.2627 283.803 6.18482C286.058 9.30945 288.168 13.0294 289.448 16.1361C291.243 20.4943 291.512 23.7455 290.246 25.7997C288.686 28.3301 285.27 31.0417 282.884 32.7463Z" fill="#1355FF"/>
<path opacity="0.2" d="M268.494 9.9624L264.443 12.8567L266.885 15.0966L270.311 12.6484L268.494 9.9624Z" fill="#1A1D3E"/>
<path opacity="0.2" d="M280.332 34.4668C280.446 34.3945 281.488 33.7448 282.886 32.7458C283.12 32.5785 283.36 32.407 283.602 32.2172L281.773 29.5308C279.816 31.0158 278.124 32.078 278.082 32.0989L280.332 34.4668Z" fill="#1A1D3E"/>
<path d="M279.55 74.8581L280.92 76.115L309.765 55.5049L308.395 54.248L305.923 56.0142L301.753 55.1898L290.411 58.4836L275.955 45.2202L272.521 47.6733L286.977 60.9367L281.53 69.6389L282.022 73.0918L279.55 74.8581Z" fill="#1355FF"/>
<path d="M273.503 50.1192L278.83 46.313L277.308 44.9166L271.981 48.7228L273.503 50.1192Z" fill="#1355FF"/>
<path opacity="0.2" d="M272.948 49.6101L278.069 45.6146L277.308 44.9165L271.981 48.7227L272.948 49.6101Z" fill="#1A1D3E"/>
<path d="M226.213 31.1695C226.213 31.1695 247.252 48.2754 256.213 50.7542C265.174 53.2331 273.142 48.2981 274.894 47.046C276.643 45.7964 283.685 40.0067 281.759 32.5019C279.835 24.9945 261.489 5.96387 261.489 5.96387L226.213 31.1695Z" fill="#1355FF"/>
<path opacity="0.3" d="M271.99 48.7591C268.509 50.5114 262.616 52.5274 256.214 50.7576C247.253 48.2754 226.208 31.17 226.208 31.17L229.527 28.7988C234.119 32.2677 250.81 46.1236 257.951 48.5223C264.192 50.6187 271.52 48.9051 271.99 48.7591Z" fill="white"/>
<path opacity="0.2" d="M305.924 56.0159L282.021 73.0942L281.845 71.8549L303.109 55.4604L305.924 56.0159Z" fill="#1A1D3E"/>
<path opacity="0.1" d="M250.069 24.2716L255.355 26.0272L260.137 23.4971L259.708 28.1098L264.158 31.0108L258.608 32.1059L256.575 36.4291L253.573 32.4932L247.867 32.2641L251.563 28.7364L250.069 24.2716Z" fill="#1A1D3E"/>
<path d="M218.842 46.2373C219.892 48.6022 222.733 46.2472 222.733 46.2472C222.733 46.2472 219.652 50.4352 221.898 52.535C224.07 54.5537 227.379 51.6108 227.62 51.4026C227.459 51.6254 224.752 55.5336 227.277 57.455C229.904 59.4504 232.6 56.0344 232.773 55.8131C232.703 56.0619 231.844 59.3648 234.173 60.4713C238.176 62.3711 240.658 53.9749 243.94 52.4941C243.94 52.4941 246.875 52.9471 247.015 53.0509C247.015 53.0509 248.676 47.8436 247.665 45.3932C246.817 43.3387 243.845 44.281 243.845 44.281C243.845 44.281 245.021 41.7918 243.092 40.2283C242.098 39.4278 239.633 40.0018 239.633 40.0018C239.633 40.0018 240.473 37.977 238.649 36.6728C237.198 35.6281 234.951 36.3665 234.951 36.3665C234.951 36.3665 234.643 34.1196 232.732 33.4426C228.882 32.0697 216.601 41.1717 218.842 46.2373Z" fill="#D3766A"/>
<path d="M234.573 36.439C234.617 36.4115 234.578 36.3565 234.528 36.3787C229.587 38.574 224.989 42.2119 222.563 46.3612C222.484 46.4973 222.722 46.6611 222.845 46.5248C226.355 42.6352 229.853 39.4099 234.573 36.439Z" fill="#1A1D3E"/>
<path d="M239.672 39.9366C239.723 39.9048 239.658 39.8353 239.597 39.8627C234.521 42.147 229.481 46.3601 227.381 51.4092C227.309 51.5827 227.459 51.7964 227.561 51.6023C229.271 48.3304 235.406 42.5933 239.672 39.9366Z" fill="#1A1D3E"/>
<path d="M232.776 56.2061C235.021 51.4276 238.932 47.7125 243.627 44.3644C243.688 44.3208 243.606 44.2553 243.542 44.2805C240.695 45.4116 237.977 47.7983 236.056 49.8004C234.217 51.7181 233.033 53.7472 232.57 56.1425C232.552 56.2356 232.728 56.3082 232.776 56.2061Z" fill="#1A1D3E"/>
<path d="M222.629 46.2627C222.534 46.4264 222.934 46.3591 222.845 46.5249C222.471 47.2226 220.666 51.5772 222.307 52.5359C223.625 53.3015 225.81 52.3991 226.481 51.7862L228.169 50.2445L227.245 52.1681C226.842 53.0077 226.562 53.9401 226.519 54.835C226.474 55.7279 226.721 56.6275 227.451 57.182C228.2 57.7734 229.213 57.9276 230.1 57.501C230.997 57.109 231.772 56.3634 232.331 55.6164L233.894 53.5287L233.264 55.9048C233.093 56.5486 233.01 57.2546 233.051 57.9191C233.096 58.5828 233.278 59.248 233.729 59.7206C234.169 60.1857 234.929 60.4603 235.603 60.3323C236.314 60.2059 236.98 59.737 237.555 59.2437C238.717 58.2242 239.623 56.989 240.596 55.8012C241.078 55.2029 241.561 54.6011 242.081 54.0183C242.607 53.4492 243.155 52.8437 243.94 52.4942C243.209 52.9046 242.759 53.5384 242.284 54.1283C241.826 54.7351 241.403 55.3604 240.979 55.9869C240.13 57.2404 239.258 58.4942 238.099 59.635C237.502 60.1824 236.829 60.7599 235.809 61.0008C234.753 61.2427 233.631 60.8399 233.002 60.1847C232.357 59.5181 232.157 58.7157 232.086 57.9677C232.029 57.2059 232.098 56.4763 232.282 55.7216L233.214 56.0102C232.561 56.8972 231.787 57.7021 230.605 58.2577C230.022 58.5285 229.271 58.6723 228.552 58.564C227.83 58.4578 227.227 58.1593 226.737 57.7725C225.724 56.9644 225.485 55.7969 225.556 54.8012C225.632 53.7766 225.939 52.8201 226.411 51.8778L227.175 52.2598C226.29 53.0155 223.983 54.2399 221.755 53.2603C219.087 51.6319 222.02 47.0668 222.629 46.2627Z" fill="#1A1D3E"/>
<path d="M222.733 46.2472C222.166 46.5466 221.58 46.7952 221.018 46.9175C220.456 47.0431 219.931 46.9456 219.589 46.6718C219.238 46.403 219.057 45.9207 218.938 45.4298C218.835 44.9303 218.758 44.4014 218.706 43.8521C218.425 44.3573 218.267 44.906 218.262 45.4749C218.261 46.0344 218.385 46.6713 218.984 47.176C219.302 47.4076 219.685 47.5604 220.1 47.6032C220.516 47.6353 220.917 47.5649 221.252 47.4307C221.929 47.1706 222.407 46.7316 222.733 46.2472Z" fill="#1A1D3E"/>
<path d="M274.653 244.093L231.842 244.152C231.842 244.152 237.683 178.881 232.758 176.772C224.003 173.023 177.958 176.95 157.72 165.152C141.285 155.57 156.333 121.723 156.333 121.723L191.093 121.675C191.093 121.675 196.644 131.087 197.647 134.464C197.647 134.464 259.868 139.791 273.234 153.458C286.158 166.674 274.653 244.093 274.653 244.093Z" fill="#1A1D3E"/>
<path d="M303.114 279.686C300.716 280.277 232.74 278.656 230.202 277.263C229.796 277.048 230.091 269.089 230.575 259.868L232.933 230.628L276.136 230.377L273.476 260.221C273.476 260.221 298.451 269.989 301.044 271.759C303.615 273.523 305.513 279.103 303.114 279.686Z" fill="#D3766A"/>
<path d="M273.48 260.222C273.48 260.222 298.455 269.988 301.044 271.758C303.612 273.525 305.51 279.104 303.114 279.682C300.714 280.277 232.742 278.657 230.196 277.263C229.798 277.003 230.093 269.065 230.579 259.869L231.485 248.579L274.501 248.537L273.48 260.222Z" fill="#37474F"/>
<path d="M274.211 251.859L274.136 252.765L231.158 252.698L231.225 251.786L274.211 251.859Z" fill="#1355FF"/>
<path d="M273.968 254.638L273.892 255.551L230.932 255.484L231.007 254.572L273.968 254.638Z" fill="#1355FF"/>
<path d="M303.406 279.662C301.019 280.247 232.497 279.034 229.963 277.653C228.999 277.133 229.334 268.792 230.596 259.471L274.024 260.028C274.024 260.028 298.757 270.009 301.335 271.766C303.899 273.522 305.793 279.077 303.406 279.662Z" fill="#1355FF"/>
<path d="M302.514 277.447C291.177 276.954 245.395 275.834 234.142 276.045C234.05 276.047 234.049 276.097 234.14 276.103C245.363 276.789 291.156 277.609 302.509 277.597C302.749 277.597 302.754 277.457 302.514 277.447Z" fill="#1A1D3E"/>
<path d="M297.053 269.692C294.365 269.54 291.699 270.513 290.185 271.775C288.731 272.989 287.462 274.713 287.474 276.62C287.474 276.675 287.599 276.679 287.611 276.623C288.388 273.043 292.539 269.981 297.049 269.807C297.14 269.803 297.145 269.697 297.053 269.692Z" fill="#1A1D3E"/>
<path d="M277.549 261.032C273.01 260.875 267.699 262.048 264.77 264.989C264.656 265.103 264.858 265.232 264.995 265.179C269.161 263.562 273.109 262.377 277.611 261.487C277.929 261.424 277.875 261.044 277.549 261.032Z" fill="#1A1D3E"/>
<path d="M281.015 262.221C276.476 262.064 271.165 263.237 268.235 266.178C268.122 266.292 268.324 266.421 268.46 266.368C272.627 264.751 276.575 263.566 281.077 262.676C281.395 262.613 281.34 262.233 281.015 262.221Z" fill="#1A1D3E"/>
<path d="M284.481 263.41C279.942 263.253 274.631 264.427 271.701 267.367C271.587 267.481 271.789 267.61 271.926 267.557C276.092 265.94 280.04 264.755 284.543 263.865C284.86 263.802 284.806 263.422 284.481 263.41Z" fill="#1A1D3E"/>
<path d="M287.947 264.599C283.408 264.441 278.097 265.615 275.167 268.556C275.053 268.67 275.255 268.799 275.392 268.746C279.558 267.129 283.506 265.944 288.009 265.054C288.326 264.991 288.272 264.611 287.947 264.599Z" fill="#1A1D3E"/>
<path d="M237.345 267.388C232.25 267.28 232.034 273.691 237.137 273.8C242.232 273.907 242.448 267.496 237.345 267.388Z" fill="#1A1D3E"/>
<path d="M282.816 251.339C280.567 249.738 277.613 251.185 276.144 252.745C274.268 254.752 272.8 257.405 272.092 259.986C271.976 260.352 271.89 260.72 271.82 261.075C271.8 261.234 271.766 261.393 271.731 261.54C271.746 261.553 271.731 261.552 271.731 261.552L271.728 261.675C271.709 261.81 271.69 261.933 271.672 262.055C271.67 262.129 271.745 262.167 271.821 262.156C271.862 262.329 272.04 262.492 272.267 262.521C272.372 262.547 272.494 262.537 272.617 262.478C273.525 262.002 274.479 261.527 275.433 261.053C275.602 260.982 275.756 260.899 275.926 260.816C278.249 259.652 280.544 258.415 282.26 256.713C283.742 255.252 284.93 252.852 282.816 251.339ZM276.961 259.015C276.19 259.444 275.405 259.86 274.635 260.277C273.972 260.634 273.325 260.991 272.678 261.36C272.585 261.408 272.492 261.468 272.415 261.515C272.338 261.563 272.246 261.611 272.168 261.659C272.201 261.585 272.233 261.512 272.265 261.439C272.276 261.431 272.281 261.423 272.281 261.415C272.507 260.939 272.732 260.476 272.942 260.001C273.538 258.733 274.149 257.478 274.926 256.263C275.449 255.436 276.003 254.586 276.661 253.823C277.695 252.637 282.269 249.67 282.57 253.682C282.738 255.885 278.856 257.967 276.961 259.015Z" fill="#1A1D3E"/>
<path d="M272.664 261.864C272.726 261.828 272.742 261.767 272.683 261.704C272.594 261.629 272.505 261.566 272.415 261.515C272.386 261.466 272.341 261.44 272.311 261.427C272.297 261.415 272.297 261.403 272.281 261.415C272.133 261.277 271.984 261.176 271.82 261.074C271.255 260.659 270.642 260.279 270.014 259.936C267.548 258.528 264.617 257.432 261.853 256.928C259.482 256.492 256.084 256.936 255.64 259.325C255.623 259.41 255.62 259.496 255.618 259.582C255.44 261.681 258.141 262.823 260.348 263.157C262.662 263.493 265.049 263.351 267.409 263.098C269.038 262.918 270.668 262.689 272.267 262.52L272.297 262.521C272.708 262.479 272.809 262.112 272.664 261.864ZM266.235 262.143C263.938 262.336 259.312 262.77 257.675 260.995C257.174 260.446 256.928 259.999 256.877 259.617C256.579 257.744 260.86 257.721 262.309 258.03C263.426 258.258 264.524 258.622 265.592 258.973C266.405 259.245 267.186 259.554 267.966 259.888C269.242 260.414 270.471 260.989 271.731 261.54L271.746 261.552C271.821 261.591 271.912 261.617 271.987 261.655C271.896 261.654 271.819 261.664 271.728 261.675C271.5 261.683 271.287 261.692 271.059 261.712C269.447 261.831 267.848 262.012 266.235 262.143Z" fill="#1A1D3E"/>
<path d="M303.114 279.686C300.716 280.277 232.74 278.656 230.202 277.263C229.796 277.048 230.091 269.089 230.575 259.868L232.933 230.628L276.136 230.377L273.476 260.221C273.476 260.221 298.451 269.989 301.044 271.759C303.615 273.523 305.513 279.103 303.114 279.686Z" fill="#D3766A"/>
<path d="M273.48 260.222C273.48 260.222 298.455 269.988 301.044 271.758C303.612 273.525 305.51 279.104 303.114 279.682C300.714 280.277 232.742 278.657 230.196 277.263C229.798 277.003 230.093 269.065 230.579 259.869L231.485 248.579L274.501 248.537L273.48 260.222Z" fill="#EBEBEB"/>
<path d="M303.406 279.662C301.019 280.247 232.497 279.034 229.963 277.653C228.999 277.133 229.334 268.792 230.596 259.471L274.024 260.028C274.024 260.028 298.757 270.009 301.335 271.766C303.899 273.522 305.793 279.077 303.406 279.662Z" fill="#1355FF"/>
<path d="M302.514 277.447C291.177 276.954 245.395 275.834 234.142 276.045C234.05 276.047 234.049 276.097 234.14 276.103C245.363 276.789 291.156 277.609 302.509 277.597C302.749 277.597 302.754 277.457 302.514 277.447Z" fill="#1A1D3E"/>
<path d="M297.053 269.692C294.365 269.54 291.699 270.513 290.185 271.775C288.731 272.989 287.462 274.713 287.474 276.62C287.474 276.675 287.599 276.679 287.611 276.623C288.388 273.043 292.539 269.981 297.049 269.807C297.14 269.803 297.145 269.697 297.053 269.692Z" fill="#1A1D3E"/>
<path d="M277.549 261.032C273.01 260.875 267.699 262.048 264.77 264.989C264.656 265.103 264.858 265.232 264.995 265.179C269.161 263.562 273.109 262.377 277.611 261.487C277.929 261.424 277.875 261.044 277.549 261.032Z" fill="#1A1D3E"/>
<path d="M281.015 262.221C276.476 262.064 271.165 263.237 268.235 266.178C268.122 266.292 268.324 266.421 268.46 266.368C272.627 264.751 276.575 263.566 281.077 262.676C281.395 262.613 281.34 262.233 281.015 262.221Z" fill="#1A1D3E"/>
<path d="M284.481 263.41C279.942 263.253 274.631 264.427 271.701 267.367C271.587 267.481 271.789 267.61 271.926 267.557C276.092 265.94 280.04 264.755 284.543 263.865C284.86 263.802 284.806 263.422 284.481 263.41Z" fill="#1A1D3E"/>
<path d="M287.947 264.599C283.408 264.441 278.097 265.615 275.167 268.556C275.053 268.67 275.255 268.799 275.392 268.746C279.558 267.129 283.506 265.944 288.009 265.054C288.326 264.991 288.272 264.611 287.947 264.599Z" fill="#1A1D3E"/>
<path d="M237.345 267.388C232.25 267.28 232.034 273.691 237.137 273.8C242.232 273.907 242.448 267.496 237.345 267.388Z" fill="#1A1D3E"/>
<path d="M282.816 251.339C280.567 249.738 277.613 251.185 276.144 252.745C274.268 254.752 272.8 257.405 272.092 259.986C271.976 260.352 271.89 260.72 271.82 261.075C271.8 261.234 271.766 261.393 271.731 261.54C271.746 261.553 271.731 261.552 271.731 261.552L271.728 261.675C271.709 261.81 271.69 261.933 271.672 262.055C271.67 262.129 271.745 262.167 271.821 262.156C271.862 262.329 272.04 262.492 272.267 262.521C272.372 262.547 272.494 262.537 272.617 262.478C273.525 262.002 274.479 261.527 275.433 261.053C275.602 260.982 275.756 260.899 275.926 260.816C278.249 259.652 280.544 258.415 282.26 256.713C283.742 255.252 284.93 252.852 282.816 251.339ZM276.961 259.015C276.19 259.444 275.405 259.86 274.635 260.277C273.972 260.634 273.325 260.991 272.678 261.36C272.585 261.408 272.492 261.468 272.415 261.515C272.338 261.563 272.246 261.611 272.168 261.659C272.201 261.585 272.233 261.512 272.265 261.439C272.276 261.431 272.281 261.423 272.281 261.415C272.507 260.939 272.732 260.476 272.942 260.001C273.538 258.733 274.149 257.478 274.926 256.263C275.449 255.436 276.003 254.586 276.661 253.823C277.695 252.637 282.269 249.67 282.57 253.682C282.738 255.885 278.856 257.967 276.961 259.015Z" fill="#1A1D3E"/>
<path d="M272.664 261.864C272.726 261.828 272.742 261.767 272.683 261.704C272.594 261.629 272.505 261.566 272.415 261.515C272.386 261.466 272.341 261.44 272.311 261.427C272.297 261.415 272.297 261.403 272.281 261.415C272.133 261.277 271.984 261.176 271.82 261.074C271.255 260.659 270.642 260.279 270.014 259.936C267.548 258.528 264.617 257.432 261.853 256.928C259.482 256.492 256.084 256.936 255.64 259.325C255.623 259.41 255.62 259.496 255.618 259.582C255.44 261.681 258.141 262.823 260.348 263.157C262.662 263.493 265.049 263.351 267.409 263.098C269.038 262.918 270.668 262.689 272.267 262.52L272.297 262.521C272.708 262.479 272.809 262.112 272.664 261.864ZM266.235 262.143C263.938 262.336 259.312 262.77 257.675 260.995C257.174 260.446 256.928 259.999 256.877 259.617C256.579 257.744 260.86 257.721 262.309 258.03C263.426 258.258 264.524 258.622 265.592 258.973C266.405 259.245 267.186 259.554 267.966 259.888C269.242 260.414 270.471 260.989 271.731 261.54L271.746 261.552C271.821 261.591 271.912 261.617 271.987 261.655C271.896 261.654 271.819 261.664 271.728 261.675C271.5 261.683 271.287 261.692 271.059 261.712C269.447 261.831 267.848 262.012 266.235 262.143Z" fill="#1A1D3E"/>
<path opacity="0.1" d="M293.551 279.804C273.937 279.706 231.938 278.725 229.966 277.655C229.002 277.134 229.337 268.79 230.599 259.469H230.608L231.195 252.203L231.228 251.786L232.93 230.63L233.396 223.905L260.142 248.549L263.659 251.839L264.633 252.75L266.641 254.628L267.615 255.539L272.149 259.781L272.39 260.011L272.77 260.365L273.399 260.956L273.683 261.221L274.174 261.68L274.666 262.132L275.295 262.723L276.398 263.759L277.045 264.357L278.174 265.415L278.932 266.124L279.984 267.112L287.948 274.567L288.276 274.866L290.603 277.043L291.085 277.495L293.525 279.776L293.525 279.783L293.551 279.804Z" fill="#1A1D3E"/>
<path d="M257.124 244.117L214.313 244.176C214.313 244.176 220.154 178.905 215.229 176.796C206.474 173.047 167.311 176.964 147.073 165.166C130.638 155.585 145.686 121.738 145.686 121.738L189.048 121.678C189.048 121.678 194.6 131.09 195.602 134.467C195.602 134.467 242.34 139.815 255.705 153.483C268.629 166.699 257.124 244.117 257.124 244.117Z" fill="#1A1D3E"/>
<path d="M285.585 279.71C283.187 280.301 215.211 278.68 212.673 277.287C212.267 277.072 212.563 269.113 213.046 259.892L215.404 230.652L258.607 230.401L255.947 260.245C255.947 260.245 280.922 270.013 283.515 271.783C286.086 273.547 287.984 279.127 285.585 279.71Z" fill="#D3766A"/>
<path d="M255.951 260.246C255.951 260.246 280.926 270.012 283.516 271.782C286.083 273.549 287.981 279.128 285.586 279.706C283.185 280.301 215.214 278.681 212.667 277.287C212.269 277.027 212.564 269.089 213.05 259.893L213.956 248.603L256.973 248.561L255.951 260.246Z" fill="#EBEBEB"/>
<path d="M285.877 279.685C283.49 280.27 214.968 279.058 212.434 277.677C211.47 277.157 211.804 268.816 213.067 259.495L256.495 260.052C256.495 260.052 281.228 270.033 283.806 271.79C286.37 273.546 288.264 279.1 285.877 279.685Z" fill="#1355FF"/>
<path d="M284.985 277.471C273.648 276.978 227.866 275.858 216.613 276.069C216.521 276.071 216.52 276.121 216.611 276.127C227.834 276.813 273.627 277.633 284.98 277.621C285.22 277.621 285.225 277.481 284.985 277.471Z" fill="#1A1D3E"/>
<path d="M279.524 269.716C276.836 269.564 274.17 270.536 272.656 271.799C271.202 273.013 269.933 274.737 269.945 276.644C269.945 276.699 270.07 276.703 270.082 276.647C270.859 273.067 275.01 270.005 279.52 269.831C279.611 269.827 279.616 269.721 279.524 269.716Z" fill="#1A1D3E"/>
<path d="M260.02 261.056C255.481 260.899 250.17 262.072 247.241 265.013C247.127 265.127 247.329 265.256 247.466 265.203C251.632 263.586 255.58 262.401 260.082 261.511C260.4 261.448 260.346 261.068 260.02 261.056Z" fill="#1A1D3E"/>
<path d="M263.486 262.245C258.947 262.087 253.636 263.261 250.706 266.202C250.593 266.316 250.795 266.445 250.931 266.392C255.098 264.775 259.046 263.59 263.548 262.7C263.866 262.637 263.811 262.257 263.486 262.245Z" fill="#1A1D3E"/>
<path d="M266.952 263.434C262.413 263.277 257.102 264.451 254.172 267.391C254.058 267.505 254.26 267.634 254.397 267.581C258.564 265.964 262.511 264.779 267.014 263.889C267.331 263.826 267.277 263.446 266.952 263.434Z" fill="#1A1D3E"/>
<path d="M270.418 264.623C265.879 264.465 260.568 265.639 257.638 268.58C257.524 268.694 257.726 268.823 257.863 268.77C262.029 267.153 265.977 265.968 270.48 265.078C270.797 265.015 270.743 264.635 270.418 264.623Z" fill="#1A1D3E"/>
<path d="M219.816 267.412C214.721 267.304 214.505 273.715 219.608 273.823C224.703 273.931 224.919 267.52 219.816 267.412Z" fill="#1A1D3E"/>
<path d="M265.287 251.363C263.038 249.762 260.084 251.209 258.615 252.769C256.739 254.776 255.271 257.429 254.563 260.01C254.447 260.376 254.361 260.743 254.291 261.099C254.271 261.258 254.237 261.417 254.203 261.564C254.217 261.577 254.202 261.576 254.202 261.576L254.199 261.699C254.18 261.834 254.161 261.957 254.143 262.079C254.141 262.153 254.216 262.191 254.292 262.18C254.333 262.353 254.511 262.516 254.738 262.545C254.843 262.571 254.965 262.561 255.088 262.502C255.996 262.026 256.95 261.551 257.905 261.077C258.073 261.006 258.227 260.923 258.397 260.84C260.72 259.676 263.015 258.439 264.731 256.736C266.213 255.276 267.401 252.875 265.287 251.363ZM259.432 259.039C258.661 259.468 257.876 259.884 257.106 260.3C256.443 260.658 255.796 261.015 255.149 261.384C255.056 261.432 254.963 261.492 254.886 261.539C254.809 261.587 254.717 261.635 254.639 261.682C254.672 261.609 254.704 261.536 254.736 261.463C254.747 261.455 254.752 261.447 254.752 261.439C254.978 260.963 255.203 260.5 255.413 260.025C256.009 258.757 256.62 257.502 257.397 256.287C257.92 255.46 258.474 254.61 259.132 253.847C260.166 252.661 264.74 249.694 265.041 253.706C265.209 255.909 261.327 257.991 259.432 259.039Z" fill="#1A1D3E"/>
<path d="M255.135 261.888C255.197 261.852 255.213 261.791 255.154 261.728C255.065 261.653 254.976 261.59 254.886 261.539C254.857 261.489 254.812 261.464 254.782 261.451C254.768 261.439 254.768 261.426 254.752 261.438C254.604 261.301 254.455 261.2 254.291 261.098C253.725 260.683 253.113 260.303 252.485 259.96C250.019 258.552 247.088 257.455 244.324 256.952C241.953 256.516 238.555 256.96 238.111 259.349C238.094 259.434 238.091 259.52 238.089 259.606C237.911 261.705 240.612 262.847 242.819 263.181C245.133 263.517 247.52 263.375 249.88 263.122C251.509 262.942 253.139 262.713 254.738 262.544L254.768 262.545C255.179 262.503 255.28 262.136 255.135 261.888ZM248.706 262.167C246.409 262.36 241.783 262.794 240.146 261.019C239.645 260.47 239.399 260.023 239.348 259.641C239.05 257.768 243.331 257.745 244.78 258.054C245.897 258.282 246.995 258.646 248.064 258.997C248.876 259.269 249.657 259.578 250.437 259.912C251.713 260.438 252.942 261.013 254.203 261.564L254.217 261.576C254.292 261.615 254.383 261.641 254.458 261.679C254.366 261.677 254.29 261.688 254.199 261.699C253.971 261.707 253.758 261.716 253.53 261.736C251.918 261.855 250.319 262.036 248.706 262.167Z" fill="#1A1D3E"/>
<path d="M195.602 134.467C213.283 136.809 239.893 141.219 253.41 150.974C258.332 154.478 259.464 159.887 260.434 164.857C262.028 174.111 262.021 183.485 261.844 192.803C261.396 211.444 259.324 230.025 256.973 248.561C259.402 223.84 262.198 198.996 260.745 174.191C260.226 168.075 259.725 161.744 256.984 155.991C250.165 143.375 211.511 136.737 195.602 134.467Z" fill="#455A64"/>
<path d="M193.37 115.138L194.707 124.895L141.233 128.521C141.233 128.521 147.235 100.907 167.226 84.1107C175.347 77.2878 181.929 80.414 186.327 85.8775C187.441 87.2601 196.312 100.61 196.968 107.719C197.258 110.863 193.37 115.138 193.37 115.138Z" fill="#455A64"/>
<path d="M179.124 111.442C181.408 111.714 183.699 112.065 185.919 112.669C187.024 112.969 188.106 113.318 189.187 113.691C189.726 113.877 190.268 114.044 190.813 114.21C191.373 114.379 191.974 114.539 192.563 114.567C192.616 114.57 192.612 114.648 192.559 114.649C191.986 114.654 191.438 114.658 190.868 114.588C190.326 114.522 189.789 114.398 189.262 114.259C188.138 113.965 187.03 113.62 185.91 113.314C183.65 112.698 181.392 112.082 179.091 111.628C178.985 111.607 179.016 111.429 179.124 111.442Z" fill="#1A1D3E"/>
<path d="M173.401 113.35C175.288 113.194 177.212 113.124 179.105 113.18C180.057 113.208 181 113.29 181.946 113.397C182.397 113.448 182.848 113.508 183.298 113.572C183.792 113.644 184.278 113.78 184.773 113.844C184.825 113.851 184.823 113.931 184.77 113.925C184.301 113.879 183.821 113.909 183.35 113.89C182.877 113.87 182.403 113.847 181.929 113.827C180.981 113.788 180.032 113.759 179.084 113.71C177.186 113.614 175.296 113.536 173.395 113.504C173.292 113.502 173.304 113.358 173.401 113.35Z" fill="#1A1D3E"/>
<path d="M298.296 279.105L211.162 279.224L211.178 286.687L298.312 286.568L298.296 279.105Z" fill="#1A1D3E"/>
<path d="M121.852 187.839L203.446 187.728L203.392 162.259L121.799 162.37L121.852 187.839Z" fill="#A6A6A6"/>
<path d="M135.274 234.225L203.542 234.131L203.536 230.94L135.268 231.034C129.093 231.042 124.062 226.981 124.052 221.982L123.809 105.772C123.795 99.0133 116.991 93.5238 108.644 93.5352L99.4438 93.5478L99.4504 96.7389L108.65 96.7264C114.825 96.7179 119.857 100.778 119.867 105.778L120.11 221.987C120.124 228.746 126.927 234.236 135.274 234.225Z" fill="#DBDBDB"/>
<path d="M201.671 281.998L205.613 281.993L205.331 146.749C205.318 140.663 199.193 135.721 191.677 135.731L121.901 135.826L121.908 139.018L191.683 138.922C197.026 138.915 201.38 142.428 201.389 146.754L201.671 281.998Z" fill="#DBDBDB"/>
<path d="M87.2446 98.218L111.662 98.1846L111.649 91.8395L87.2313 91.873L87.2446 98.218Z" fill="#455A64"/>
<path d="M125.096 227.091C125.107 232.272 129.229 236.466 134.302 236.459C139.375 236.452 143.479 232.246 143.469 227.066C143.458 221.885 139.336 217.691 134.263 217.698C129.189 217.705 125.086 221.911 125.096 227.091Z" fill="#A6A6A6"/>
<path d="M122.153 227.095C122.164 232.276 126.285 236.47 131.359 236.463C136.432 236.456 140.536 232.251 140.525 227.07C140.514 221.89 136.393 217.696 131.319 217.703C126.246 217.71 122.142 221.915 122.153 227.095Z" fill="#DBDBDB"/>
<path d="M73.1228 227.997C73.0473 191.848 102.088 162.398 137.86 162.349C173.632 162.3 202.795 191.67 202.871 227.82C202.946 263.97 173.906 293.419 138.134 293.468C102.362 293.517 73.1982 264.147 73.1228 227.997ZM79.6152 227.988C79.6847 261.239 105.931 288.255 138.123 288.211C170.314 288.167 196.448 261.079 196.378 227.829C196.309 194.577 170.062 167.561 137.871 167.605C105.679 167.65 79.5458 194.737 79.6152 227.988Z" fill="#1A1D3E"/>
<path d="M75.4832 227.994C75.4162 195.949 101.109 169.842 132.756 169.799C164.403 169.756 190.204 195.791 190.271 227.837C190.337 259.882 164.646 285.989 132.999 286.032C101.351 286.075 75.5501 260.039 75.4832 227.994ZM80.1206 227.988C80.1832 257.963 103.901 282.317 132.991 282.277C162.08 282.237 185.696 257.818 185.633 227.843C185.571 197.868 161.853 173.514 132.764 173.554C103.674 173.593 80.058 198.012 80.1206 227.988Z" fill="#DBDBDB"/>
<path d="M194.216 282.978C194.228 288.78 198.844 293.477 204.526 293.469C210.207 293.461 214.803 288.752 214.791 282.95C214.779 277.149 210.163 272.452 204.482 272.459C198.8 272.467 194.204 277.177 194.216 282.978Z" fill="#A6A6A6"/>
<path d="M190.92 282.983C190.932 288.785 195.548 293.482 201.229 293.474C206.911 293.466 211.507 288.757 211.495 282.955C211.483 277.154 206.867 272.457 201.185 272.464C195.504 272.472 190.908 277.182 190.92 282.983Z" fill="#DBDBDB"/>
<path d="M165.37 66.4411C165.37 66.4411 160.14 65.4866 156.9 68.0868C153.661 70.6868 154.785 73.5696 157.653 76.1795C160.521 78.7892 165.521 80.9243 169.078 79.2393C174.756 76.5492 172.917 69.6852 170.201 68.0595C167.485 66.4339 165.37 66.4411 165.37 66.4411Z" fill="#1A1D3E"/>
<path d="M165.37 66.441C161.444 66.2625 155.569 66.6753 154.779 70.5241C154.444 73.1875 157.223 75.7524 159.408 77.5359C156.743 75.9622 153.714 73.3289 154.059 70.4513C154.787 66.2462 161.195 65.6669 165.37 66.441Z" fill="#1A1D3E"/>
<path d="M156.937 75.0268C156.937 75.0268 154.437 72.9779 150.454 73.7824C146.471 74.5869 145.702 77.2353 146.437 80.3225C147.173 83.4095 150.229 87.6535 155.155 86.4174C160.811 84.9981 161.538 79.8815 160.361 77.6122C159.184 75.3431 156.937 75.0268 156.937 75.0268Z" fill="#1A1D3E"/>
<path d="M157.941 75.6643C154.999 74.094 150.247 72.2292 147.457 74.8956C145.688 76.8387 146.375 79.8207 147.025 82.0258C145.828 79.8021 144.972 76.6576 146.884 74.5348C149.845 71.5373 155.161 73.4783 157.941 75.6643Z" fill="#1A1D3E"/>
<path d="M135.896 81.2545C135.896 81.2545 136.59 83.6146 139.892 84.4448C143.195 85.2753 145.178 83.6402 146.315 81.1568C147.452 78.6737 146.895 74.2039 142.622 73.5699C138.509 72.9594 135.204 76.1307 134.826 78.1812C134.449 80.2318 135.896 81.2545 135.896 81.2545Z" fill="#1A1D3E"/>
<path d="M135.517 80.4402C136.826 82.5756 139.21 85.5765 142.631 84.6606C144.956 83.8768 146.043 81.5365 146.812 79.7227C146.505 81.7767 145.443 84.3389 142.89 85.2098C139.111 86.3357 136.292 83.0341 135.517 80.4402Z" fill="#1A1D3E"/>
<path d="M124.79 79.9255C124.79 79.9255 124.681 79.6227 124.586 79.1321C127.281 79.7003 128.91 79.1834 128.91 79.1834C127.024 79.0271 125.44 78.3763 124.455 77.8662C124.444 77.068 124.569 76.1314 125.023 75.229C126.151 72.9927 128.384 71.4438 128.384 71.4438C133.329 72.6854 135.191 74.7971 135.835 75.8443C136.073 76.2315 136.145 76.4745 136.145 76.4745L135.615 79.7962C131.134 82.1692 124.79 79.9255 124.79 79.9255Z" fill="#1A1D3E"/>
<path d="M136.033 76.6592C135.344 74.2207 133.025 72.4362 130.304 71.4144C129.911 71.268 129.508 71.1388 129.112 70.9819C129.539 71.0533 129.968 71.1336 130.393 71.2308C133.321 71.9547 135.999 74.0692 136.033 76.6592Z" fill="#1A1D3E"/>
<path d="M173.378 83.723C173.783 84.5533 179.87 89.5291 184.69 88.7648C186.26 88.5134 184.949 81.5163 184.949 81.5163L185.678 73.5001L172.525 68.7559C172.525 68.7559 173.212 83.3697 173.378 83.723Z" fill="#D3766A"/>
<path d="M185.679 73.5007L184.945 81.5155C184.945 81.5155 185.004 81.8043 185.077 82.268C178.456 82.0669 174.295 78.5984 172.948 77.2872C172.738 73.2296 172.528 68.7539 172.528 68.7539L185.679 73.5007Z" fill="#1A1D3E"/>
<path d="M193.94 61.5375C199.062 74.0335 190.397 77.9285 187.067 78.8196C184.045 79.6287 173.628 82.0726 166.938 70.0723C160.249 58.0717 165.806 52.1932 172.597 50.0467C179.388 47.9 188.818 49.0412 193.94 61.5375Z" fill="#D3766A"/>
<path d="M191.033 61.1495C190.642 61.156 190.28 61.1095 189.892 61.084C189.455 61.0549 189.103 61.0681 188.745 60.8375C188.552 60.7138 188.516 60.4229 188.647 60.2606C188.952 59.8822 189.499 59.81 190.027 59.8276C190.6 59.8466 191.036 59.98 191.465 60.2873C191.88 60.5851 191.548 61.1404 191.033 61.1495Z" fill="#1A1D3E"/>
<path d="M180.444 62.6176C180.803 62.4929 181.109 62.3297 181.449 62.1768C181.833 62.0041 182.16 61.8988 182.369 61.5686C182.481 61.3919 182.365 61.1149 182.163 61.011C181.693 60.768 181.158 60.885 180.686 61.0775C180.174 61.2864 179.845 61.5536 179.611 61.9765C179.384 62.3867 179.969 62.7816 180.444 62.6176Z" fill="#1A1D3E"/>
<path d="M184.793 72.054C185.096 72.2363 185.412 72.4987 185.822 72.4821C186.215 72.4659 186.647 72.2738 186.985 72.123C187.018 72.1081 187.059 72.1344 187.041 72.1639C186.809 72.5429 186.235 72.8272 185.705 72.8105C185.187 72.7944 184.878 72.4678 184.693 72.1068C184.667 72.0563 184.749 72.0275 184.793 72.054Z" fill="#1A1D3E"/>
<path d="M185.031 69.5614C185.879 70.1775 186.892 70.3926 187.889 70.3322C188.334 70.3075 188.783 70.2209 189.208 70.0926C189.293 70.0721 189.376 70.0454 189.449 70.0146C189.524 69.9896 189.591 69.9669 189.672 69.934C189.792 69.8918 189.832 69.7938 189.821 69.6941L189.818 69.6879C189.807 69.6564 189.798 69.6311 189.779 69.6018L189.776 69.5954L189.749 69.5204C189.548 68.8522 189.128 67.8611 189.128 67.8611C189.469 67.9163 191.182 68.1352 191.041 67.794C189.863 64.9724 188.553 61.8348 186.645 59.2287C186.587 59.14 186.416 59.2013 186.458 59.2935C187.458 62.0415 189.047 64.6284 190.106 67.3758C189.568 67.3337 188.681 67.2319 188.254 67.3334C188.147 67.3862 189.107 69.2369 189.168 69.543C189.168 69.543 189.172 69.5554 189.172 69.576C187.843 70.0224 186.693 69.915 185.104 69.4619C185.009 69.4305 184.944 69.5069 185.031 69.5614Z" fill="#1A1D3E"/>
<path d="M188.294 70.0188C188.294 70.0188 187.818 70.7868 187.019 71.1527C186.724 71.2885 186.394 71.3723 186.023 71.3457C185.261 71.2937 185.127 70.7552 185.161 70.2734C185.187 69.8773 185.334 69.5186 185.334 69.5186C185.334 69.5186 186.571 70.174 188.294 70.0188Z" fill="#1A1D3E"/>
<path d="M187.019 71.1526C186.724 71.2884 186.394 71.3722 186.023 71.3456C185.261 71.2937 185.127 70.7551 185.161 70.2733C185.955 70.2278 186.82 70.5475 187.019 71.1526Z" fill="#FF9CBD"/>
<path d="M180.966 65.2619C180.954 65.0297 181.011 64.7787 181.17 64.54C181.328 64.3014 181.653 64.1335 181.978 64.0734C182.315 64.0116 182.71 64.1169 182.944 64.2993C183.179 64.4815 183.336 64.693 183.434 64.9127C183.498 65.052 183.54 65.1943 183.577 65.3375C183.649 65.6421 183.656 65.9514 183.553 66.2449C183.515 66.021 183.446 65.8061 183.352 65.6036C183.265 65.4092 183.165 65.2302 183.049 65.0578C182.805 64.7016 182.451 64.4285 182.079 64.5088C181.681 64.5658 181.453 64.8727 181.393 65.2817C181.33 65.6819 181.358 66.1142 181.399 66.5537C181.141 66.1633 180.979 65.7276 180.966 65.2619Z" fill="#1A1D3E"/>
<path d="M181.358 64.334C181.082 64.5439 180.841 64.8787 180.471 64.9643C180.042 65.0634 179.644 64.8086 179.294 64.5585C179.258 64.5327 179.232 64.5624 179.24 64.601C179.355 65.1578 179.747 65.6888 180.501 65.6634C181.188 65.6403 181.56 65.0775 181.605 64.4937C181.614 64.3857 181.469 64.2495 181.358 64.334Z" fill="#1A1D3E"/>
<path d="M191.767 63.1876C191.647 62.9767 191.455 62.7743 191.179 62.6208C190.903 62.4674 190.52 62.438 190.196 62.5051C189.862 62.5748 189.57 62.8147 189.464 63.0636C189.359 63.3124 189.338 63.5587 189.375 63.7904C189.397 63.9378 189.44 64.0801 189.488 64.2211C189.596 64.5187 189.765 64.7962 190.022 65.0193C189.929 64.8061 189.869 64.5894 189.839 64.3743C189.806 64.1694 189.794 63.973 189.799 63.7769C189.816 63.3697 189.977 62.9958 190.352 62.9296C190.739 62.8329 191.114 63.0218 191.399 63.3631C191.681 63.6958 191.9 64.0906 192.112 64.4965C192.121 64.0541 192.019 63.6066 191.767 63.1876Z" fill="#1A1D3E"/>
<path d="M191.034 62.5662C191.358 62.6651 191.716 62.8884 192.055 62.8425C192.449 62.7894 192.645 62.4247 192.806 62.0801C192.823 62.0443 192.858 62.0632 192.87 62.1008C193.048 62.6455 192.99 63.2591 192.37 63.4882C191.805 63.6971 191.232 63.3095 190.913 62.7943C190.853 62.6989 190.904 62.5266 191.034 62.5662Z" fill="#1A1D3E"/>
<path d="M166.828 69.4023C168.574 69.0273 172.193 64.3349 170.606 57.3992C170.606 57.3992 171.499 63.7072 171.15 64.7109C170.802 65.7145 173.17 62.073 171.986 56.4648C171.986 56.4648 176.357 58.0683 179.792 58.2734C183.228 58.4784 185.211 58.1276 185.396 57.899C185.581 57.6706 180.491 57.234 178.895 56.2381C178.895 56.2381 188.358 58.0763 192.406 57.6694C192.875 57.6222 190.699 51.7465 183.722 49.4977C176.744 47.2492 168.666 50.4753 166.555 52.9584C166.555 52.9584 164.516 54.0445 163.099 57.53C161.294 61.9693 164.947 69.8059 166.828 69.4023Z" fill="#1A1D3E"/>
<path d="M171.986 55.7186C171.914 55.5706 171.624 55.6246 171.683 55.7853C172.638 58.3651 172.638 60.7455 172.279 63.41C172.274 63.4469 172.35 63.4555 172.359 63.419C173.034 60.7693 173.237 58.2767 171.986 55.7186Z" fill="#1A1D3E"/>
<path d="M184.264 58.5195C179.521 58.8353 175.238 58.3054 171.408 55.8876C171.327 55.8367 171.215 55.9181 171.291 55.9812C174.641 58.7625 179.743 59.2892 184.287 58.6608C184.385 58.6472 184.364 58.5128 184.264 58.5195Z" fill="#1A1D3E"/>
<path d="M170.249 70.1022C170.249 70.1022 165.823 66.5945 163.794 67.9461C161.764 69.2978 165.746 74.7531 168.59 75.1496C171.433 75.5459 171.938 73.4222 171.938 73.4222L170.249 70.1022Z" fill="#D3766A"/>
<path d="M164.983 69.4866C164.94 69.4901 164.943 69.5401 164.982 69.5466C166.988 69.8742 168.293 71.1236 169.317 72.4695C168.633 71.9956 167.808 71.8045 167.008 72.4791C166.966 72.5145 167.027 72.5689 167.077 72.5521C167.81 72.3034 168.386 72.3269 169.016 72.7432C169.462 73.038 169.815 73.4432 170.17 73.8081C170.289 73.9296 170.573 73.8117 170.473 73.6659C170.466 73.6554 170.457 73.6444 170.45 73.6333C170.05 71.7026 167.579 69.2925 164.983 69.4866Z" fill="#1A1D3E"/>
<path d="M194.628 126.407C184.202 124.974 155.35 123.789 136.159 124.42C118.972 124.985 103.93 133.326 89.385 141.393C80.1952 146.49 71.5144 151.305 62.4501 154.138C26.8877 165.252 7.58946 146.985 6.46259 146.277L13.679 146.091L12.7316 139.72C13.6807 140.309 28.7527 155.784 58.7621 146.402C66.7125 143.917 74.9143 139.369 83.5978 134.553C98.6045 126.23 115.613 116.796 135.743 116.135C155.65 115.48 186.77 116.115 194.702 118.12L194.628 126.407Z" fill="#1355FF"/>
<path d="M172.245 79.8959C163.122 68.4442 155.731 60.2172 142.771 46.8933C136.023 39.9554 127.557 31.6692 124.569 28.7144C120.632 24.8206 101.245 44.0934 104.286 46.5161C106.269 48.0955 112.787 53.1915 124.144 61.2603C137.082 70.4518 148.014 78.0827 162.969 86.8406C174.258 93.4514 178.279 87.4713 172.245 79.8959Z" fill="#D3766A"/>
<path d="M110.615 49.9733C104.649 48.89 85.7563 41.2269 82.4524 39.0459C79.148 36.8649 70.2014 30.031 72.0075 27.8126C73.8137 25.5939 76.6304 27.4252 76.6304 27.4252C76.6304 27.4252 73.0479 23.7771 75.4856 21.9563C77.4311 20.5033 81.5638 22.911 81.5638 22.911C81.5638 22.911 77.8972 18.7459 80.6011 17.1904C83.065 15.7731 86.7107 19.2797 86.7107 19.2797C86.7107 19.2797 84.0787 15.543 86.7766 14.5479C90.022 13.3507 94.5807 19.8161 98.4515 22.0025C99.3306 22.499 122.91 30.4403 122.91 30.4403L110.615 49.9733Z" fill="#D3766A"/>
<path d="M86.7974 19.0616C90.8223 23.6241 92.6509 25.4155 98.5348 27.9358C98.6499 27.9849 98.5854 28.1345 98.4594 28.092C92.4203 26.0484 90.0608 24.0478 86.5048 19.1814C86.3334 18.9467 86.6103 18.8494 86.7974 19.0616Z" fill="#1A1D3E"/>
<path d="M81.629 22.8999C85.6575 27.5842 88.3788 29.2119 94.3019 32.2188C94.3858 32.2614 94.3055 32.3806 94.2164 32.3436C88.1014 29.7873 84.6774 28.0768 81.4116 22.9683C81.2638 22.7373 81.4448 22.6857 81.629 22.8999Z" fill="#1A1D3E"/>
<path d="M76.9248 27.5748C81.2293 31.8821 84.0636 33.9154 90.2763 36.2369C90.4228 36.2914 90.3381 36.4699 90.1844 36.4264C83.5651 34.5583 80.0052 32.0423 76.7771 27.6949C76.5568 27.3982 76.654 27.3039 76.9248 27.5748Z" fill="#1A1D3E"/>
<path d="M127.374 31.7126C127.374 31.7126 123.669 24.5695 114.466 22.8934C110.747 22.2162 104.27 14.3723 101.07 14.9351C97.4772 15.5672 101.494 22.8882 106.662 26.4644C106.662 26.4644 102.183 34.7447 106.947 38.3715C107.978 39.1563 114.815 41.2075 116.341 40.76L127.374 31.7126Z" fill="#D3766A"/>
<path d="M107.029 26.98C105.144 30.1534 104.268 34.7411 106.578 37.7121C106.645 37.799 106.502 37.8888 106.42 37.8089C103.408 34.8947 104.359 29.5787 106.256 26.8258C106.621 26.2965 107.516 26.1589 107.029 26.98Z" fill="#1A1D3E"/>
<path d="M133.49 70.0371L159.836 63.4844C159.836 63.4844 166.309 71.6384 173.739 81.6483C180.79 91.1495 174.632 93.9295 159.916 86.6961C147.62 80.6518 133.49 70.0371 133.49 70.0371Z" fill="#455A64"/>
<path d="M141.313 72.7329C150.022 71.0119 158.696 68.1383 160.266 67.7256C160.34 67.706 160.278 67.611 160.205 67.6339C158.701 68.104 148.212 70.5057 141.245 72.6321C141.165 72.6566 141.229 72.7496 141.313 72.7329Z" fill="#1A1D3E"/>
<path d="M165.492 90.0721C165.281 89.8896 165.064 89.7117 164.849 89.5326C166.095 90.1935 167.368 90.8099 168.677 91.3896C168.706 91.4022 168.734 91.3667 168.708 91.3511C167.357 90.5291 162.017 87.6816 161.282 87.26C161.197 87.2111 161.092 87.3128 161.178 87.3611C161.884 87.758 163.467 88.796 164.087 89.1327C164.231 89.2757 164.375 89.4184 164.535 89.5505C164.797 89.7663 165.061 89.9788 165.341 90.1791C165.901 90.579 166.478 90.9629 167.052 91.3497C167.06 91.3552 167.07 91.3454 167.062 91.3396C166.515 90.9365 165.998 90.509 165.492 90.0721Z" fill="#1A1D3E"/>
<path d="M50.4074 175.207L54.8377 174.543L55.8279 170.762L56.8179 174.543L61.2482 175.209L56.8369 176.081L55.8279 179.653L54.8187 176.081L50.4074 175.207Z" fill="#1355FF"/>
<path d="M110.595 58.1877L115.026 57.5245L116.016 53.7432L117.006 57.5245L121.436 58.1895L117.025 59.0624L116.016 62.634L115.007 59.0624L110.595 58.1877Z" fill="#1355FF"/>
<path d="M290.328 163.608L294.758 162.944L295.748 159.163L296.738 162.944L301.168 163.609L296.757 164.482L295.748 168.054L294.739 164.482L290.328 163.608Z" fill="#1355FF"/>
<path d="M153.839 157.796L158.269 157.133L159.26 153.352L160.25 157.133L164.68 157.798L160.269 158.671L159.26 162.243L158.251 158.671L153.839 157.796Z" fill="#1355FF"/>
<path d="M32.7534 200.075L35.2297 199.704L35.783 197.591L36.3364 199.704L38.8126 200.076L36.347 200.564L35.783 202.56L35.2191 200.564L32.7534 200.075Z" fill="#1355FF"/>
<path d="M138.388 163.74L140.864 163.369L141.418 161.256L141.971 163.369L144.447 163.741L141.981 164.229L141.418 166.225L140.854 164.229L138.388 163.74Z" fill="#1355FF"/>
<path d="M64.7287 121.737L67.2049 121.366L67.7582 119.252L68.3117 121.366L70.788 121.738L68.3223 122.225L67.7582 124.222L67.1943 122.225L64.7287 121.737Z" fill="#1355FF"/>
<path d="M133.244 33.5603L135.72 33.1896L136.274 31.0762L136.827 33.1896L139.303 33.5613L136.838 34.0492L136.274 36.0455L135.71 34.0492L133.244 33.5603Z" fill="#1355FF"/>
<path d="M254.111 205.045L256.587 204.674L257.14 202.561L257.694 204.674L260.17 205.046L257.704 205.533L257.14 207.53L256.576 205.533L254.111 205.045Z" fill="#1355FF"/>
<path d="M237.733 111.636L240.209 111.265L240.762 109.152L241.315 111.265L243.792 111.637L241.326 112.125L240.762 114.121L240.198 112.125L237.733 111.636Z" fill="#1355FF"/>
<path d="M311.188 124.221L313.664 123.851L314.217 121.737L314.77 123.851L317.247 124.223L314.781 124.71L314.217 126.707L313.653 124.71L311.188 124.221Z" fill="#1355FF"/>
<path d="M122.807 214.508L125.283 214.137L125.837 212.024L126.39 214.137L128.866 214.509L126.401 214.997L125.837 216.993L125.273 214.997L122.807 214.508Z" fill="#1355FF"/>
<path d="M132.909 42.4918C133.833 42.4918 133.834 41.3296 132.909 41.3296C131.985 41.3296 131.984 42.4918 132.909 42.4918Z" fill="#1355FF"/>
<path d="M308.816 165.552C309.74 165.552 309.741 164.39 308.816 164.39C307.892 164.39 307.89 165.552 308.816 165.552Z" fill="#1355FF"/>
<path d="M245.579 217.231C246.503 217.231 246.504 216.068 245.579 216.068C244.655 216.068 244.654 217.231 245.579 217.231Z" fill="#1355FF"/>
<path d="M36.4764 100.947C37.4 100.947 37.4016 99.7847 36.4764 99.7847C35.5527 99.7847 35.5512 100.947 36.4764 100.947Z" fill="#1355FF"/>
<path d="M280.035 103.366C280.959 103.366 280.96 102.204 280.035 102.204C279.111 102.204 279.11 103.366 280.035 103.366Z" fill="#1355FF"/>
<path d="M103.574 124.803C104.498 124.803 104.499 123.641 103.574 123.641C102.651 123.641 102.649 124.803 103.574 124.803Z" fill="#1355FF"/>
<path d="M249.923 135.821C250.576 135.821 250.577 134.999 249.923 134.999C249.269 134.999 249.268 135.821 249.923 135.821Z" fill="#1355FF"/>
<path d="M237.733 69.0514C238.386 69.0514 238.387 68.229 237.733 68.229C237.079 68.229 237.078 69.0514 237.733 69.0514Z" fill="#1355FF"/>
<path d="M88.9752 73.1153C89.6287 73.1153 89.6298 72.293 88.9752 72.293C88.3217 72.293 88.3205 73.1153 88.9752 73.1153Z" fill="#1355FF"/>
<path d="M89.4657 107.319C90.1192 107.319 90.1203 106.497 89.4657 106.497C88.8122 106.497 88.8111 107.319 89.4657 107.319Z" fill="#1355FF"/>
<path d="M228.884 149.206C230.655 149.206 230.658 146.978 228.884 146.978C227.112 146.978 227.11 149.206 228.884 149.206Z" fill="#1355FF"/>
<path d="M218.375 28.5289C220.147 28.5289 220.15 26.3003 218.375 26.3003C216.604 26.3003 216.601 28.5289 218.375 28.5289Z" fill="#1355FF"/>
</svg>
