<svg width="42" height="42" viewBox="0 0 42 42" fill="none" xmlns="http://www.w3.org/2000/svg">
<path d="M20.0355 14.3174C20.1818 14.2965 20.3225 14.247 20.4496 14.1718C20.5768 14.0965 20.6878 13.997 20.7765 13.8788C20.8652 13.7606 20.9297 13.6261 20.9663 13.483C21.003 13.3399 21.0112 13.1909 20.9903 13.0447C20.9694 12.8984 20.9199 12.7577 20.8447 12.6305C20.7694 12.5034 20.6698 12.3923 20.5516 12.3037C20.4335 12.215 20.299 12.1505 20.1558 12.1138C20.0127 12.0772 19.8638 12.069 19.7175 12.0899C18.0639 12.3278 16.5091 13.0213 15.2271 14.0927C13.9452 15.164 12.9867 16.571 12.459 18.1562C11.9312 19.7413 11.855 21.4421 12.2389 23.068C12.6228 24.694 13.4516 26.1811 14.6327 27.3628C15.8137 28.5445 17.3002 29.3742 18.926 29.7591C20.5517 30.1439 22.2525 30.0687 23.838 29.5419C25.4234 29.0151 26.831 28.0574 27.9031 26.7761C28.9752 25.4948 29.6696 23.9404 29.9085 22.2869C29.9507 21.9915 29.8738 21.6915 29.6947 21.4528C29.5157 21.2141 29.2492 21.0563 28.9538 21.0142C28.6584 20.972 28.3584 21.0489 28.1197 21.2279C27.881 21.407 27.7232 21.6735 27.681 21.9689C27.5015 23.2089 26.9804 24.3744 26.1762 25.3351C25.3719 26.2958 24.3162 27.0138 23.1272 27.4087C21.9381 27.8036 20.6626 27.8598 19.4435 27.5711C18.2243 27.2824 17.1095 26.6601 16.2238 25.7739C15.3381 24.8877 14.7165 23.7725 14.4285 22.5532C14.1405 21.3338 14.1975 20.0584 14.5931 18.8696C14.9887 17.6808 15.7073 16.6255 16.6684 15.8218C17.6296 15.0181 18.7955 14.4962 20.0355 14.3174ZM24 12.5114C23.7186 12.4119 23.4091 12.4284 23.1398 12.5571C22.8704 12.6858 22.6632 12.9162 22.5638 13.1977C22.4643 13.4791 22.4808 13.7886 22.6094 14.0579C22.7381 14.3273 22.9686 14.5344 23.25 14.6339C23.7015 14.7929 24.132 14.9984 24.534 15.2459C24.6599 15.3279 24.8008 15.3838 24.9486 15.4104C25.0964 15.4371 25.248 15.4338 25.3945 15.4009C25.541 15.368 25.6795 15.3061 25.8017 15.2189C25.9239 15.1317 26.0274 15.0208 26.1061 14.8929C26.1848 14.7651 26.2371 14.6227 26.26 14.4743C26.2828 14.3259 26.2757 14.1744 26.2391 14.0288C26.2024 13.8832 26.137 13.7463 26.0467 13.6264C25.9563 13.5065 25.8429 13.4058 25.713 13.3304C25.1726 12.9975 24.5984 12.723 24 12.5114ZM28.6725 16.2914C28.5971 16.1616 28.4965 16.0481 28.3765 15.9578C28.2566 15.8674 28.1198 15.802 27.9741 15.7654C27.8285 15.7287 27.677 15.7216 27.5286 15.7445C27.3802 15.7673 27.2379 15.8196 27.11 15.8983C26.9821 15.977 26.8713 16.0805 26.784 16.2028C26.6968 16.325 26.6349 16.4634 26.602 16.6099C26.5691 16.7564 26.5659 16.9081 26.5925 17.0558C26.6191 17.2036 26.6751 17.3446 26.757 17.4704C27.003 17.8694 27.207 18.2969 27.366 18.7454C27.469 19.022 27.6765 19.2471 27.9439 19.3722C28.2113 19.4972 28.5171 19.5121 28.7954 19.4137C29.0737 19.3153 29.3022 19.1114 29.4316 18.8461C29.5609 18.5808 29.5809 18.2753 29.487 17.9954C29.2764 17.4003 29.0033 16.8291 28.6725 16.2914ZM21 17.6249C21 17.3265 20.8815 17.0404 20.6705 16.8294C20.4595 16.6184 20.1734 16.4999 19.875 16.4999C19.5767 16.4999 19.2905 16.6184 19.0795 16.8294C18.8686 17.0404 18.75 17.3265 18.75 17.6249V22.1249C18.75 22.7459 19.254 23.2499 19.875 23.2499H22.875C23.1734 23.2499 23.4595 23.1314 23.6705 22.9204C23.8815 22.7094 24 22.4233 24 22.1249C24 21.8265 23.8815 21.5404 23.6705 21.3294C23.4595 21.1184 23.1734 20.9999 22.875 20.9999H21V17.6249Z" fill="#768397"/>
</svg>
