<svg width="17" height="16" viewBox="0 0 17 16" fill="none" xmlns="http://www.w3.org/2000/svg">
<path d="M16.25 8C16.25 3.58175 12.6683 0 8.25 0C3.83175 0 0.25 3.58169 0.25 8C0.25 11.993 3.1755 15.3027 7 15.9028V10.3125H4.96875V8H7V6.2375C7 4.2325 8.19438 3.125 10.0217 3.125C10.897 3.125 11.8125 3.28125 11.8125 3.28125V5.25H10.8038C9.80988 5.25 9.5 5.86669 9.5 6.49937V8H11.7188L11.3641 10.3125H9.5V15.9028C13.3245 15.3027 16.25 11.9931 16.25 8Z" fill="#1877F2"/>
<path d="M11.3641 10.3125L11.7188 8H9.5V6.49937C9.5 5.86662 9.80994 5.25 10.8038 5.25H11.8125V3.28125C11.8125 3.28125 10.897 3.125 10.0217 3.125C8.19438 3.125 7 4.2325 7 6.2375V8H4.96875V10.3125H7V15.9028C7.41351 15.9676 7.83144 16.0001 8.25 16C8.66856 16.0001 9.08649 15.9676 9.5 15.9028V10.3125H11.3641Z" fill="white"/>
</svg>
