<svg width="14" height="14" viewBox="0 0 14 14" fill="none" xmlns="http://www.w3.org/2000/svg">
<path d="M13.287 5.6945H12.75V5.66683H6.75004V8.3335H10.5177C9.96804 9.88583 8.49104 11.0002 6.75004 11.0002C4.54104 11.0002 2.75004 9.20916 2.75004 7.00016C2.75004 4.79116 4.54104 3.00016 6.75004 3.00016C7.76971 3.00016 8.69737 3.38483 9.40371 4.01316L11.2894 2.1275C10.0987 1.01783 8.50604 0.333496 6.75004 0.333496C3.06837 0.333496 0.083374 3.3185 0.083374 7.00016C0.083374 10.6818 3.06837 13.6668 6.75004 13.6668C10.4317 13.6668 13.4167 10.6818 13.4167 7.00016C13.4167 6.55316 13.3707 6.11683 13.287 5.6945Z" fill="#FFC107"/>
<path d="M0.852051 3.89716L3.04238 5.5035C3.63505 4.03616 5.07038 3.00016 6.75005 3.00016C7.76972 3.00016 8.69738 3.38483 9.40372 4.01316L11.2894 2.1275C10.0987 1.01783 8.50605 0.333496 6.75005 0.333496C4.18938 0.333496 1.96872 1.77916 0.852051 3.89716Z" fill="#FF3D00"/>
<path d="M6.74994 13.6669C8.47194 13.6669 10.0366 13.0079 11.2196 11.9362L9.15627 10.1902C8.46446 10.7164 7.61909 11.0009 6.74994 11.0002C5.01594 11.0002 3.54361 9.89456 2.98894 8.35156L0.814941 10.0266C1.91827 12.1856 4.15894 13.6669 6.74994 13.6669Z" fill="#4CAF50"/>
<path d="M13.287 5.69417H12.75V5.6665H6.75V8.33317H10.5177C10.2547 9.07198 9.78112 9.71756 9.15533 10.1902L9.15633 10.1895L11.2197 11.9355C11.0737 12.0682 13.4167 10.3332 13.4167 6.99984C13.4167 6.55284 13.3707 6.1165 13.287 5.69417Z" fill="#1976D2"/>
</svg>
