<svg width="40" height="40" viewBox="0 0 40 40" fill="none" xmlns="http://www.w3.org/2000/svg">
<rect x="0.5" y="0.5" width="39" height="39" rx="7.5" stroke="#E9E9E9"/>
<g clip-path="url(#clip0_1_956)">
<path fill-rule="evenodd" clip-rule="evenodd" d="M23.3334 15.0112C22.3467 14.3519 21.1867 14 20 14V8C22.3734 8 24.6934 8.70379 26.6668 10.0224C28.6402 11.3409 30.1783 13.2151 31.0866 15.4078C31.9948 17.6005 32.2324 20.0133 31.7694 22.3411C31.3064 24.6688 30.1635 26.8071 28.4853 28.4853C26.8071 30.1635 24.6688 31.3064 22.3411 31.7694C20.0133 32.2324 17.6005 31.9948 15.4078 31.0866C13.2151 30.1783 11.3409 28.6402 10.0224 26.6668C8.70379 24.6934 8 22.3734 8 20H14C14 21.1867 14.3519 22.3467 15.0112 23.3334C15.6705 24.3201 16.6075 25.0891 17.7039 25.5433C18.8002 25.9974 20.0067 26.1162 21.1705 25.8847C22.3344 25.6532 23.4035 25.0818 24.2427 24.2427C25.0818 23.4035 25.6532 22.3344 25.8847 21.1705C26.1162 20.0067 25.9974 18.8002 25.5433 17.7039C25.0891 16.6075 24.3201 15.6705 23.3334 15.0112Z" fill="#1355FF"/>
<path fill-rule="evenodd" clip-rule="evenodd" d="M14 8C14 8.78793 13.8448 9.56815 13.5433 10.2961C13.2417 11.0241 12.7998 11.6855 12.2426 12.2426C11.6855 12.7998 11.0241 13.2418 10.2961 13.5433C9.56814 13.8448 8.78793 14 8 14L8 20C9.57586 20 11.1363 19.6896 12.5922 19.0866C14.0481 18.4835 15.371 17.5996 16.4853 16.4853C17.5996 15.371 18.4835 14.0481 19.0866 12.5922C19.6896 11.1363 20 9.57586 20 8L14 8Z" fill="#1355FF"/>
</g>
<defs>
<clipPath id="clip0_1_956">
<rect width="24" height="24" fill="white" transform="translate(8 8)"/>
</clipPath>
</defs>
</svg>
