<svg width="20" height="20" viewBox="0 0 20 20" fill="none" xmlns="http://www.w3.org/2000/svg">
<path d="M17.5 16.6667H19.1667V18.3334H0.833374V16.6667H2.50004V2.50008C2.50004 2.27907 2.58784 2.06711 2.74412 1.91083C2.9004 1.75455 3.11236 1.66675 3.33337 1.66675H16.6667C16.8877 1.66675 17.0997 1.75455 17.256 1.91083C17.4122 2.06711 17.5 2.27907 17.5 2.50008V16.6667ZM15.8334 16.6667V3.33341H4.16671V16.6667H15.8334ZM6.66671 9.16675H9.16671V10.8334H6.66671V9.16675ZM6.66671 5.83341H9.16671V7.50008H6.66671V5.83341ZM6.66671 12.5001H9.16671V14.1667H6.66671V12.5001ZM10.8334 12.5001H13.3334V14.1667H10.8334V12.5001ZM10.8334 9.16675H13.3334V10.8334H10.8334V9.16675ZM10.8334 5.83341H13.3334V7.50008H10.8334V5.83341Z" fill="#6D6E8C"/>
</svg>