<svg width="42" height="42" viewBox="0 0 42 42" fill="none" xmlns="http://www.w3.org/2000/svg">
<path d="M21 24C21.7956 24 22.5587 23.6839 23.1213 23.1213C23.6839 22.5587 24 21.7956 24 21C24 20.2044 23.6839 19.4413 23.1213 18.8787C22.5587 18.3161 21.7956 18 21 18C20.2044 18 19.4413 18.3161 18.8787 18.8787C18.3161 19.4413 18 20.2044 18 21C18 21.7956 18.3161 22.5587 18.8787 23.1213C19.4413 23.6839 20.2044 24 21 24Z" fill="#6D6E8C"/>
<path fill-rule="evenodd" clip-rule="evenodd" d="M21 12C21.2652 12 21.5196 12.1054 21.7071 12.2929C21.8946 12.4804 22 12.7348 22 13V14.07C23.496 14.2862 24.8818 14.9806 25.9506 16.0494C27.0194 17.1182 27.7138 18.504 27.93 20H29C29.2652 20 29.5196 20.1054 29.7071 20.2929C29.8946 20.4804 30 20.7348 30 21C30 21.2652 29.8946 21.5196 29.7071 21.7071C29.5196 21.8946 29.2652 22 29 22H27.93C27.7138 23.496 27.0194 24.8818 25.9506 25.9506C24.8818 27.0194 23.496 27.7138 22 27.93V29C22 29.2652 21.8946 29.5196 21.7071 29.7071C21.5196 29.8946 21.2652 30 21 30C20.7348 30 20.4804 29.8946 20.2929 29.7071C20.1054 29.5196 20 29.2652 20 29V27.93C18.504 27.7138 17.1182 27.0194 16.0494 25.9506C14.9806 24.8818 14.2862 23.496 14.07 22H13C12.7348 22 12.4804 21.8946 12.2929 21.7071C12.1054 21.5196 12 21.2652 12 21C12 20.7348 12.1054 20.4804 12.2929 20.2929C12.4804 20.1054 12.7348 20 13 20H14.07C14.2864 18.5041 14.9808 17.1183 16.0496 16.0496C17.1183 14.9808 18.5041 14.2864 20 14.07V13C20 12.7348 20.1054 12.4804 20.2929 12.2929C20.4804 12.1054 20.7348 12 21 12ZM16 21C16 19.6739 16.5268 18.4021 17.4645 17.4645C18.4021 16.5268 19.6739 16 21 16C22.3261 16 23.5979 16.5268 24.5355 17.4645C25.4732 18.4021 26 19.6739 26 21C26 22.3261 25.4732 23.5979 24.5355 24.5355C23.5979 25.4732 22.3261 26 21 26C19.6739 26 18.4021 25.4732 17.4645 24.5355C16.5268 23.5979 16 22.3261 16 21Z" fill="#6D6E8C"/>
</svg>
