<svg width="153" height="40" viewBox="0 0 153 40" fill="none" xmlns="http://www.w3.org/2000/svg">
<g clip-path="url(#clip0_1_869)">
<path d="M9.29674 16.9187C9.89383 14.2312 11.3692 8.33441 9.22111 8.00391C8.71787 9.24592 8.42568 12.6495 7.69556 14.2425C8.21221 15.2002 8.7354 16.1286 9.29674 16.9187Z" fill="#1355FF"/>
<path d="M6.85783 12.682C7.05102 12.9808 7.24593 13.2968 7.41574 13.6012C7.50133 13.1866 8.61233 8.09276 8.80758 6.48446C9.0458 4.5143 7.92105 3.2365 7.27136 4.06598C7.2143 5.53436 6.38621 8.97612 5.90393 11.0154C6.23049 11.5434 6.54468 12.1071 6.85783 12.682Z" fill="#1355FF"/>
<path d="M5.41541 10.2635C5.73269 9.10793 6.41228 5.65571 6.62128 3.98389C6.88837 1.86133 5.52816 1.54209 5.26244 2.19867C5.26244 3.28709 4.42232 7.29658 4.09094 8.85422C4.41029 9.01585 4.83722 9.42838 5.41541 10.2635Z" fill="#1355FF"/>
<path d="M19.1801 30.0832C18.8257 25.4192 13.4739 21.1338 11.1708 20.0221C8.86765 18.9104 7.38953 14.845 5.5577 11.9428C3.72586 9.04064 3.19442 9.86932 2.95827 10.4222C2.54474 11.8045 4.79148 17.1256 5.9121 19.6148C4.67151 19.2694 3.43092 15.6065 2.66264 12.9806C1.89436 10.3546 2.48561 9.1106 3.3718 9.04024C3.84445 8.00369 4.43536 4.30621 4.43536 1.99107C4.43536 -0.56653 2.89914 -0.185765 2.78089 0.53998C2.72177 2.95886 0.949398 7.31132 0.357118 9.24731C-0.235161 11.1833 -1.00172 22.0333 6.26547 27.2844C13.5327 32.5355 13.828 32.6054 16.6639 40C18.2606 38.2031 19.5345 34.7481 19.1801 30.0832Z" fill="#1355FF"/>
<path d="M30.704 16.9187C30.107 14.2312 28.6312 8.33441 30.7797 8.00391C31.2826 9.24592 31.5748 12.6495 32.3052 14.2425C31.7886 15.2002 31.265 16.1286 30.704 16.9187Z" fill="#1A1D3E"/>
<path d="M33.1425 12.682C32.9493 12.9808 32.7548 13.2968 32.5846 13.6012C32.499 13.1866 31.388 8.09276 31.1931 6.48446C30.9549 4.5143 32.0793 3.2365 32.7293 4.06598C32.7864 5.53436 33.6141 8.97612 34.0964 11.0154C33.7695 11.5434 33.4543 12.1071 33.1425 12.682Z" fill="#1A1D3E"/>
<path d="M34.5853 10.2635C34.268 9.10793 33.5884 5.65571 33.3794 3.98389C33.1134 1.86133 34.4722 1.54209 34.7383 2.19867C34.7383 3.28709 35.5784 7.29658 35.9098 8.85422C35.5915 9.01585 35.1631 9.42838 34.5853 10.2635Z" fill="#1A1D3E"/>
<path d="M20.8202 30.0834C21.175 25.4194 26.5264 21.1341 28.8296 20.0223C31.1327 18.9106 32.6108 14.8452 34.4423 11.943C36.2738 9.04087 36.8056 9.86955 37.0421 10.4224C37.4546 11.8047 35.2102 17.1258 34.0879 19.6138C35.3285 19.2684 36.5694 15.6055 37.3373 12.9796C38.1053 10.3536 37.5147 9.10963 36.6285 9.03926C36.1559 8.00272 35.565 4.30524 35.565 1.99009C35.565 -0.567506 37.1012 -0.186742 37.2191 0.539003C37.2782 2.95788 39.0509 7.31155 39.6415 9.24633C40.232 11.1811 41.0003 22.0323 33.7331 27.2834C26.4659 32.5345 26.1727 32.6057 23.3351 40.0002C21.7401 38.2033 20.4665 34.7483 20.8202 30.0834Z" fill="#1A1D3E"/>
</g>
<path d="M49.824 28.5V11.7H52.584V28.5H49.824ZM63.7584 28.5V21.852C63.7584 21.084 63.5104 20.452 63.0144 19.956C62.5344 19.46 61.9104 19.212 61.1424 19.212C60.6304 19.212 60.1744 19.324 59.7744 19.548C59.3744 19.772 59.0624 20.084 58.8384 20.484C58.6144 20.884 58.5024 21.34 58.5024 21.852L57.4704 21.276C57.4704 20.396 57.6624 19.62 58.0464 18.948C58.4304 18.26 58.9584 17.724 59.6304 17.34C60.3184 16.94 61.0864 16.74 61.9344 16.74C62.7984 16.74 63.5664 16.964 64.2384 17.412C64.9104 17.844 65.4384 18.412 65.8224 19.116C66.2064 19.804 66.3984 20.524 66.3984 21.276V28.5H63.7584ZM55.8624 28.5V16.98H58.5024V28.5H55.8624ZM74.3852 28.74C73.2492 28.74 72.2172 28.476 71.2892 27.948C70.3772 27.42 69.6572 26.7 69.1292 25.788C68.6012 24.876 68.3372 23.86 68.3372 22.74C68.3372 21.604 68.6012 20.588 69.1292 19.692C69.6572 18.78 70.3772 18.06 71.2892 17.532C72.2172 17.004 73.2492 16.74 74.3852 16.74C75.2812 16.74 76.1132 16.916 76.8812 17.268C77.6652 17.604 78.3292 18.092 78.8732 18.732L77.1452 20.484C76.8092 20.084 76.4012 19.788 75.9212 19.596C75.4572 19.388 74.9452 19.284 74.3852 19.284C73.7292 19.284 73.1452 19.436 72.6332 19.74C72.1372 20.028 71.7452 20.428 71.4572 20.94C71.1852 21.452 71.0492 22.052 71.0492 22.74C71.0492 23.412 71.1852 24.012 71.4572 24.54C71.7452 25.052 72.1372 25.46 72.6332 25.764C73.1452 26.052 73.7292 26.196 74.3852 26.196C74.9452 26.196 75.4572 26.1 75.9212 25.908C76.4012 25.7 76.8092 25.396 77.1452 24.996L78.8732 26.748C78.3292 27.388 77.6652 27.884 76.8812 28.236C76.1132 28.572 75.2812 28.74 74.3852 28.74ZM80.7765 28.5V11.22H83.4165V28.5H80.7765ZM91.0826 28.74C90.1066 28.74 89.2346 28.524 88.4666 28.092C87.7146 27.66 87.1226 27.068 86.6906 26.316C86.2746 25.548 86.0666 24.668 86.0666 23.676V16.98H88.7066V23.556C88.7066 24.116 88.7946 24.596 88.9706 24.996C89.1626 25.38 89.4346 25.676 89.7866 25.884C90.1546 26.092 90.5866 26.196 91.0826 26.196C91.8506 26.196 92.4346 25.972 92.8346 25.524C93.2506 25.06 93.4586 24.404 93.4586 23.556V16.98H96.0986V23.676C96.0986 24.684 95.8826 25.572 95.4506 26.34C95.0346 27.092 94.4506 27.684 93.6986 28.116C92.9466 28.532 92.0746 28.74 91.0826 28.74ZM102.521 28.74C101.881 28.74 101.265 28.66 100.673 28.5C100.081 28.324 99.5371 28.084 99.0411 27.78C98.5451 27.46 98.1131 27.076 97.7451 26.628L99.4251 24.948C99.8251 25.412 100.281 25.764 100.793 26.004C101.321 26.228 101.913 26.34 102.569 26.34C103.161 26.34 103.609 26.252 103.913 26.076C104.217 25.9 104.369 25.644 104.369 25.308C104.369 24.956 104.225 24.684 103.937 24.492C103.649 24.3 103.273 24.14 102.809 24.012C102.361 23.868 101.881 23.724 101.369 23.58C100.873 23.436 100.393 23.244 99.9291 23.004C99.4811 22.748 99.1131 22.404 98.8251 21.972C98.5371 21.54 98.3931 20.98 98.3931 20.292C98.3931 19.556 98.5611 18.924 98.8971 18.396C99.2491 17.868 99.7371 17.46 100.361 17.172C101.001 16.884 101.761 16.74 102.641 16.74C103.569 16.74 104.385 16.908 105.089 17.244C105.809 17.564 106.409 18.052 106.889 18.708L105.209 20.388C104.873 19.972 104.489 19.66 104.057 19.452C103.625 19.244 103.129 19.14 102.569 19.14C102.041 19.14 101.633 19.22 101.345 19.38C101.057 19.54 100.913 19.772 100.913 20.076C100.913 20.396 101.057 20.644 101.345 20.82C101.633 20.996 102.001 21.148 102.449 21.276C102.913 21.404 103.393 21.548 103.889 21.708C104.401 21.852 104.881 22.06 105.329 22.332C105.793 22.588 106.169 22.94 106.457 23.388C106.745 23.82 106.889 24.388 106.889 25.092C106.889 26.212 106.497 27.1 105.713 27.756C104.929 28.412 103.865 28.74 102.521 28.74ZM109.09 28.5V16.98H111.73V28.5H109.09ZM110.41 14.868C109.962 14.868 109.586 14.716 109.282 14.412C108.994 14.108 108.85 13.732 108.85 13.284C108.85 12.836 108.994 12.46 109.282 12.156C109.586 11.852 109.962 11.7 110.41 11.7C110.874 11.7 111.25 11.852 111.538 12.156C111.826 12.46 111.97 12.836 111.97 13.284C111.97 13.732 111.826 14.108 111.538 14.412C111.25 14.716 110.874 14.868 110.41 14.868ZM118.219 28.74C117.243 28.74 116.371 28.548 115.603 28.164C114.851 27.764 114.243 27.236 113.779 26.58L115.723 24.804C115.995 25.22 116.339 25.54 116.755 25.764C117.171 25.988 117.627 26.1 118.123 26.1C118.667 26.1 119.131 25.988 119.515 25.764C119.899 25.54 120.195 25.22 120.403 24.804C120.611 24.388 120.715 23.892 120.715 23.316V11.7H123.475V23.1C123.475 24.22 123.251 25.204 122.803 26.052C122.371 26.9 121.763 27.564 120.979 28.044C120.195 28.508 119.275 28.74 118.219 28.74ZM131.83 28.74C130.71 28.74 129.694 28.476 128.782 27.948C127.87 27.404 127.142 26.676 126.598 25.764C126.07 24.852 125.806 23.836 125.806 22.716C125.806 21.596 126.07 20.588 126.598 19.692C127.142 18.796 127.87 18.084 128.782 17.556C129.694 17.012 130.71 16.74 131.83 16.74C132.966 16.74 133.99 17.004 134.902 17.532C135.814 18.06 136.534 18.78 137.062 19.692C137.606 20.588 137.878 21.596 137.878 22.716C137.878 23.836 137.606 24.852 137.062 25.764C136.534 26.676 135.814 27.404 134.902 27.948C133.99 28.476 132.966 28.74 131.83 28.74ZM131.83 26.196C132.486 26.196 133.062 26.052 133.558 25.764C134.07 25.46 134.462 25.044 134.734 24.516C135.022 23.988 135.166 23.388 135.166 22.716C135.166 22.044 135.022 21.452 134.734 20.94C134.446 20.428 134.054 20.028 133.558 19.74C133.062 19.436 132.486 19.284 131.83 19.284C131.19 19.284 130.614 19.436 130.102 19.74C129.606 20.028 129.214 20.428 128.926 20.94C128.654 21.452 128.518 22.044 128.518 22.716C128.518 23.388 128.654 23.988 128.926 24.516C129.214 25.044 129.606 25.46 130.102 25.764C130.614 26.052 131.19 26.196 131.83 26.196ZM146.241 28.74C145.361 28.74 144.577 28.556 143.889 28.188C143.201 27.804 142.657 27.284 142.257 26.628C141.873 25.972 141.681 25.228 141.681 24.396V21.084C141.681 20.252 141.881 19.508 142.281 18.852C142.681 18.196 143.225 17.684 143.913 17.316C144.601 16.932 145.377 16.74 146.241 16.74C147.281 16.74 148.217 17.012 149.049 17.556C149.897 18.084 150.561 18.804 151.041 19.716C151.537 20.612 151.785 21.628 151.785 22.764C151.785 23.884 151.537 24.9 151.041 25.812C150.561 26.708 149.897 27.42 149.049 27.948C148.217 28.476 147.281 28.74 146.241 28.74ZM145.809 26.244C146.449 26.244 147.009 26.1 147.489 25.812C147.985 25.508 148.369 25.092 148.641 24.564C148.929 24.036 149.073 23.428 149.073 22.74C149.073 22.052 148.929 21.444 148.641 20.916C148.369 20.388 147.985 19.98 147.489 19.692C147.009 19.388 146.449 19.236 145.809 19.236C145.169 19.236 144.601 19.388 144.105 19.692C143.609 19.98 143.225 20.388 142.953 20.916C142.681 21.444 142.545 22.052 142.545 22.74C142.545 23.428 142.681 24.036 142.953 24.564C143.225 25.092 143.609 25.508 144.105 25.812C144.601 26.1 145.169 26.244 145.809 26.244ZM140.073 28.5V11.22H142.713V19.812L142.257 22.596L142.713 25.404V28.5H140.073Z" fill="#1A1D3E"/>
<defs>
<clipPath id="clip0_1_869">
<rect width="40" height="40" fill="white"/>
</clipPath>
</defs>
</svg>
