<svg width="181" height="40" viewBox="0 0 181 40" fill="none" xmlns="http://www.w3.org/2000/svg">
<g clip-path="url(#clip0_172_26586)">
<path d="M62.0185 14.1769L32.4945 0.163176C32.2644 0.0547657 32.0129 -0.00146484 31.7583 -0.00146484C31.5038 -0.00146484 31.2523 0.0547657 31.0222 0.163176L0.990202 14.1855C0.701235 14.3196 0.455337 14.5311 0.279896 14.7963C0.104456 15.0614 0.00636349 15.3699 -0.0034554 15.6873C-0.0132743 16.0047 0.0655664 16.3186 0.224284 16.594C0.383002 16.8695 0.615366 17.0956 0.895491 17.2472L12.2608 23.405V33.0019C12.2606 33.3343 12.3573 33.6596 12.5392 33.9382C12.7211 34.2168 12.9803 34.4368 13.2854 34.5714L25.6237 40.0002C25.6659 39.8621 25.7513 39.741 25.8674 39.6546C25.9836 39.5682 26.1244 39.521 26.2694 39.52H37.2128C37.3488 39.5195 37.4819 39.5592 37.5953 39.634C37.7087 39.7088 37.7973 39.8153 37.85 39.9402L49.7061 34.58C50.0066 34.4434 50.2613 34.2237 50.44 33.9469C50.6186 33.6702 50.7135 33.3481 50.7135 33.0191V23.405L62.096 17.2386C62.3768 17.0885 62.6103 16.8637 62.7705 16.5892C62.9307 16.3148 63.0112 16.0014 63.0032 15.684C62.9952 15.3666 62.8989 15.0577 62.725 14.7916C62.5512 14.5255 62.3066 14.3127 62.0185 14.1769ZM29.7651 14.7772C30.3506 14.2798 30.9189 13.7567 31.4871 13.2078C31.7024 13.3879 31.8746 13.5079 32.021 13.6537C33.3039 14.9316 34.604 16.2266 35.8697 17.4788C36.3002 17.899 36.2916 18.1735 35.8697 18.6023C34.1476 20.3176 34.1476 20.3604 32.4256 18.6023C31.5818 17.7704 30.695 16.8098 29.7651 15.9179C29.3604 15.5148 29.3174 15.1975 29.7651 14.7772ZM28.9816 38.0448C27.5265 38.0448 27.2596 38.1906 27.2596 36.4496C27.123 34.3713 26.1999 32.4219 24.6765 30.9951C23.4625 29.7515 22.2916 28.4222 21.0689 27.2129C20.5695 26.7069 20.6298 26.3553 21.1378 25.9179C22.7823 24.4085 22.7737 24.3827 24.3063 25.9179C25.7977 27.3417 27.1793 28.8755 28.4392 30.5062C29.7249 32.2207 30.4548 34.2852 30.5314 36.4239C30.6261 38.3536 30.6261 38.1134 28.9988 38.0448H28.9816ZM29.7565 26.9814C28.4908 28.1306 28.4908 28.122 27.2682 26.9128C25.8389 25.4805 24.4269 24.0311 22.9631 22.6246C22.3949 22.0843 22.3777 21.767 22.9631 21.1923C24.6335 19.7515 24.6163 19.7172 26.1747 21.2695L30.0751 25.1975C30.3259 25.3983 30.519 25.6616 30.6347 25.9608C30.4333 26.3669 30.1346 26.7173 29.7651 26.9814H29.7565ZM29.9115 22.7704C28.31 21.2095 26.7257 19.6229 25.1415 18.0534C25.0669 18.0021 25.0059 17.9336 24.9638 17.8537C24.9217 17.7737 24.8997 17.6848 24.8997 17.5946C24.8997 17.5043 24.9217 17.4154 24.9638 17.3355C25.0059 17.2555 25.0669 17.187 25.1415 17.1357C25.6581 16.6555 26.1919 16.1752 26.6999 15.6863C26.9754 15.4205 27.2165 15.5234 27.4318 15.7378L32.5978 20.935C32.6897 21.0545 32.7677 21.184 32.8303 21.321C32.4342 21.9957 31.9004 22.58 31.2633 23.0362C31.0477 23.1662 30.7911 23.211 30.5441 23.1617C30.297 23.1125 30.0775 22.9729 29.9287 22.7704H29.9115ZM43.3346 26.2609C41.6987 27.899 40.0886 29.5457 38.5216 31.2438C37.7407 32.0224 37.126 32.9503 36.7147 33.9717C36.3033 34.9931 36.1037 36.0869 36.128 37.1872C36.128 37.8904 35.9213 38.1735 35.2067 38.0448C34.9573 38.0277 34.707 38.0277 34.4576 38.0448C32.7356 38.0448 32.8475 38.3707 32.9164 36.4496C33.0456 33.1049 34.6384 30.4462 36.9804 28.1735C37.6433 27.5302 38.2288 26.8184 38.9004 26.1838C39.3826 25.7292 39.5117 25.3261 38.9607 24.8716C38.4096 24.417 38.005 23.4308 37.0579 24.2198C36.1107 25.0088 35.4305 25.6091 34.6815 26.3467C34.1821 26.8441 33.8205 26.8013 33.3641 26.3467C31.6421 24.7172 31.6421 24.7344 33.3641 23.1477C34.5265 22.05 35.6975 20.9608 36.8082 19.8287C37.3248 19.3055 37.6692 19.3141 38.2116 19.8287C39.9336 21.544 41.604 23.2592 43.3777 24.9745C43.8426 25.4891 43.8168 25.7721 43.3346 26.2609Z" fill="#1355FF"/>
</g>
<path d="M72.824 28.5V11.7H75.584V28.5H72.824ZM86.7584 28.5V21.852C86.7584 21.084 86.5104 20.452 86.0144 19.956C85.5344 19.46 84.9104 19.212 84.1424 19.212C83.6304 19.212 83.1744 19.324 82.7744 19.548C82.3744 19.772 82.0624 20.084 81.8384 20.484C81.6144 20.884 81.5024 21.34 81.5024 21.852L80.4704 21.276C80.4704 20.396 80.6624 19.62 81.0464 18.948C81.4304 18.26 81.9584 17.724 82.6304 17.34C83.3184 16.94 84.0864 16.74 84.9344 16.74C85.7984 16.74 86.5664 16.964 87.2384 17.412C87.9104 17.844 88.4384 18.412 88.8224 19.116C89.2064 19.804 89.3984 20.524 89.3984 21.276V28.5H86.7584ZM78.8624 28.5V16.98H81.5024V28.5H78.8624ZM97.3852 28.74C96.2492 28.74 95.2172 28.476 94.2892 27.948C93.3772 27.42 92.6572 26.7 92.1292 25.788C91.6012 24.876 91.3372 23.86 91.3372 22.74C91.3372 21.604 91.6012 20.588 92.1292 19.692C92.6572 18.78 93.3772 18.06 94.2892 17.532C95.2172 17.004 96.2492 16.74 97.3852 16.74C98.2812 16.74 99.1132 16.916 99.8812 17.268C100.665 17.604 101.329 18.092 101.873 18.732L100.145 20.484C99.8092 20.084 99.4012 19.788 98.9212 19.596C98.4572 19.388 97.9452 19.284 97.3852 19.284C96.7292 19.284 96.1452 19.436 95.6332 19.74C95.1372 20.028 94.7452 20.428 94.4572 20.94C94.1852 21.452 94.0492 22.052 94.0492 22.74C94.0492 23.412 94.1852 24.012 94.4572 24.54C94.7452 25.052 95.1372 25.46 95.6332 25.764C96.1452 26.052 96.7292 26.196 97.3852 26.196C97.9452 26.196 98.4572 26.1 98.9212 25.908C99.4012 25.7 99.8092 25.396 100.145 24.996L101.873 26.748C101.329 27.388 100.665 27.884 99.8812 28.236C99.1132 28.572 98.2812 28.74 97.3852 28.74ZM103.777 28.5V11.22H106.417V28.5H103.777ZM114.083 28.74C113.107 28.74 112.235 28.524 111.467 28.092C110.715 27.66 110.123 27.068 109.691 26.316C109.275 25.548 109.067 24.668 109.067 23.676V16.98H111.707V23.556C111.707 24.116 111.795 24.596 111.971 24.996C112.163 25.38 112.435 25.676 112.787 25.884C113.155 26.092 113.587 26.196 114.083 26.196C114.851 26.196 115.435 25.972 115.835 25.524C116.251 25.06 116.459 24.404 116.459 23.556V16.98H119.099V23.676C119.099 24.684 118.883 25.572 118.451 26.34C118.035 27.092 117.451 27.684 116.699 28.116C115.947 28.532 115.075 28.74 114.083 28.74ZM126.577 28.74C125.537 28.74 124.593 28.476 123.745 27.948C122.913 27.42 122.249 26.708 121.753 25.812C121.273 24.9 121.033 23.884 121.033 22.764C121.033 21.628 121.273 20.612 121.753 19.716C122.249 18.804 122.913 18.084 123.745 17.556C124.593 17.012 125.537 16.74 126.577 16.74C127.457 16.74 128.233 16.932 128.905 17.316C129.593 17.684 130.137 18.196 130.537 18.852C130.937 19.508 131.137 20.252 131.137 21.084V24.396C131.137 25.228 130.937 25.972 130.537 26.628C130.153 27.284 129.617 27.804 128.929 28.188C128.241 28.556 127.457 28.74 126.577 28.74ZM127.009 26.244C127.665 26.244 128.233 26.1 128.713 25.812C129.209 25.508 129.593 25.092 129.865 24.564C130.137 24.036 130.273 23.428 130.273 22.74C130.273 22.052 130.137 21.444 129.865 20.916C129.593 20.388 129.209 19.98 128.713 19.692C128.233 19.388 127.665 19.236 127.009 19.236C126.369 19.236 125.801 19.388 125.305 19.692C124.825 19.98 124.441 20.388 124.153 20.916C123.881 21.444 123.745 22.052 123.745 22.74C123.745 23.428 123.881 24.036 124.153 24.564C124.441 25.092 124.825 25.508 125.305 25.812C125.801 26.1 126.369 26.244 127.009 26.244ZM132.745 28.5H130.105V25.404L130.561 22.596L130.105 19.812V11.22H132.745V28.5ZM141.027 28.74C139.875 28.74 138.835 28.484 137.907 27.972C136.995 27.444 136.267 26.724 135.723 25.812C135.195 24.9 134.931 23.876 134.931 22.74C134.931 21.604 135.195 20.588 135.723 19.692C136.251 18.78 136.963 18.06 137.859 17.532C138.771 17.004 139.779 16.74 140.883 16.74C141.955 16.74 142.899 16.988 143.715 17.484C144.547 17.98 145.195 18.66 145.659 19.524C146.139 20.388 146.379 21.372 146.379 22.476C146.379 22.668 146.363 22.868 146.331 23.076C146.315 23.268 146.283 23.484 146.235 23.724H136.779V21.564H144.867L143.883 22.428C143.851 21.724 143.715 21.132 143.475 20.652C143.235 20.172 142.891 19.804 142.443 19.548C142.011 19.292 141.475 19.164 140.835 19.164C140.163 19.164 139.579 19.308 139.083 19.596C138.587 19.884 138.203 20.292 137.931 20.82C137.659 21.332 137.523 21.948 137.523 22.668C137.523 23.388 137.667 24.02 137.955 24.564C138.243 25.108 138.651 25.532 139.179 25.836C139.707 26.124 140.315 26.268 141.003 26.268C141.595 26.268 142.139 26.164 142.635 25.956C143.147 25.748 143.579 25.444 143.931 25.044L145.611 26.748C145.051 27.404 144.371 27.9 143.571 28.236C142.771 28.572 141.923 28.74 141.027 28.74ZM148.495 28.5V16.98H151.135V28.5H148.495ZM156.151 28.5V21.636C156.151 20.868 155.911 20.276 155.431 19.86C154.951 19.428 154.359 19.212 153.655 19.212C153.175 19.212 152.743 19.308 152.359 19.5C151.991 19.692 151.695 19.972 151.471 20.34C151.247 20.692 151.135 21.124 151.135 21.636L150.103 21.06C150.103 20.18 150.295 19.42 150.679 18.78C151.063 18.14 151.583 17.644 152.239 17.292C152.895 16.924 153.631 16.74 154.447 16.74C155.263 16.74 155.999 16.916 156.655 17.268C157.311 17.62 157.831 18.116 158.215 18.756C158.599 19.396 158.791 20.164 158.791 21.06V28.5H156.151ZM163.807 28.5V21.636C163.807 20.868 163.567 20.276 163.087 19.86C162.607 19.428 162.015 19.212 161.311 19.212C160.847 19.212 160.423 19.308 160.039 19.5C159.655 19.692 159.351 19.972 159.127 20.34C158.903 20.692 158.791 21.124 158.791 21.636L157.303 21.06C157.383 20.18 157.639 19.42 158.071 18.78C158.503 18.14 159.055 17.644 159.727 17.292C160.415 16.924 161.167 16.74 161.983 16.74C162.815 16.74 163.567 16.916 164.239 17.268C164.911 17.62 165.447 18.116 165.847 18.756C166.247 19.396 166.447 20.164 166.447 21.06V28.5H163.807ZM172.887 28.62L167.967 16.98H170.871L174.231 25.524H173.391L176.943 16.98H179.871L174.519 28.62H172.887ZM169.455 33.3L173.031 25.932L174.519 28.62L172.383 33.3H169.455Z" fill="#1A1D3E"/>
<defs>
<clipPath id="clip0_172_26586">
<rect width="63" height="40" fill="white"/>
</clipPath>
</defs>
</svg>
