<svg width="17" height="20" viewBox="0 0 17 20" fill="none" xmlns="http://www.w3.org/2000/svg">
<path d="M2.5 20C1.95 20 1.479 19.804 1.087 19.412C0.695002 19.02 0.499335 18.5493 0.500002 18V2C0.500002 1.45 0.696001 0.979002 1.088 0.587002C1.48 0.195002 1.95067 -0.000664969 2.5 1.69779e-06H14.5C15.05 1.69779e-06 15.521 0.196002 15.913 0.588002C16.305 0.980002 16.5007 1.45067 16.5 2V18C16.5 18.55 16.304 19.021 15.912 19.413C15.52 19.805 15.0493 20.0007 14.5 20H2.5ZM7.5 9L10 7.5L12.5 9V2H7.5V9Z" fill="#1355FF"/>
</svg>
