<svg width="42" height="42" viewBox="0 0 42 42" fill="none" xmlns="http://www.w3.org/2000/svg">
<path d="M21 21C20.7167 21 20.479 20.904 20.287 20.712C20.095 20.52 19.9993 20.2827 20 20V12C20 11.7167 20.096 11.479 20.288 11.287C20.48 11.095 20.7173 10.9993 21 11C21.2833 11 21.521 11.096 21.713 11.288C21.905 11.48 22.0007 11.7173 22 12V20C22 20.2833 21.904 20.521 21.712 20.713C21.52 20.905 21.2827 21.0007 21 21ZM21 30C19.75 30 18.579 29.7623 17.487 29.287C16.395 28.8117 15.445 28.1703 14.637 27.363C13.829 26.5543 13.1877 25.6043 12.713 24.513C12.2383 23.4217 12.0007 22.2507 12 21C12 19.9833 12.1667 18.9957 12.5 18.037C12.8333 17.0783 13.3167 16.1993 13.95 15.4C14.1333 15.1667 14.3667 15.054 14.65 15.062C14.9333 15.07 15.1833 15.1827 15.4 15.4C15.5833 15.5833 15.6667 15.8083 15.65 16.075C15.6333 16.3417 15.5417 16.5917 15.375 16.825C14.925 17.425 14.5833 18.0833 14.35 18.8C14.1167 19.5167 14 20.25 14 21C14 22.95 14.6793 24.6043 16.038 25.963C17.3967 27.3217 19.0507 28.0007 21 28C22.95 28 24.6043 27.3207 25.963 25.962C27.3217 24.6033 28.0007 22.9493 28 21C28 20.2333 27.8873 19.4873 27.662 18.762C27.4367 18.0367 27.0827 17.3743 26.6 16.775C26.4333 16.5583 26.3417 16.3207 26.325 16.062C26.3083 15.8033 26.3917 15.5827 26.575 15.4C26.775 15.2 27.0167 15.0957 27.3 15.087C27.5833 15.0783 27.8167 15.1827 28 15.4C28.65 16.2 29.146 17.075 29.488 18.025C29.83 18.975 30.0007 19.9667 30 21C30 22.25 29.7623 23.421 29.287 24.513C28.8117 25.605 28.1703 26.555 27.363 27.363C26.5543 28.171 25.6043 28.8127 24.513 29.288C23.4217 29.7633 22.2507 30.0007 21 30Z" fill="#6D6E8C"/>
</svg>
