<svg width="24" height="24" viewBox="0 0 24 24" fill="none" xmlns="http://www.w3.org/2000/svg">
<path d="M18.0749 1.55399L22.2479 5.90399V22.446H6.65918V22.5H22.3012V5.95874L18.0749 1.55399Z" fill="#909090"/>
<path d="M18.0232 1.5H6.60596V22.446H22.248V5.90475L18.0232 1.5Z" fill="#F4F4F4"/>
<path d="M6.49123 2.625H1.69873V7.74525H16.7737V2.625H6.49123Z" fill="#7A7B7C"/>
<path d="M16.8539 7.65824H1.79614V2.53424H16.8539V7.65824Z" fill="#DD2025"/>
<path d="M6.78909 3.40049H5.80884V7.00049H6.57984V5.78624L6.75009 5.79599C6.91552 5.79314 7.07939 5.76351 7.23534 5.70824C7.37207 5.66121 7.49785 5.58697 7.60509 5.48999C7.71421 5.3976 7.80025 5.281 7.85634 5.14949C7.93156 4.93086 7.95843 4.69851 7.93509 4.46849C7.9304 4.30417 7.9016 4.14143 7.84959 3.98549C7.80224 3.87292 7.73198 3.77144 7.64327 3.68751C7.55456 3.60357 7.44935 3.53903 7.33434 3.49799C7.23489 3.46198 7.13215 3.43586 7.02759 3.41999C6.94841 3.40777 6.86845 3.40125 6.78834 3.40049M6.64659 5.12099H6.57984V4.01099H6.72459C6.78847 4.00638 6.85258 4.01619 6.91216 4.03968C6.97175 4.06318 7.02529 4.09976 7.06884 4.14674C7.15908 4.2675 7.20728 4.41449 7.20609 4.56524C7.20609 4.74974 7.20609 4.91699 7.03959 5.03474C6.91964 5.10071 6.78311 5.13116 6.64659 5.12099ZM9.39984 3.39074C9.31659 3.39074 9.23559 3.39674 9.17859 3.39899L9.00009 3.40349H8.41509V7.00349H9.10359C9.36671 7.0107 9.62868 6.9661 9.87459 6.87224C10.0725 6.79373 10.2478 6.66717 10.3846 6.50399C10.5176 6.33933 10.6131 6.14761 10.6643 5.94224C10.7233 5.70964 10.752 5.47042 10.7498 5.23049C10.7644 4.9471 10.7425 4.66303 10.6846 4.38524C10.6297 4.18076 10.5268 3.99231 10.3846 3.83549C10.273 3.70886 10.1364 3.60671 9.98334 3.53549C9.85192 3.47467 9.71368 3.42985 9.57159 3.40199C9.51508 3.39265 9.45785 3.38838 9.40059 3.38924M9.26409 6.34199H9.18909V4.04399H9.19884C9.35346 4.0262 9.5099 4.05409 9.64884 4.12424C9.75058 4.20548 9.83349 4.30784 9.89184 4.42424C9.9548 4.54674 9.9911 4.68119 9.99834 4.81874C10.0051 4.98374 9.99834 5.11874 9.99834 5.23049C10.0014 5.35921 9.99311 5.48796 9.97359 5.61524C9.95047 5.74591 9.90774 5.87234 9.84684 5.99024C9.77791 6.09985 9.68477 6.19222 9.57459 6.26024C9.48205 6.32008 9.37248 6.34801 9.26259 6.33974M13.0726 3.40349H11.2501V7.00349H12.0211V5.57549H12.9961V4.90649H12.0211V4.07249H13.0711V3.40349" fill="#464648"/>
<path d="M16.3358 15.1913C16.3358 15.1913 18.7268 14.7578 18.7268 15.5745C18.7268 16.3913 17.2455 16.059 16.3358 15.1913ZM14.568 15.2535C14.1881 15.3374 13.8179 15.4603 13.4633 15.6203L13.7633 14.9453C14.0633 14.2703 14.3745 13.35 14.3745 13.35C14.7325 13.9525 15.149 14.5182 15.618 15.039C15.2643 15.0917 14.9138 15.1639 14.568 15.255V15.2535ZM13.6215 10.3785C13.6215 9.66676 13.8518 9.47251 14.031 9.47251C14.2103 9.47251 14.412 9.55876 14.4188 10.1768C14.3604 10.7982 14.2302 11.4108 14.031 12.0023C13.7581 11.5056 13.6169 10.9474 13.6208 10.3808L13.6215 10.3785ZM10.1348 18.2655C9.40126 17.8268 11.673 16.476 12.0848 16.4325C12.0825 16.4333 10.9028 18.7245 10.1348 18.2655ZM19.425 15.6713C19.4175 15.5963 19.35 14.766 17.8725 14.8013C17.2567 14.7913 16.6411 14.8347 16.0328 14.931C15.4435 14.3373 14.936 13.6677 14.5238 12.9398C14.7835 12.1893 14.9406 11.4073 14.991 10.6148C14.9693 9.71476 14.754 9.19876 14.064 9.20626C13.374 9.21376 13.2735 9.81751 13.3643 10.716C13.4532 11.3198 13.6208 11.9093 13.863 12.4695C13.863 12.4695 13.5443 13.4618 13.1228 14.4488C12.7013 15.4358 12.4133 15.9533 12.4133 15.9533C11.6803 16.1919 10.9903 16.5464 10.3695 17.0033C9.75151 17.5785 9.50026 18.0203 9.82576 18.462C10.1063 18.843 11.088 18.9293 11.9655 17.7795C12.4318 17.1857 12.8577 16.5613 13.2405 15.9105C13.2405 15.9105 14.5785 15.5438 14.9948 15.4433C15.411 15.3428 15.9143 15.2633 15.9143 15.2633C15.9143 15.2633 17.136 16.4925 18.3143 16.449C19.4925 16.4055 19.4355 15.7448 19.428 15.6728" fill="#DD2025"/>
<path d="M17.9656 1.55774V5.96249H22.1903L17.9656 1.55774Z" fill="#909090"/>
<path d="M18.0232 1.5V5.90475H22.2479L18.0232 1.5Z" fill="#F4F4F4"/>
<path d="M6.73123 3.34275H5.75098V6.94275H6.52498V5.72925L6.69598 5.739C6.8614 5.73615 7.02528 5.70652 7.18123 5.65125C7.31794 5.6042 7.44372 5.52996 7.55098 5.433C7.65928 5.34036 7.74453 5.22379 7.79998 5.0925C7.8752 4.87387 7.90207 4.64152 7.87873 4.4115C7.87404 4.24718 7.84523 4.08444 7.79323 3.9285C7.74588 3.81593 7.67562 3.71445 7.58691 3.63052C7.4982 3.54659 7.39299 3.48204 7.27798 3.441C7.17808 3.40464 7.07482 3.37827 6.96973 3.36225C6.89055 3.35003 6.81059 3.34351 6.73048 3.34275M6.58873 5.06325H6.52198V3.95325H6.66748C6.73136 3.94864 6.79547 3.95845 6.85505 3.98194C6.91464 4.00544 6.96818 4.04203 7.01173 4.089C7.10197 4.20976 7.15017 4.35675 7.14898 4.5075C7.14898 4.692 7.14898 4.85925 6.98248 4.977C6.86253 5.04297 6.72599 5.07267 6.58948 5.0625M9.34198 3.333C9.25873 3.333 9.17773 3.339 9.12073 3.34125L8.94448 3.34575H8.35948V6.94575H9.04798C9.3111 6.95296 9.57306 6.90836 9.81898 6.8145C10.0169 6.73599 10.1922 6.60943 10.329 6.44625C10.462 6.28159 10.5575 6.08988 10.6087 5.8845C10.6676 5.6519 10.6964 5.41268 10.6942 5.17275C10.7088 4.88936 10.6868 4.60529 10.629 4.3275C10.5741 4.12302 10.4712 3.93457 10.329 3.77775C10.2174 3.65112 10.0808 3.54897 9.92773 3.47775C9.79631 3.41693 9.65807 3.37211 9.51598 3.34425C9.45947 3.33491 9.40224 3.33065 9.34498 3.3315M9.20848 6.28425H9.13348V3.98625H9.14323C9.29785 3.96846 9.45429 3.99636 9.59323 4.0665C9.69497 4.14774 9.77788 4.2501 9.83623 4.3665C9.89919 4.489 9.93549 4.62345 9.94273 4.761C9.94948 4.926 9.94273 5.061 9.94273 5.17275C9.94578 5.30147 9.9375 5.43022 9.91798 5.5575C9.89486 5.68817 9.85213 5.8146 9.79123 5.9325C9.72229 6.04211 9.62916 6.13448 9.51898 6.2025C9.42644 6.26235 9.31687 6.29027 9.20698 6.282M13.0147 3.34575H11.1922V6.94575H11.9632V5.51775H12.9382V4.84875H11.9632V4.01475H13.0132V3.34575" fill="white"/>
</svg>
