<svg width="42" height="42" viewBox="0 0 42 42" fill="none" xmlns="http://www.w3.org/2000/svg">
<g clip-path="url(#clip0_1_4750)">
<path fill-rule="evenodd" clip-rule="evenodd" d="M20 13C19.606 13 19.2159 13.0776 18.8519 13.2284C18.488 13.3791 18.1573 13.6001 17.8787 13.8787C17.6001 14.1573 17.3791 14.488 17.2284 14.8519C17.0776 15.2159 17 15.606 17 16C17 16.394 17.0776 16.7841 17.2284 17.1481C17.3791 17.512 17.6001 17.8427 17.8787 18.1213C18.1573 18.3999 18.488 18.6209 18.8519 18.7716C19.2159 18.9224 19.606 19 20 19C20.7956 19 21.5587 18.6839 22.1213 18.1213C22.6839 17.5587 23 16.7956 23 16C23 15.2044 22.6839 14.4413 22.1213 13.8787C21.5587 13.3161 20.7956 13 20 13ZM15 16C15 14.6739 15.5268 13.4021 16.4645 12.4645C17.4021 11.5268 18.6739 11 20 11C21.3261 11 22.5979 11.5268 23.5355 12.4645C24.4732 13.4021 25 14.6739 25 16C25 17.3261 24.4732 18.5979 23.5355 19.5355C22.5979 20.4732 21.3261 21 20 21C18.6739 21 17.4021 20.4732 16.4645 19.5355C15.5268 18.5979 15 17.3261 15 16ZM13.413 26.601C13.09 27.011 13 27.321 13 27.5C13 27.622 13.037 27.751 13.255 27.926C13.504 28.126 13.937 28.333 14.599 28.508C15.917 28.858 17.811 29 20 29C20.222 29 20.441 28.998 20.658 28.995C20.9232 28.9914 21.179 29.0933 21.3691 29.2783C21.5591 29.4634 21.6679 29.7163 21.6715 29.9815C21.6751 30.2467 21.5732 30.5025 21.3882 30.6926C21.2031 30.8826 20.9502 30.9914 20.685 30.995C20.459 30.998 20.23 31 20 31C17.771 31 15.665 30.86 14.087 30.442C13.302 30.234 12.563 29.936 12.003 29.486C11.41 29.01 11 28.345 11 27.5C11 26.713 11.358 25.977 11.844 25.361C12.338 24.736 13.021 24.161 13.822 23.671C15.425 22.694 17.605 22 20 22C20.447 22 20.887 22.024 21.316 22.07C21.5798 22.098 21.8216 22.2296 21.9883 22.4359C22.155 22.6422 22.233 22.9062 22.205 23.17C22.177 23.4338 22.0454 23.6756 21.8391 23.8423C21.6328 24.009 21.3688 24.087 21.105 24.059C20.745 24.02 20.375 24 20 24C17.977 24 16.157 24.59 14.864 25.379C14.217 25.773 13.728 26.201 13.413 26.601ZM27.316 23.051C27.1109 22.9827 26.8891 22.9827 26.684 23.051L23.684 24.051C23.4848 24.1173 23.3115 24.2447 23.1888 24.415C23.066 24.5854 22.9999 24.79 23 25V26.671C22.9999 27.7406 23.3942 28.7727 24.1075 29.5698C24.8207 30.3668 25.8029 30.8729 26.866 30.991C26.956 31.001 27.045 31.001 27.134 30.991C28.1971 30.8729 29.1793 30.3668 29.8925 29.5698C30.6058 28.7727 31.0001 27.7406 31 26.671V25C31.0001 24.79 30.934 24.5854 30.8112 24.415C30.6885 24.2447 30.5152 24.1173 30.316 24.051L27.316 23.051ZM25 26.671V25.721L27 25.054L29 25.721V26.671C29 27.838 28.145 28.821 27 28.992C26.444 28.9091 25.9362 28.6293 25.5691 28.2035C25.202 27.7776 25.0001 27.2342 25 26.672V26.671Z" fill="#6D6E8C"/>
</g>
<defs>
<clipPath id="clip0_1_4750">
<rect width="24" height="24" fill="white" transform="translate(9 9)"/>
</clipPath>
</defs>
</svg>
