<svg width="18" height="18" viewBox="0 0 18 18" fill="none" xmlns="http://www.w3.org/2000/svg">
<path d="M12.4999 11.0001H11.7099L11.4299 10.7301C12.6299 9.33014 13.2499 7.42014 12.9099 5.39014C12.4399 2.61014 10.1199 0.390137 7.31989 0.0501373C3.08989 -0.469863 -0.470107 3.09014 0.0498932 7.32014C0.389893 10.1201 2.60989 12.4401 5.38989 12.9101C7.41989 13.2501 9.32989 12.6301 10.7299 11.4301L10.9999 11.7101V12.5001L15.2499 16.7501C15.6599 17.1601 16.3299 17.1601 16.7399 16.7501C17.1499 16.3401 17.1499 15.6701 16.7399 15.2601L12.4999 11.0001ZM6.49989 11.0001C4.00989 11.0001 1.99989 8.99014 1.99989 6.50014C1.99989 4.01014 4.00989 2.00014 6.49989 2.00014C8.98989 2.00014 10.9999 4.01014 10.9999 6.50014C10.9999 8.99014 8.98989 11.0001 6.49989 11.0001Z" fill="#6D6E8C"/>
</svg>
