<svg width="182" height="40" viewBox="0 0 182 40" fill="none" xmlns="http://www.w3.org/2000/svg">
<g clip-path="url(#clip0_172_26571)">
<path d="M62.5184 14.1769L32.9944 0.163176C32.7642 0.0547657 32.5128 -0.00146484 32.2582 -0.00146484C32.0036 -0.00146484 31.7522 0.0547657 31.5221 0.163176L1.49008 14.1855C1.20111 14.3196 0.955215 14.5311 0.779774 14.7963C0.604334 15.0614 0.506241 15.3699 0.496423 15.6873C0.486604 16.0047 0.565444 16.3186 0.724162 16.594C0.88288 16.8695 1.11524 17.0956 1.39537 17.2472L12.7607 23.405V33.0019C12.7605 33.3343 12.8572 33.6596 13.0391 33.9382C13.221 34.2168 13.4802 34.4368 13.7853 34.5714L26.1235 40.0002C26.1657 39.8621 26.2512 39.741 26.3673 39.6546C26.4835 39.5682 26.6243 39.521 26.7693 39.52H37.7127C37.8487 39.5195 37.9818 39.5592 38.0952 39.634C38.2085 39.7088 38.2972 39.8153 38.3499 39.9402L50.206 34.58C50.5065 34.4434 50.7612 34.2237 50.9398 33.9469C51.1185 33.6702 51.2134 33.3481 51.2133 33.0191V23.405L62.5959 17.2386C62.8767 17.0885 63.1102 16.8637 63.2704 16.5892C63.4306 16.3148 63.5111 16.0014 63.5031 15.684C63.4951 15.3666 63.3988 15.0577 63.2249 14.7916C63.051 14.5255 62.8065 14.3127 62.5184 14.1769ZM30.265 14.7772C30.8505 14.2798 31.4187 13.7567 31.987 13.2078C32.2023 13.3879 32.3745 13.5079 32.5208 13.6537C33.8037 14.9316 35.1039 16.2266 36.3695 17.4788C36.8 17.899 36.7914 18.1735 36.3695 18.6023C34.6475 20.3176 34.6475 20.3604 32.9255 18.6023C32.0817 17.7704 31.1949 16.8098 30.265 15.9179C29.8603 15.5148 29.8173 15.1975 30.265 14.7772ZM29.4815 38.0448C28.0264 38.0448 27.7595 38.1906 27.7595 36.4496C27.6229 34.3713 26.6997 32.4219 25.1764 30.9951C23.9624 29.7515 22.7914 28.4222 21.5688 27.2129C21.0694 26.7069 21.1297 26.3553 21.6377 25.9179C23.2822 24.4085 23.2736 24.3827 24.8062 25.9179C26.2976 27.3417 27.6791 28.8755 28.939 30.5062C30.2248 32.2207 30.9547 34.2852 31.0313 36.4239C31.126 38.3536 31.126 38.1134 29.4987 38.0448H29.4815ZM30.2564 26.9814C28.9907 28.1306 28.9907 28.122 27.7681 26.9128C26.3388 25.4805 24.9267 24.0311 23.463 22.6246C22.8948 22.0843 22.8775 21.767 23.463 21.1923C25.1334 19.7515 25.1162 19.7172 26.6746 21.2695L30.575 25.1975C30.8258 25.3983 31.0189 25.6616 31.1346 25.9608C30.9331 26.3669 30.6345 26.7173 30.265 26.9814H30.2564ZM30.4114 22.7704C28.8099 21.2095 27.2256 19.6229 25.6414 18.0534C25.5668 18.0021 25.5058 17.9336 25.4637 17.8537C25.4216 17.7737 25.3996 17.6848 25.3996 17.5946C25.3996 17.5043 25.4216 17.4154 25.4637 17.3355C25.5058 17.2555 25.5668 17.187 25.6414 17.1357C26.158 16.6555 26.6918 16.1752 27.1998 15.6863C27.4753 15.4205 27.7164 15.5234 27.9317 15.7378L33.0977 20.935C33.1896 21.0545 33.2676 21.184 33.3302 21.321C32.9341 21.9957 32.4003 22.58 31.7631 23.0362C31.5476 23.1662 31.291 23.211 31.044 23.1617C30.7969 23.1125 30.5774 22.9729 30.4286 22.7704H30.4114ZM43.8345 26.2609C42.1986 27.899 40.5885 29.5457 39.0214 31.2438C38.2405 32.0224 37.6259 32.9503 37.2146 33.9717C36.8032 34.9931 36.6036 36.0869 36.6278 37.1872C36.6278 37.8904 36.4212 38.1735 35.7066 38.0448C35.4572 38.0277 35.2069 38.0277 34.9575 38.0448C33.2355 38.0448 33.3474 38.3707 33.4163 36.4496C33.5454 33.1049 35.1383 30.4462 37.4802 28.1735C38.1432 27.5302 38.7287 26.8184 39.4003 26.1838C39.8825 25.7292 40.0116 25.3261 39.4606 24.8716C38.9095 24.417 38.5048 23.4308 37.5577 24.2198C36.6106 25.0088 35.9304 25.6091 35.1813 26.3467C34.682 26.8441 34.3203 26.8013 33.864 26.3467C32.142 24.7172 32.142 24.7344 33.864 23.1477C35.0264 22.05 36.1973 20.9608 37.308 19.8287C37.8246 19.3055 38.1691 19.3141 38.7115 19.8287C40.4335 21.544 42.1039 23.2592 43.8775 24.9745C44.3425 25.4891 44.3167 25.7721 43.8345 26.2609Z" fill="white"/>
</g>
<path d="M73.324 28.5V11.7H76.084V28.5H73.324ZM87.2584 28.5V21.852C87.2584 21.084 87.0104 20.452 86.5144 19.956C86.0344 19.46 85.4104 19.212 84.6424 19.212C84.1304 19.212 83.6744 19.324 83.2744 19.548C82.8744 19.772 82.5624 20.084 82.3384 20.484C82.1144 20.884 82.0024 21.34 82.0024 21.852L80.9704 21.276C80.9704 20.396 81.1624 19.62 81.5464 18.948C81.9304 18.26 82.4584 17.724 83.1304 17.34C83.8184 16.94 84.5864 16.74 85.4344 16.74C86.2984 16.74 87.0664 16.964 87.7384 17.412C88.4104 17.844 88.9384 18.412 89.3224 19.116C89.7064 19.804 89.8984 20.524 89.8984 21.276V28.5H87.2584ZM79.3624 28.5V16.98H82.0024V28.5H79.3624ZM97.8852 28.74C96.7492 28.74 95.7172 28.476 94.7892 27.948C93.8772 27.42 93.1572 26.7 92.6292 25.788C92.1012 24.876 91.8372 23.86 91.8372 22.74C91.8372 21.604 92.1012 20.588 92.6292 19.692C93.1572 18.78 93.8772 18.06 94.7892 17.532C95.7172 17.004 96.7492 16.74 97.8852 16.74C98.7812 16.74 99.6132 16.916 100.381 17.268C101.165 17.604 101.829 18.092 102.373 18.732L100.645 20.484C100.309 20.084 99.9012 19.788 99.4212 19.596C98.9572 19.388 98.4452 19.284 97.8852 19.284C97.2292 19.284 96.6452 19.436 96.1332 19.74C95.6372 20.028 95.2452 20.428 94.9572 20.94C94.6852 21.452 94.5492 22.052 94.5492 22.74C94.5492 23.412 94.6852 24.012 94.9572 24.54C95.2452 25.052 95.6372 25.46 96.1332 25.764C96.6452 26.052 97.2292 26.196 97.8852 26.196C98.4452 26.196 98.9572 26.1 99.4212 25.908C99.9012 25.7 100.309 25.396 100.645 24.996L102.373 26.748C101.829 27.388 101.165 27.884 100.381 28.236C99.6132 28.572 98.7812 28.74 97.8852 28.74ZM104.277 28.5V11.22H106.917V28.5H104.277ZM114.583 28.74C113.607 28.74 112.735 28.524 111.967 28.092C111.215 27.66 110.623 27.068 110.191 26.316C109.775 25.548 109.567 24.668 109.567 23.676V16.98H112.207V23.556C112.207 24.116 112.295 24.596 112.471 24.996C112.663 25.38 112.935 25.676 113.287 25.884C113.655 26.092 114.087 26.196 114.583 26.196C115.351 26.196 115.935 25.972 116.335 25.524C116.751 25.06 116.959 24.404 116.959 23.556V16.98H119.599V23.676C119.599 24.684 119.383 25.572 118.951 26.34C118.535 27.092 117.951 27.684 117.199 28.116C116.447 28.532 115.575 28.74 114.583 28.74ZM127.077 28.74C126.037 28.74 125.093 28.476 124.245 27.948C123.413 27.42 122.749 26.708 122.253 25.812C121.773 24.9 121.533 23.884 121.533 22.764C121.533 21.628 121.773 20.612 122.253 19.716C122.749 18.804 123.413 18.084 124.245 17.556C125.093 17.012 126.037 16.74 127.077 16.74C127.957 16.74 128.733 16.932 129.405 17.316C130.093 17.684 130.637 18.196 131.037 18.852C131.437 19.508 131.637 20.252 131.637 21.084V24.396C131.637 25.228 131.437 25.972 131.037 26.628C130.653 27.284 130.117 27.804 129.429 28.188C128.741 28.556 127.957 28.74 127.077 28.74ZM127.509 26.244C128.165 26.244 128.733 26.1 129.213 25.812C129.709 25.508 130.093 25.092 130.365 24.564C130.637 24.036 130.773 23.428 130.773 22.74C130.773 22.052 130.637 21.444 130.365 20.916C130.093 20.388 129.709 19.98 129.213 19.692C128.733 19.388 128.165 19.236 127.509 19.236C126.869 19.236 126.301 19.388 125.805 19.692C125.325 19.98 124.941 20.388 124.653 20.916C124.381 21.444 124.245 22.052 124.245 22.74C124.245 23.428 124.381 24.036 124.653 24.564C124.941 25.092 125.325 25.508 125.805 25.812C126.301 26.1 126.869 26.244 127.509 26.244ZM133.245 28.5H130.605V25.404L131.061 22.596L130.605 19.812V11.22H133.245V28.5ZM141.527 28.74C140.375 28.74 139.335 28.484 138.407 27.972C137.495 27.444 136.767 26.724 136.223 25.812C135.695 24.9 135.431 23.876 135.431 22.74C135.431 21.604 135.695 20.588 136.223 19.692C136.751 18.78 137.463 18.06 138.359 17.532C139.271 17.004 140.279 16.74 141.383 16.74C142.455 16.74 143.399 16.988 144.215 17.484C145.047 17.98 145.695 18.66 146.159 19.524C146.639 20.388 146.879 21.372 146.879 22.476C146.879 22.668 146.863 22.868 146.831 23.076C146.815 23.268 146.783 23.484 146.735 23.724H137.279V21.564H145.367L144.383 22.428C144.351 21.724 144.215 21.132 143.975 20.652C143.735 20.172 143.391 19.804 142.943 19.548C142.511 19.292 141.975 19.164 141.335 19.164C140.663 19.164 140.079 19.308 139.583 19.596C139.087 19.884 138.703 20.292 138.431 20.82C138.159 21.332 138.023 21.948 138.023 22.668C138.023 23.388 138.167 24.02 138.455 24.564C138.743 25.108 139.151 25.532 139.679 25.836C140.207 26.124 140.815 26.268 141.503 26.268C142.095 26.268 142.639 26.164 143.135 25.956C143.647 25.748 144.079 25.444 144.431 25.044L146.111 26.748C145.551 27.404 144.871 27.9 144.071 28.236C143.271 28.572 142.423 28.74 141.527 28.74ZM148.995 28.5V16.98H151.635V28.5H148.995ZM156.651 28.5V21.636C156.651 20.868 156.411 20.276 155.931 19.86C155.451 19.428 154.859 19.212 154.155 19.212C153.675 19.212 153.243 19.308 152.859 19.5C152.491 19.692 152.195 19.972 151.971 20.34C151.747 20.692 151.635 21.124 151.635 21.636L150.603 21.06C150.603 20.18 150.795 19.42 151.179 18.78C151.563 18.14 152.083 17.644 152.739 17.292C153.395 16.924 154.131 16.74 154.947 16.74C155.763 16.74 156.499 16.916 157.155 17.268C157.811 17.62 158.331 18.116 158.715 18.756C159.099 19.396 159.291 20.164 159.291 21.06V28.5H156.651ZM164.307 28.5V21.636C164.307 20.868 164.067 20.276 163.587 19.86C163.107 19.428 162.515 19.212 161.811 19.212C161.347 19.212 160.923 19.308 160.539 19.5C160.155 19.692 159.851 19.972 159.627 20.34C159.403 20.692 159.291 21.124 159.291 21.636L157.803 21.06C157.883 20.18 158.139 19.42 158.571 18.78C159.003 18.14 159.555 17.644 160.227 17.292C160.915 16.924 161.667 16.74 162.483 16.74C163.315 16.74 164.067 16.916 164.739 17.268C165.411 17.62 165.947 18.116 166.347 18.756C166.747 19.396 166.947 20.164 166.947 21.06V28.5H164.307ZM173.387 28.62L168.467 16.98H171.371L174.731 25.524H173.891L177.443 16.98H180.371L175.019 28.62H173.387ZM169.955 33.3L173.531 25.932L175.019 28.62L172.883 33.3H169.955Z" fill="white"/>
<defs>
<clipPath id="clip0_172_26571">
<rect width="63" height="40" fill="white" transform="translate(0.5)"/>
</clipPath>
</defs>
</svg>
