<svg width="220" height="159" viewBox="0 0 220 159" fill="none" xmlns="http://www.w3.org/2000/svg">
<g clip-path="url(#clip0_1_8433)">
<path d="M207.064 108.51C207.389 105.764 204.059 103.51 201.556 103.275C200.365 103.161 199.126 103.372 197.994 102.915C195.535 101.925 194.551 98.2404 192.176 97.0732C190.39 96.1921 188.334 96.976 186.603 97.9886C184.872 99.0013 183.16 100.277 181.222 100.42C179.54 100.546 177.71 99.848 176.239 100.781C175.142 101.49 174.567 102.96 173.554 103.83C172.541 104.7 171.276 104.86 170.047 104.934C168.817 105.009 167.548 105.026 166.432 105.621C165.315 106.216 164.385 107.595 164.622 108.996L207.064 108.51Z" fill="#F5F5F5"/>
<path d="M127.21 79.8005L127.653 80.6587C128.153 81.6219 128.878 82.3998 129.744 82.9015L130.521 83.342L129.778 83.8627C128.95 84.4428 128.283 85.2866 127.855 86.2942L127.471 87.1924L127.028 86.3342C126.53 85.3682 125.802 84.5896 124.933 84.0915L124.161 83.651L124.904 83.1303C125.731 82.5502 126.399 81.7064 126.827 80.6988L127.21 79.8005Z" fill="#E0E0E0"/>
<path d="M2.61665 134.153L3.06425 135.017C3.56298 135.979 4.28841 136.756 5.15467 137.254L5.92689 137.7L5.1891 138.215C4.35859 138.795 3.68924 139.641 3.26099 140.652L2.87734 141.55L2.43466 140.687C1.93594 139.724 1.2105 138.948 0.344246 138.45L-0.427979 138.003L0.309816 137.488C1.13667 136.905 1.80505 136.062 2.23792 135.057L2.61665 134.153Z" fill="#E0E0E0"/>
<path d="M66.5539 37.6174L66.9327 41.9999C67.0043 43.0571 67.4047 44.0477 68.059 44.7862L68.1033 44.832C68.7587 45.4909 69.5886 45.8685 70.4544 45.9019L73.4056 46.0735L70.3462 46.7086C69.5511 46.8607 68.8178 47.3013 68.2509 47.9672L68.0689 48.1904C67.5426 48.9103 67.2257 49.8055 67.1638 50.7478L66.8245 55.1189L66.4506 50.9824C66.3754 49.9358 65.977 48.9562 65.3292 48.2247L65.2111 48.0988C64.6065 47.5005 63.8573 47.1347 63.0666 47.0518L59.9236 46.6685L62.8748 46.2509C63.7508 46.1457 64.5673 45.6861 65.1816 44.9521L65.2898 44.8148C65.8235 44.0929 66.1426 43.19 66.1998 42.2402L66.5539 37.6174Z" fill="#E0E0E0"/>
<path d="M4.77098 36.3188L5.05135 39.5457C5.10804 40.3264 5.40699 41.0564 5.89243 41.5996L5.92194 41.6339C6.40488 42.1181 7.01605 42.3948 7.6533 42.4177L9.84701 42.5493L7.58936 43.0185C7.00479 43.1315 6.46498 43.4534 6.04491 43.9396L5.91211 44.1055C5.52475 44.6352 5.2922 45.2944 5.24809 45.9878L4.99724 49.2146L4.7218 46.1652C4.66706 45.3941 4.37341 44.6723 3.89547 44.1341L3.80693 44.0369C3.35997 43.6004 2.80915 43.3329 2.22805 43.2702L-0.088623 42.9842L2.08049 42.6809C2.72754 42.6043 3.33041 42.2638 3.78234 41.7197C3.81104 41.6902 3.83738 41.6576 3.86104 41.6225C4.24529 41.0956 4.47604 40.4406 4.52013 39.7516L4.77098 36.3188Z" fill="#E0E0E0"/>
<path d="M190.833 132.969L191.113 136.195C191.163 136.975 191.457 137.705 191.94 138.249L191.974 138.284C192.457 138.768 193.068 139.044 193.705 139.067L195.899 139.199L193.641 139.668C193.056 139.779 192.516 140.101 192.097 140.589L191.964 140.755C191.577 141.286 191.343 141.944 191.295 142.637L191.049 145.864L190.774 142.815C190.715 142.044 190.42 141.323 189.943 140.784L189.854 140.687C189.409 140.25 188.86 139.983 188.28 139.92L185.959 139.634L188.133 139.331C188.779 139.253 189.382 138.912 189.834 138.369L189.913 138.272C190.304 137.738 190.538 137.072 190.582 136.373L190.833 132.969Z" fill="#E0E0E0"/>
<path d="M215.948 70.0745L216.223 73.3013C216.277 74.0804 216.572 74.8103 217.054 75.3552L217.089 75.3895C217.571 75.8745 218.183 76.1513 218.82 76.1734L221.009 76.3049L218.756 76.7741C218.17 76.8856 217.628 77.2077 217.207 77.6952L217.079 77.8669C216.688 78.3949 216.454 79.0547 216.41 79.7492L216.159 82.9702L215.884 79.9208C215.829 79.1497 215.535 78.4279 215.057 77.8897L214.969 77.7925C214.522 77.3551 213.971 77.0875 213.39 77.0258L211.073 76.7455L213.242 76.4365C213.888 76.3502 214.487 76.0018 214.934 75.4525L215.018 75.3495C215.407 74.8137 215.641 74.1491 215.687 73.45L215.948 70.0745Z" fill="#E0E0E0"/>
<path d="M147.662 13.0618L147.888 13.4909C148.136 13.9726 148.498 14.3603 148.931 14.6065L149.32 14.8296L148.951 15.0871C148.528 15.373 148.186 15.7966 147.967 16.3057L147.775 16.7577L147.554 16.3286C147.308 15.8365 146.944 15.4388 146.506 15.1844L146.123 14.9612L146.492 14.7038C146.912 14.4145 147.254 13.9918 147.475 13.4851L147.662 13.0618Z" fill="#E0E0E0"/>
<path d="M118.805 57.1328L119.026 57.5619C119.275 58.0514 119.638 58.4483 120.074 58.7062L120.457 58.9236L120.088 59.1868C119.667 59.4722 119.325 59.8934 119.105 60.3997L118.918 60.8517L118.691 60.4226C118.449 59.9292 118.086 59.5308 117.649 59.2783L117.26 59.0552L117.629 58.7977C118.052 58.5118 118.394 58.0882 118.613 57.5791L118.805 57.1328Z" fill="#E0E0E0"/>
<path d="M207.989 19.0747L208.21 19.5038C208.456 19.9959 208.82 20.3937 209.258 20.6481L209.642 20.8712L209.273 21.1287C208.852 21.4179 208.511 21.8406 208.289 22.3473L208.102 22.7935L207.876 22.3644C207.629 21.8827 207.267 21.495 206.833 21.2488L206.445 21.0257L206.814 20.7682C207.236 20.4807 207.577 20.0575 207.797 19.5496L207.989 19.0747Z" fill="#E0E0E0"/>
<path d="M80.3212 89.3149L80.5474 89.744C80.7908 90.2364 81.1534 90.6344 81.5902 90.8883L81.9787 91.1114L81.6098 91.3689C81.1868 91.6548 80.8448 92.0784 80.6261 92.5875L80.4343 93.0395L80.2129 92.6104C79.9671 92.1183 79.603 91.7206 79.1653 91.4661L78.7816 91.243L79.1505 90.9856C79.5713 90.6963 79.9125 90.2736 80.1342 89.7669L80.3212 89.3149Z" fill="#E0E0E0"/>
<path d="M110.502 50.3016C122.444 50.3016 132.124 39.0412 132.124 25.1508C132.124 11.2604 122.444 0 110.502 0C98.5602 0 88.8796 11.2604 88.8796 25.1508C88.8796 39.0412 98.5602 50.3016 110.502 50.3016Z" fill="#EBEBEB"/>
<path d="M113.473 47.9386C109.013 47.9241 104.665 46.3071 101.025 43.3087C97.3855 40.3103 94.631 36.0771 93.1386 31.1881C91.6463 26.2991 91.4889 20.9932 92.6882 15.9963C93.8874 10.9993 96.3847 6.55539 99.8383 3.27246C97.2031 4.97045 94.9016 7.28969 93.0812 10.0817C91.2608 12.8738 89.9617 16.0772 89.2668 19.4869C88.5719 22.8965 88.4967 26.4374 89.0459 29.8828C89.5952 33.3282 90.7568 36.6024 92.4564 39.4956C94.1559 42.3888 96.3561 44.8375 98.9161 46.6848C101.476 48.5321 104.339 49.7374 107.323 50.2235C110.306 50.7097 113.344 50.466 116.242 49.508C119.14 48.55 121.833 46.8989 124.151 44.6603C120.898 46.8152 117.217 47.9452 113.473 47.9386Z" fill="#E0E0E0"/>
<path d="M126.074 19.4461C126.493 16.4491 124.745 13.6238 122.168 13.1357C119.592 12.6476 117.163 14.6815 116.743 17.6786C116.323 20.6756 118.072 23.5009 120.649 23.989C123.225 24.4771 125.654 22.4432 126.074 19.4461Z" fill="#F5F5F5"/>
<path d="M127.874 32.5598C127.874 33.3043 127.685 34.0322 127.329 34.6513C126.973 35.2704 126.468 35.7529 125.877 36.0378C125.285 36.3228 124.634 36.3973 124.007 36.252C123.379 36.1068 122.802 35.7482 122.349 35.2218C121.897 34.6953 121.589 34.0245 121.464 33.2942C121.339 32.564 121.403 31.807 121.648 31.1191C121.893 30.4312 122.308 29.8433 122.84 29.4296C123.372 29.016 123.998 28.7952 124.638 28.7952C125.496 28.7952 126.32 29.1918 126.927 29.8978C127.533 30.6038 127.874 31.5613 127.874 32.5598Z" fill="#F5F5F5"/>
<path d="M129.985 18.5026C129.937 18.4011 129.896 18.296 129.862 18.1879C129.783 17.982 129.689 17.6616 129.537 17.2725C129.133 16.1572 128.662 15.0769 128.125 14.04C126.369 10.597 123.912 7.70848 120.972 5.62848C118.031 3.54847 114.696 2.34062 111.259 2.11109C110.223 2.02724 109.182 2.02724 108.146 2.11109C107.777 2.11109 107.492 2.18547 107.3 2.20263C107.2 2.21643 107.099 2.21643 107 2.20263C107.095 2.16858 107.192 2.1437 107.29 2.12826C107.487 2.09965 107.782 2.02527 108.136 1.98522C109.176 1.84919 110.224 1.80902 111.269 1.86508C114.746 2.03527 118.128 3.22626 121.102 5.32708C124.076 7.42789 126.545 10.3702 128.278 13.8798C128.807 14.9307 129.259 16.0311 129.63 17.1695C129.768 17.57 129.847 17.8961 129.911 18.1078C129.954 18.2337 129.979 18.3672 129.985 18.5026Z" fill="white"/>
<path d="M130.334 29.213C130.63 28.0182 130.821 26.7913 130.904 25.5514C130.9 24.3089 130.785 23.0703 130.56 21.8555C130.731 22.1717 130.848 22.5233 130.904 22.891C131.301 24.6427 131.244 26.4915 130.742 28.2061C130.66 28.5679 130.521 28.9091 130.334 29.213Z" fill="white"/>
<path d="M41.8919 72.3629C42.2165 69.6167 38.8866 67.3567 36.383 67.1222C35.1927 67.0135 33.9532 67.2252 32.8219 66.7675C30.3626 65.772 29.3789 62.0932 27.0032 60.9203C25.2177 60.0449 23.1618 60.823 21.4304 61.8357C19.699 62.8484 17.9874 64.1242 16.0494 64.273C14.3672 64.3988 12.5375 63.6722 11.0668 64.6277C9.96999 65.3429 9.39451 66.8132 8.38127 67.6771C7.36803 68.5411 6.10394 68.707 4.87429 68.7871C3.64463 68.8672 2.37562 68.8786 1.25909 69.4736C0.142564 70.0686 -0.782139 71.4418 -0.550964 72.8492L41.8919 72.3629Z" fill="#EBEBEB"/>
<path d="M55.3852 158.539C55.7099 155.793 52.38 153.533 49.8764 153.298C48.6861 153.19 47.4466 153.401 46.3153 152.944C43.856 151.948 42.8722 148.269 40.4966 147.097C38.7111 146.221 36.6551 146.999 34.9237 148.012C33.1924 149.025 31.4807 150.3 29.5428 150.449C27.8606 150.575 26.0309 149.849 24.5602 150.804C23.4633 151.519 22.8879 152.989 21.8746 153.853C20.8614 154.717 19.5973 154.883 18.3676 154.963C17.138 155.043 15.869 155.055 14.7524 155.65C13.6359 156.245 12.7112 157.618 12.9424 159.025L55.3852 158.539Z" fill="#EBEBEB"/>
<path d="M62.4567 10.4415C62.6879 8.46761 60.2974 6.84848 58.5218 6.68257C57.666 6.60247 56.7757 6.75122 55.9641 6.42511C54.2082 5.70995 53.5048 3.06671 51.7882 2.22568C50.5045 1.59634 49.0289 2.15702 47.7845 2.88363C46.54 3.61023 45.3251 4.53136 43.9233 4.63434C42.7183 4.72588 41.405 4.19953 40.3475 4.88608C39.5605 5.401 39.1473 6.45371 38.4243 7.07733C37.6658 7.62214 36.7873 7.89845 35.8961 7.87259C35.0118 7.84915 34.1313 8.01596 33.2991 8.36462C32.4974 8.79372 31.8235 9.7835 31.9957 10.7905L62.4567 10.4415Z" fill="#F5F5F5"/>
<path d="M197.911 54.3696C198.142 52.4014 195.752 50.7766 193.976 50.6107C193.12 50.5306 192.23 50.6851 191.418 50.3532C189.662 49.6381 188.959 47.0005 187.242 46.1595C185.964 45.5302 184.483 46.0909 183.244 46.8175C182.004 47.5441 180.784 48.4595 179.382 48.5625C178.172 48.654 176.859 48.1334 175.802 48.8199C175.015 49.3291 174.601 50.3876 173.878 51.0112C173.122 51.5521 172.248 51.8264 171.36 51.8007C170.475 51.7768 169.594 51.9457 168.763 52.2985C167.961 52.7218 167.287 53.7116 167.465 54.7186L197.911 54.3696Z" fill="#EBEBEB"/>
<path d="M43.5593 44.9009L43.7315 45.2384C43.9257 45.6154 44.2092 45.9192 44.548 46.1138L44.848 46.2854L44.5627 46.4857C44.238 46.7132 43.9766 47.045 43.8102 47.4411L43.6577 47.7901L43.4855 47.4526C43.2913 47.0757 43.0078 46.7718 42.6691 46.5772L42.369 46.4056L42.6543 46.2053C42.9783 45.9794 43.2396 45.6497 43.4068 45.2556L43.5593 44.9009Z" fill="#263238"/>
<path d="M213.675 40.0776L213.852 40.4152C214.046 40.7921 214.33 41.096 214.669 41.2906L214.969 41.4622L214.679 41.6682C214.364 41.8968 214.112 42.224 213.951 42.6122L213.798 42.9612L213.626 42.6236C213.432 42.2467 213.148 41.9428 212.809 41.7483L212.509 41.5766L212.795 41.3764C213.119 41.1504 213.38 40.8207 213.547 40.4266L213.675 40.0776Z" fill="#263238"/>
<path d="M101.211 66.3328L101.432 66.7619C101.676 67.2538 102.038 67.6516 102.475 67.9061L102.863 68.1292L102.494 68.3867C102.074 68.676 101.732 69.0987 101.511 69.6053L101.319 70.0516L101.097 69.6225C100.85 69.1318 100.486 68.7346 100.05 68.4782L99.6662 68.2608L100.035 67.9977C100.457 67.7122 100.798 67.291 101.019 66.7847L101.211 66.3328Z" fill="#263238"/>
<path d="M77.5323 6.67114L77.7536 7.10024C78.001 7.5909 78.3648 7.98818 78.8013 8.2445L79.185 8.46763L78.8161 8.72509C78.3944 9.01052 78.0528 9.43176 77.8323 9.938L77.6405 10.39L77.4192 9.96088C77.1738 9.47043 76.8116 9.07303 76.3764 8.81663L75.9879 8.5935L76.3568 8.33604C76.7775 8.04678 77.1188 7.62407 77.3405 7.1174L77.5323 6.67114Z" fill="#263238"/>
<path d="M171.276 1.41895L171.498 1.84804C171.746 2.33749 172.11 2.7344 172.545 2.9923L172.934 3.21543L172.565 3.47289C172.142 3.75881 171.8 4.18241 171.581 4.69152L171.39 5.13778L171.168 4.70869C170.92 4.21924 170.556 3.82233 170.121 3.56443L169.737 3.34702L170.106 3.08384C170.529 2.80078 170.871 2.3789 171.09 1.87093L171.276 1.41895Z" fill="#263238"/>
<path d="M146.452 46.3711L146.624 48.3392C146.653 48.8122 146.828 49.2571 147.116 49.5922C147.409 49.8884 147.781 50.0582 148.169 50.0728L149.507 50.1529L148.134 50.4389C147.775 50.5084 147.445 50.7087 147.19 51.0111C147.161 51.0406 147.135 51.0732 147.111 51.1083C146.874 51.4293 146.731 51.8303 146.703 52.2526L146.551 54.215L146.383 52.3613C146.353 51.8921 146.178 51.4514 145.891 51.1198L145.837 51.0626C145.568 50.7929 145.232 50.6287 144.878 50.5934L143.462 50.4218L144.785 50.233C145.178 50.1903 145.545 49.9877 145.823 49.6608L145.872 49.5979C146.108 49.2763 146.251 48.8757 146.28 48.4536L146.452 46.3711Z" fill="#263238"/>
<path d="M17.5742 9.12549L17.7414 11.0936C17.7703 11.5665 17.9449 12.0115 18.2333 12.3466C18.5281 12.6428 18.9014 12.8125 19.2908 12.8272L20.6287 12.9015L19.2515 13.1876C18.8929 13.2586 18.5626 13.4587 18.3071 13.7597L18.2284 13.8627C17.992 14.1846 17.8491 14.585 17.8201 15.007L17.6972 16.9923L17.5348 15.15C17.505 14.6807 17.3303 14.2398 17.043 13.9085C17.0227 13.8925 17.0045 13.8733 16.9889 13.8513C16.7097 13.582 16.3665 13.4183 16.0052 13.3821L14.5935 13.2105L15.9166 13.0217C16.31 12.9804 16.6779 12.7776 16.9544 12.4496L17.0036 12.3923C17.2383 12.0693 17.3809 11.6695 17.4119 11.2481L17.5742 9.12549Z" fill="#263238"/>
<path d="M104.029 105.209L104.25 105.638C104.498 106.129 104.861 106.526 105.298 106.782L105.682 107L105.313 107.263C104.891 107.548 104.549 107.97 104.329 108.476L104.137 108.928L103.916 108.499C103.674 108.005 103.311 107.607 102.873 107.354L102.485 107.131L102.853 106.874C103.274 106.585 103.615 106.162 103.837 105.655L104.029 105.209Z" fill="#263238"/>
<path d="M181.542 76.4937L181.763 76.9227C182.008 77.4132 182.371 77.8106 182.806 78.067L183.194 78.2844L182.825 78.5476C182.404 78.833 182.062 79.2543 181.842 79.7605L181.65 80.2125L181.429 79.7834C181.181 79.2927 180.817 78.8955 180.381 78.6391L179.997 78.416L180.366 78.1586C180.787 77.8693 181.128 77.4466 181.35 76.9399L181.542 76.4937Z" fill="#263238"/>
<path d="M143.833 114.197C144.259 115.257 141.679 116.743 140.333 116.528C139.183 116.169 138.055 115.723 136.955 115.192C133.376 113.605 128.353 111.191 128.353 111.191L126.068 113.83L114.309 124.92L103.118 110.347C103.118 110.347 108.587 104.3 113.843 98.7293C114.632 97.8713 115.453 97.0362 116.211 96.2241L116.357 96.0727C119.908 92.402 122.887 89.4884 123.333 89.626C124.553 89.9793 143.407 113.132 143.833 114.197Z" fill="#FFC4C0"/>
<path d="M143.833 114.197C144.259 115.261 141.679 116.743 140.333 116.528C139.183 116.169 138.054 115.721 136.955 115.188C133.376 113.609 128.353 111.191 128.353 111.191L126.064 113.834L125.669 114.201L113.681 98.9082L113.851 98.7247L116.218 96.224C116.266 96.1689 116.317 96.1185 116.364 96.0726C119.916 92.4019 122.895 89.4883 123.345 89.6213C124.553 89.9746 143.407 113.132 143.833 114.197Z" fill="#EBEBEB"/>
<path d="M144.2 114.495C143.782 113.403 124.837 89.548 123.617 89.1717C123.16 89.0203 120.007 92.0303 116.293 95.7882L116.175 95.9075L128.25 111.457L128.471 111.21C128.471 111.21 139.236 116.569 140.613 116.817C141.99 117.064 144.626 115.582 144.2 114.495Z" fill="#1355FF"/>
<path opacity="0.1" d="M144.2 114.495C143.782 113.403 124.837 89.548 123.617 89.1717C123.16 89.0203 120.007 92.0303 116.293 95.7882L116.175 95.9075L128.25 111.457L128.471 111.21C128.471 111.21 139.236 116.569 140.613 116.817C141.99 117.064 144.626 115.582 144.2 114.495Z" fill="#1A1D3E"/>
<path d="M143.19 115.078C139.915 111.15 127.011 94.9393 124.024 90.7593C124 90.7272 124.024 90.7043 124.047 90.7593C127.37 94.5723 140.159 110.902 143.249 115.036C143.312 115.105 143.277 115.16 143.19 115.078Z" fill="#263238"/>
<path d="M129.651 113.133C128.14 111.82 126.81 109.659 126.822 107.411C126.822 107.323 126.928 107.323 126.952 107.411C127.734 109.373 128.695 111.233 129.817 112.958C129.826 112.985 129.829 113.014 129.823 113.042C129.818 113.069 129.805 113.095 129.787 113.114C129.769 113.133 129.746 113.145 129.722 113.148C129.697 113.152 129.673 113.146 129.651 113.133Z" fill="#263238"/>
<path d="M131.147 113.637C129.639 112.329 128.309 110.168 128.317 107.915C128.317 107.828 128.428 107.833 128.451 107.915C129.232 109.879 130.193 111.739 131.316 113.463C131.327 113.49 131.33 113.52 131.324 113.549C131.319 113.577 131.306 113.604 131.287 113.623C131.268 113.643 131.244 113.655 131.219 113.657C131.193 113.66 131.168 113.653 131.147 113.637Z" fill="#263238"/>
<path d="M132.646 114.142C131.139 112.834 129.809 110.673 129.817 108.425C129.817 108.337 129.923 108.337 129.951 108.425C130.735 110.377 131.695 112.228 132.816 113.945C132.827 113.958 132.836 113.973 132.842 113.99C132.848 114.007 132.851 114.025 132.851 114.043C132.851 114.062 132.848 114.08 132.842 114.097C132.836 114.114 132.827 114.129 132.816 114.142C132.805 114.155 132.791 114.165 132.777 114.172C132.762 114.179 132.747 114.183 132.731 114.183C132.715 114.183 132.7 114.179 132.685 114.172C132.67 114.165 132.657 114.155 132.646 114.142Z" fill="#263238"/>
<path d="M129.69 115.587C129.548 113.66 128.7 111.875 128.076 110.122C128.059 110.085 128.035 110.054 128.006 110.03C127.976 110.006 127.942 109.99 127.907 109.984C127.871 109.978 127.835 109.981 127.801 109.994C127.766 110.007 127.735 110.029 127.709 110.058C127.705 110.05 127.699 110.044 127.692 110.04C127.685 110.036 127.678 110.033 127.67 110.033C127.662 110.033 127.654 110.036 127.648 110.04C127.641 110.044 127.635 110.05 127.631 110.058C126.805 111.832 126.397 113.828 126.447 115.844C126.494 117.019 127.082 118.528 128.313 118.363C129.465 118.216 129.773 116.698 129.69 115.587ZM128.901 117.166C127.627 119.047 126.928 116.34 126.928 115.472C126.933 114.912 126.97 114.352 127.039 113.798C127.198 112.654 127.407 111.521 127.666 110.402C127.926 111.288 128.25 112.137 128.534 113.004C128.893 114.045 129.615 116.124 128.917 117.156L128.901 117.166Z" fill="#263238"/>
<path d="M121.364 107.016C120.816 108.31 121.85 109.457 122.789 109.898C124.411 110.624 126.17 110.838 127.887 110.517C127.895 110.516 127.902 110.512 127.909 110.507C127.915 110.502 127.92 110.495 127.924 110.487C127.928 110.479 127.93 110.47 127.931 110.461C127.931 110.452 127.93 110.443 127.927 110.434C127.959 110.416 127.987 110.389 128.009 110.356C128.031 110.323 128.046 110.284 128.052 110.243C128.059 110.202 128.057 110.16 128.047 110.12C128.036 110.079 128.018 110.043 127.994 110.012C126.778 108.75 125.626 107.222 124.099 106.433C123.199 105.97 121.877 105.795 121.364 107.016ZM125.796 108.535C126.407 109.14 126.979 109.774 127.623 110.37C126.632 110.246 125.65 110.173 124.659 109.934C124.186 109.828 123.719 109.684 123.262 109.503C122.56 109.209 120.595 107.548 122.544 106.777C123.617 106.337 125.07 107.814 125.796 108.535Z" fill="#263238"/>
<path d="M124.643 118.074C124.643 118.074 97.9482 138.644 86.4533 141.098C80.9603 142.273 74.7571 136.203 75.3214 129.224C75.8462 122.713 89.1958 108.048 92.1356 103.07C93.0629 101.51 94.3059 91.2732 94.3059 91.2732L107.079 93.7555C107.079 93.7555 106.965 100.95 106.472 104.997C106.465 105.067 106.453 105.136 106.436 105.203L110.481 101.074L124.643 118.074Z" fill="#37474F"/>
<path d="M115.2 111.701C113.081 109.264 110.86 106.947 108.741 104.538C108.697 104.492 108.63 104.538 108.67 104.603C110.745 107.071 112.746 109.613 114.861 112.036C116.976 114.458 119.174 116.798 121.337 119.175C121.392 119.235 121.483 119.148 121.427 119.083C119.348 116.629 117.308 114.123 115.2 111.701Z" fill="#263238"/>
<path d="M106.551 105.327C105.986 106.13 105.481 107.002 104.952 107.833C104.424 108.663 103.899 109.471 103.35 110.274C102.241 111.884 101.077 113.449 99.8817 114.977C97.4756 118.059 94.8944 120.95 92.1553 123.63C90.6243 125.122 89.0734 126.604 87.42 127.921C87.3845 127.948 87.42 128.012 87.4634 127.98C88.6473 127.035 89.8666 126.099 91.0149 125.099C90.4901 125.906 89.981 126.737 89.4562 127.549C89.4325 127.59 89.4838 127.641 89.5115 127.599C90.0955 126.741 90.6953 125.897 91.2635 125.03C91.2701 125.02 91.2748 125.009 91.2774 124.997C91.28 124.985 91.2804 124.973 91.2785 124.96C91.2766 124.948 91.2726 124.937 91.2666 124.927C91.2606 124.916 91.2528 124.908 91.2438 124.901L91.8396 124.383C93.2681 123.092 94.6479 121.737 95.9791 120.318C98.6115 117.505 101.031 114.435 103.212 111.141C103.828 110.223 104.428 109.283 105.012 108.319C105.606 107.384 106.149 106.406 106.637 105.392C106.697 105.327 106.578 105.263 106.551 105.327Z" fill="#263238"/>
<path d="M155.979 104.579C156.603 105.497 154.401 107.631 153.031 107.791C151.841 107.748 150.655 107.614 149.48 107.392C145.68 106.805 140.313 105.795 140.313 105.795L138.612 108.98L129.706 122.616L115.591 111.714C115.591 111.714 119.719 104.373 123.732 97.5409C124.351 96.4947 124.963 95.4669 125.563 94.4667L125.669 94.2831C128.4 89.759 130.728 86.1296 131.194 86.1433C132.429 86.1571 155.356 103.657 155.979 104.579Z" fill="#FFC4C0"/>
<path d="M155.979 104.58C156.603 105.497 154.401 107.635 153.031 107.791C151.841 107.748 150.655 107.615 149.48 107.392C145.684 106.805 140.313 105.795 140.313 105.795L138.616 108.98L138.364 109.365L123.507 97.9218L123.74 97.5318C124.355 96.4857 124.967 95.4579 125.563 94.4576C125.602 94.398 125.638 94.3337 125.673 94.2741C128.404 89.7499 130.732 86.1251 131.198 86.1343C132.429 86.1526 155.352 103.657 155.979 104.58Z" fill="#EBEBEB"/>
<path d="M156.322 104.63C155.687 103.712 132.322 85.9048 131.068 85.8865C130.59 85.8865 128.163 89.6765 125.342 94.375C125.315 94.4257 125.286 94.4747 125.255 94.5218L140.218 106.19L140.38 105.892C140.38 105.892 151.942 108.044 153.331 107.897C154.72 107.75 156.962 105.566 156.322 104.63Z" fill="#1355FF"/>
<path d="M155.466 105.479C151.465 102.597 135.558 90.5208 131.79 87.3135C131.758 87.286 131.79 87.2631 131.79 87.286C135.811 90.039 151.631 102.272 155.494 105.405C155.588 105.47 155.549 105.543 155.466 105.479Z" fill="#263238"/>
<path d="M141.923 107.42C140.183 106.576 138.443 104.855 137.977 102.671C137.977 102.588 138.064 102.556 138.104 102.616C139.273 104.306 140.596 105.844 142.05 107.204C142.065 107.227 142.073 107.255 142.074 107.284C142.074 107.313 142.067 107.341 142.053 107.365C142.039 107.389 142.019 107.407 141.996 107.417C141.973 107.427 141.947 107.428 141.923 107.42Z" fill="#263238"/>
<path d="M143.482 107.484C141.742 106.645 140.002 104.924 139.536 102.74C139.536 102.653 139.623 102.625 139.662 102.68C140.833 104.369 142.156 105.907 143.608 107.269C143.623 107.292 143.632 107.319 143.632 107.348C143.633 107.377 143.626 107.405 143.612 107.429C143.598 107.453 143.578 107.471 143.555 107.481C143.531 107.491 143.506 107.492 143.482 107.484Z" fill="#263238"/>
<path d="M145.041 107.553C143.304 106.709 141.564 104.992 141.095 102.804C141.075 102.721 141.177 102.694 141.221 102.749C142.392 104.438 143.714 105.976 145.167 107.337C145.182 107.36 145.19 107.388 145.191 107.417C145.192 107.446 145.184 107.474 145.17 107.498C145.156 107.522 145.136 107.54 145.113 107.55C145.09 107.56 145.065 107.561 145.041 107.553Z" fill="#263238"/>
<path d="M142.488 109.788C141.947 107.952 140.751 106.47 139.781 104.947C139.757 104.915 139.726 104.89 139.693 104.874C139.659 104.858 139.622 104.852 139.586 104.856C139.55 104.86 139.515 104.874 139.484 104.897C139.453 104.92 139.428 104.951 139.41 104.988C139.403 104.983 139.396 104.981 139.388 104.98C139.38 104.979 139.373 104.981 139.366 104.985C139.359 104.988 139.353 104.994 139.348 105.001C139.343 105.008 139.34 105.016 139.339 105.025C138.91 106.977 138.932 109.027 139.402 110.967C139.69 112.096 140.586 113.394 141.738 112.885C142.819 112.399 142.787 110.852 142.488 109.788ZM142.065 111.54C141.225 113.725 139.986 111.297 139.796 110.458C139.685 109.912 139.604 109.359 139.556 108.801C139.441 107.645 139.469 106.507 139.453 105.327C139.891 106.112 140.38 106.846 140.842 107.622C141.383 108.517 142.515 110.334 142.053 111.54H142.065Z" fill="#263238"/>
<path d="M132.622 103.85C132.362 105.259 133.605 106.08 134.595 106.241C136.315 106.484 138.06 106.196 139.654 105.405C139.662 105.402 139.669 105.397 139.674 105.39C139.68 105.384 139.684 105.375 139.686 105.367C139.688 105.358 139.689 105.348 139.687 105.339C139.686 105.33 139.683 105.321 139.678 105.314C139.705 105.286 139.727 105.252 139.741 105.213C139.755 105.175 139.761 105.133 139.758 105.091C139.756 105.049 139.746 105.009 139.727 104.973C139.709 104.936 139.684 104.905 139.654 104.882C138.21 104.001 136.758 102.854 135.124 102.515C134.169 102.299 132.847 102.501 132.622 103.85ZM137.239 104.07C137.961 104.483 138.66 104.933 139.39 105.318C138.403 105.479 137.417 105.685 136.426 105.731C135.944 105.76 135.46 105.753 134.978 105.708C134.24 105.621 131.987 104.566 133.715 103.267C134.651 102.533 136.367 103.561 137.223 104.052L137.239 104.07Z" fill="#263238"/>
<path d="M96.6499 91.7319L114.265 95.2329C114.265 95.2329 117.485 101.546 117.817 105.621C118.148 109.695 105.899 125.443 105.899 125.443L120.938 100.707L138.076 113.458C138.076 113.458 117.102 138.891 103.177 147.531C97.9521 150.775 90.5848 145.746 90.1547 137.799C89.6969 129.439 98.0073 105.96 98.0073 105.96L96.6499 91.7319Z" fill="#37474F"/>
<path d="M120.389 101.097C116.104 109.218 111.68 117.234 106.882 124.956C106.215 126.03 105.548 127.099 104.87 128.168C104.191 129.237 103.512 130.435 102.747 131.481C102.707 131.532 102.782 131.6 102.818 131.545C103.425 130.554 104.124 129.641 104.767 128.682C105.41 127.723 106.022 126.801 106.637 125.847L107.427 124.608L107.316 124.938C107.139 125.434 106.965 125.929 106.799 126.434C106.46 127.466 106.223 128.563 105.817 129.563C105.789 129.623 105.876 129.664 105.896 129.604C106.235 128.568 106.728 127.604 107.103 126.585C107.282 126.09 107.452 125.59 107.612 125.085C107.775 124.639 107.907 124.179 108.007 123.708C108.776 122.488 109.542 121.267 110.295 120.038C112.663 116.147 114.924 112.17 117.079 108.108C118.282 105.846 119.446 103.556 120.567 101.225C120.614 101.097 120.437 100.95 120.389 101.097Z" fill="#263238"/>
<path d="M127.887 109.356C125.346 107.553 122.737 105.887 120.184 104.112C120.137 104.079 120.082 104.157 120.133 104.194C122.639 106.03 125.089 107.98 127.631 109.774C130.172 111.568 132.76 113.257 135.345 114.991C135.412 115.037 135.483 114.927 135.416 114.876C132.895 113.05 130.416 111.16 127.887 109.356Z" fill="#263238"/>
<path d="M97.9916 105.961C96.8748 108.457 93.7101 118.271 92.9011 120.923C92.0922 123.575 91.3898 126.228 90.8097 128.935C90.5177 130.311 90.273 131.688 90.0639 133.064C89.8473 134.386 89.7324 135.729 89.7206 137.074C89.7109 139.498 90.3969 141.855 91.67 143.774C92.347 144.791 93.166 145.668 94.0928 146.371C95.0321 147.04 96.0467 147.554 97.1076 147.898C97.1471 147.898 97.1629 147.83 97.1076 147.82C96.1208 147.518 95.1971 146.986 94.3927 146.256C93.2007 145.256 92.2146 143.96 91.5055 142.463C90.7965 140.965 90.3823 139.304 90.2928 137.598C90.1823 134.941 90.715 132.248 91.2122 129.673C91.7315 127.017 92.365 124.392 93.1103 121.809C93.5286 120.359 93.9745 118.918 94.4362 117.487C94.8978 116.055 97.6917 107.498 98.1139 106.043C98.1213 106.025 98.1225 106.003 98.1172 105.984C98.1119 105.964 98.1004 105.948 98.0851 105.937C98.0698 105.927 98.0517 105.924 98.0344 105.928C98.0171 105.932 98.0018 105.944 97.9916 105.961Z" fill="#263238"/>
<path d="M102.482 107.14C101.154 106.539 99.7682 106.127 98.3547 105.915C96.9755 105.66 95.5859 105.487 94.1916 105.396C94.1521 105.396 94.1521 105.465 94.1916 105.474C95.6042 105.699 97.0091 105.998 98.402 106.337C99.795 106.677 101.101 107.103 102.466 107.31C102.545 107.324 102.549 107.172 102.482 107.14Z" fill="#263238"/>
<path d="M114.447 104.461C113.425 104.574 112.398 104.609 111.373 104.566C110.524 104.543 109.652 104.52 108.895 104.011C107.419 103.02 106.653 101.024 106.172 99.2066C106.172 99.1653 106.097 99.2066 106.109 99.2295C106.547 101.216 106.866 103.52 108.532 104.662C109.358 105.165 110.296 105.366 111.223 105.241C112.319 105.136 113.403 104.904 114.459 104.548C114.466 104.544 114.473 104.536 114.477 104.528C114.481 104.519 114.482 104.509 114.481 104.499C114.48 104.489 114.476 104.48 114.469 104.473C114.463 104.466 114.455 104.462 114.447 104.461Z" fill="#263238"/>
<path d="M116.491 105.341C116.206 104.206 115.851 103.095 115.429 102.019C115.011 100.909 114.555 99.8196 114.06 98.7521C113.5 97.5407 112.876 96.3615 112.261 95.1961C112.256 95.1876 112.249 95.1814 112.24 95.1787C112.232 95.176 112.223 95.1771 112.215 95.1816C112.207 95.1861 112.201 95.1939 112.198 95.2033C112.195 95.2128 112.194 95.2233 112.197 95.2328C113.152 97.2241 114.052 99.2568 114.865 101.335C115.267 102.363 115.646 103.405 116.001 104.46C116.392 105.467 116.568 106.569 116.514 107.672C116.419 108.794 116.038 109.858 115.421 110.728C115.421 110.728 115.421 110.751 115.421 110.728C115.968 110.002 116.351 109.13 116.538 108.19C116.724 107.251 116.708 106.272 116.491 105.341Z" fill="#263238"/>
<path d="M120.962 106.603C120.074 107.773 119.265 109.03 118.44 110.274C117.615 111.517 116.783 112.733 115.962 113.967C114.32 116.44 112.703 118.937 111.085 121.428C110.165 122.846 109.273 124.287 108.378 125.718C108.35 125.759 108.401 125.81 108.429 125.769C111.799 120.905 115.087 115.968 118.294 110.957C119.206 109.535 120.157 108.136 120.997 106.658C121.013 106.631 120.981 106.603 120.962 106.603Z" fill="#263238"/>
<path d="M96.9261 94.5264C96.9696 95.8204 97.1156 99.7436 97.1984 101.038C97.2339 101.63 97.2694 102.235 97.3523 102.823C97.4233 103.318 97.5615 103.896 97.9995 104.112C98.5046 104.36 98.7492 103.873 98.7887 103.359C98.8275 102.778 98.8406 102.194 98.8281 101.611C98.8281 100.946 98.7058 94.8568 98.7058 94.8384C98.7058 94.8201 98.7058 94.7788 98.7492 94.7558C98.7557 94.749 98.7642 94.7453 98.7729 94.7453C98.7816 94.7453 98.7901 94.749 98.7966 94.7558C98.8873 94.8476 99.1912 100.23 99.1912 100.854C99.1912 101.478 99.2307 102.102 99.2464 102.726C99.2996 103.192 99.2493 103.666 99.1004 104.103C99.015 104.309 98.874 104.478 98.6989 104.583C98.5238 104.688 98.324 104.724 98.1297 104.686C98.1297 104.731 98.1534 104.773 98.1613 104.819C98.1849 104.952 98.1968 105.089 98.2126 105.222C98.2283 105.356 98.2441 105.498 98.252 105.635C98.256 105.701 98.256 105.767 98.252 105.833C98.252 105.906 98.2205 105.97 98.2165 106.044C98.2126 106.117 98.0666 106.195 98.0389 106.076C98.0113 105.957 97.9916 105.947 97.9719 105.879C97.953 105.805 97.9398 105.73 97.9324 105.654C97.9324 105.521 97.9127 105.392 97.9048 105.259C97.8969 105.126 97.9048 104.993 97.9048 104.865C97.9074 104.786 97.914 104.708 97.9245 104.631C97.7084 104.554 97.5146 104.409 97.3642 104.213C97.1173 103.844 96.9679 103.399 96.934 102.933C96.8669 102.382 96.8393 101.822 96.8078 101.267C96.7367 99.8905 96.5789 95.88 96.717 94.508C96.7191 94.4758 96.7321 94.4458 96.7532 94.4247C96.7743 94.4037 96.8017 94.3932 96.8295 94.3956C96.8572 94.398 96.883 94.4132 96.9011 94.4377C96.9192 94.4622 96.9282 94.4941 96.9261 94.5264Z" fill="#263238"/>
<path d="M111.759 47.5371C110.106 46.3946 106.152 45.5641 103.473 50.1937C99.6529 56.7689 104.29 70.6441 105.41 72.6446C105.41 72.6446 114.486 73.8468 121.013 66.8725C121.013 66.8725 115.054 58.2463 114.755 53.1073C114.69 51.9633 114.383 50.8556 113.86 49.8835C113.338 48.9114 112.616 48.1052 111.759 47.5371Z" fill="#263238"/>
<path d="M116.554 58.3059C116.593 58.3793 116.633 58.4528 116.676 58.5262C117.217 59.4425 117.828 60.2996 118.503 61.0865C119.134 61.8593 119.857 62.5223 120.65 63.0549C120.65 63.0549 120.693 63.032 120.65 63.0182C119.862 62.4307 119.164 61.6958 118.582 60.8433C117.987 60.0479 117.433 59.2113 116.925 58.338C115.885 56.5646 115.043 54.6451 114.419 52.6255C114.419 52.5842 114.344 52.6255 114.356 52.6255C114.423 52.9146 114.494 53.2037 114.573 53.4881C114.568 53.4872 114.562 53.4877 114.557 53.4898C114.552 53.4918 114.548 53.4953 114.544 53.4998C114.541 53.5044 114.538 53.5099 114.537 53.5159C114.536 53.5219 114.536 53.5281 114.537 53.534C115.028 55.4445 115.689 57.2899 116.511 59.0401C117.378 60.7294 118.44 62.2732 119.667 63.6284C120.353 64.4014 121.079 65.1247 121.842 65.7942C121.842 65.7942 121.865 65.7941 121.842 65.7712C119.719 63.6599 117.929 61.1335 116.554 58.3059Z" fill="#263238"/>
<path d="M104.834 48.9683C101.117 53.1392 101.018 59.4711 102.072 64.8028C102.381 66.4479 102.827 68.0539 103.406 69.5976C103.406 69.6037 103.408 69.6096 103.411 69.6139C103.415 69.6182 103.42 69.6206 103.425 69.6206C103.431 69.6206 103.436 69.6182 103.439 69.6139C103.443 69.6096 103.445 69.6037 103.445 69.5976C102.596 66.8562 102.094 63.9861 101.953 61.077C101.831 58.3515 101.934 55.47 102.794 52.8639C103.245 51.4327 103.958 50.133 104.885 49.0555C104.913 49.0004 104.866 48.9316 104.834 48.9683Z" fill="#263238"/>
<path d="M104.116 95.0909C104.305 95.3799 120.535 96.7427 121.317 96.5087C121.355 96.4955 121.392 96.4786 121.427 96.4582C122.394 95.9673 126.952 91.3743 127.279 90.9889C127.911 90.2731 123.511 77.9258 119.845 70.5385C118.622 68.0746 116.641 65.9501 116.076 65.2848C115.512 64.6195 105.422 64.0276 103.615 64.9269C102.826 65.3078 100.904 67.4781 100.852 67.8773C100.785 68.46 103.93 94.7926 104.116 95.0909Z" fill="#455A64"/>
<path d="M104.116 95.0907C104.305 95.3798 120.535 96.7425 121.317 96.5085C121.355 96.4954 121.392 96.4785 121.427 96.458C119.983 91.5118 113.2 68.3038 112.995 68.1524C112.789 68.001 103.157 67.7578 100.845 67.8817C100.785 68.4598 103.93 94.7925 104.116 95.0907Z" fill="#263238"/>
<path d="M110.769 66.0511C110.935 65.8768 111.104 63.298 110.816 62.7932C110.528 62.2885 106.622 62.3711 106.385 62.8529C106.148 63.3347 105.99 65.8951 106.089 65.9915C106.188 66.0878 106.847 66.198 106.937 66.0374C107.028 65.8768 107.072 63.7431 107.143 63.6421C107.214 63.5412 109.925 63.4127 110.015 63.5779C110.106 63.7431 109.826 65.8722 109.932 65.9777C110.039 66.0833 110.607 66.2255 110.769 66.0511Z" fill="#37474F"/>
<path d="M104.416 64.7295C104.175 56.6219 103.5 50.0192 102.387 40.0028C101.803 34.7858 100.6 26.2606 100.316 24.0123C99.9212 21.0483 87.9725 26.1092 88.4184 28.1006C88.7104 29.3991 90.1941 37.2773 92.1869 43.3156C94.7479 51.0608 96.2671 57.8195 99.2898 65.9913C101.575 72.1581 104.578 70.0979 104.416 64.7295Z" fill="#FFC4C0"/>
<path d="M89.8351 32.1843C87.9962 30.1562 83.2806 21.5668 82.6769 19.6351C82.0731 17.7034 80.6841 11.9954 81.9113 11.3072C83.1386 10.6189 83.6555 12.2524 83.6555 12.2524C83.6555 12.2524 83.3398 9.49937 84.6854 9.1736C85.7587 8.91206 86.5993 11.1649 86.5993 11.1649C86.5993 11.1649 86.3862 8.12745 87.7594 8.00356C89.0064 7.88885 89.3852 10.5822 89.3852 10.5822C89.3852 10.5822 89.4286 8.02192 90.6519 8.17792C92.1198 8.37063 92.0448 12.803 92.8498 14.8769C93.0314 15.3358 99.3411 25.2375 99.3411 25.2375L89.8351 32.1843Z" fill="#FFC4C0"/>
<path d="M89.472 10.4905C89.7087 13.8172 89.8903 15.1892 91.3227 17.9332C91.3503 17.9837 91.2872 18.0434 91.2556 17.9929C89.6417 15.4554 89.326 13.8631 89.3378 10.4813C89.3378 10.3161 89.4641 10.3345 89.472 10.4905Z" fill="#263238"/>
<path d="M86.6269 11.1649C86.8282 14.5605 87.3727 16.0655 88.6907 19.0665C88.7104 19.1078 88.6473 19.1491 88.6276 19.1078C87.1202 16.2904 86.3507 14.5696 86.5283 11.1465C86.5362 11.0043 86.6151 11.0226 86.6269 11.1649Z" fill="#263238"/>
<path d="M83.7225 12.4037C84.1171 15.6708 84.5985 17.4099 86.2006 20.1355C86.2048 20.1418 86.2078 20.149 86.2096 20.1567C86.2113 20.1644 86.2118 20.1724 86.2108 20.1803C86.2099 20.1882 86.2077 20.1958 86.2042 20.2027C86.2008 20.2096 86.1962 20.2156 86.1908 20.2204C86.1853 20.2252 86.1791 20.2287 86.1725 20.2308C86.1659 20.2328 86.159 20.2333 86.1522 20.2322C86.1455 20.2312 86.1389 20.2286 86.133 20.2246C86.1271 20.2206 86.1219 20.2152 86.1178 20.2089C84.2513 17.6163 83.6475 15.4505 83.6396 12.4083C83.6396 12.2201 83.6909 12.1972 83.7225 12.4037Z" fill="#263238"/>
<path d="M100.596 26.9902C100.596 26.9902 101.156 22.4247 98.3192 19.2909C97.1709 18.0245 96.9262 12.4083 95.6398 11.9082C94.1916 11.3438 93.7023 16.0836 94.602 19.1854C94.602 19.1854 90.8335 22.3146 91.5753 25.3475C91.7371 26.0037 93.6352 28.7429 94.2942 28.8898L100.596 26.9902Z" fill="#FFC4C0"/>
<path d="M94.598 19.5433C93.0946 20.6996 91.5753 22.8287 91.6187 24.9165C91.616 24.9268 91.6105 24.9358 91.603 24.9421C91.5955 24.9485 91.5865 24.952 91.5773 24.952C91.568 24.952 91.559 24.9485 91.5516 24.9421C91.5441 24.9358 91.5386 24.9268 91.5359 24.9165C91.2281 22.6819 92.9643 20.1948 94.3612 19.2588C94.6296 19.0936 94.9847 19.2404 94.598 19.5433Z" fill="#263238"/>
<path opacity="0.1" d="M104.428 65.1563L97.301 27.9905L97.1076 26.8847L96.4486 23.4297L95.6634 19.424L94.448 13.0875C94.7005 12.1974 95.103 11.6835 95.6318 11.8899C96.9182 12.3947 97.1629 18.0062 98.3112 19.2726C100.521 21.7136 100.679 25.0264 100.624 26.3662C101.105 29.9268 101.926 35.9468 102.38 39.9845C103.492 50.0009 104.167 56.6036 104.412 64.7112C104.424 64.8718 104.428 65.0141 104.428 65.1563Z" fill="#1A1D3E"/>
<path d="M95.4819 57.6039L104.404 51.4233C104.404 51.4233 105.031 64.6883 104.27 68.6481C103.413 73.108 101.638 71.6213 99.6134 67.9736C97.5891 64.3258 95.4819 57.6039 95.4819 57.6039Z" fill="#1355FF"/>
<path d="M100.635 60.7194C100.403 60.1229 100.004 58.939 99.2425 59.251C98.6506 59.4896 98.6427 60.3752 98.6901 60.9672C98.7689 61.9199 99.0843 62.8254 99.5976 63.5735C99.8068 63.8901 100.15 64.2893 100.47 64.2664C100.785 64.3123 101.002 64.0232 101.081 63.5689C101.198 62.5881 101.042 61.5897 100.635 60.7194ZM103.098 58.4664C102.735 58.4251 102.226 59.2281 102.218 60.4808C102.218 61.8574 102.66 62.5732 102.975 62.5319C103.599 62.4447 103.792 61.3159 103.796 60.4395C103.816 59.7741 103.536 58.5306 103.098 58.4801V58.4664Z" fill="#263238"/>
<path d="M96.7565 59.265C97.9837 58.6547 101.448 56.2273 102.021 55.8327C102.324 55.6262 103.504 54.7314 103.808 54.5295C103.848 54.502 103.808 54.4377 103.769 54.4607C103.189 54.8553 102.585 55.1765 101.985 55.5619C101.385 55.9474 97.8022 58.2692 96.7328 59.2328C96.7322 59.2368 96.7324 59.2409 96.7333 59.2448C96.7342 59.2487 96.7359 59.2523 96.7382 59.2553C96.7404 59.2584 96.7432 59.2609 96.7464 59.2625C96.7496 59.2642 96.753 59.265 96.7565 59.265Z" fill="#263238"/>
<path opacity="0.1" d="M104.605 64.5781C104.59 65.9433 104.478 67.3046 104.27 68.6482C103.413 73.1038 101.642 71.6217 99.6134 67.9783C99.3333 67.4735 99.057 66.9091 98.7769 66.3172L104.605 64.5781Z" fill="#1A1D3E"/>
<path d="M118.061 105.006C117.982 105.07 91.7726 101.739 91.5911 101.335C91.4964 101.134 96.6697 71.0018 104.44 63.7613C105.888 62.4123 109.613 63.2199 111.022 65.2296C115.197 71.1991 118.342 104.768 118.061 105.006Z" fill="#EBEBEB"/>
<path d="M104.684 63.4724C102.143 68.1204 98.1258 81.7341 97.5339 87.2585C97.2695 89.7087 97.2221 108.861 97.2221 108.861L90.3994 104.107C90.3994 104.107 93.6549 86.6712 95.5016 80.7522C97.3484 74.8332 102.103 66.3172 103.082 65.037C104.136 63.633 104.684 63.4724 104.684 63.4724Z" fill="#1355FF"/>
<path d="M109.648 63.7063C109.648 63.7063 110.931 64.3991 111.988 66.5282C113.046 68.6572 116.625 86.0838 118.081 88.5523C119.537 91.0209 124.853 89.1672 124.853 89.1672C124.84 90.4059 124.972 91.6409 125.247 92.8379C125.669 94.2648 117.848 109.356 117.387 109.356C116.925 109.356 109.187 98.3898 108.457 93.0765C107.727 87.7631 108.946 70.6485 109.088 68.5195C109.23 66.3905 109.648 63.7063 109.648 63.7063Z" fill="#1355FF"/>
<path d="M96.9458 92.5214C96.5594 93.1549 96.2992 93.8807 96.1842 94.6458C96.129 95.0679 96.1211 95.7149 96.5788 95.7745C96.7185 95.7709 96.8556 95.7306 96.9799 95.6567C97.1043 95.5828 97.2127 95.4772 97.297 95.3478C97.297 94.1227 97.3286 92.9435 97.3483 91.8836C97.1851 92.0692 97.0491 92.2846 96.9458 92.5214ZM94.4401 94.5862C94.369 94.0355 94.1126 93.4115 93.5483 93.6685C92.984 93.9254 92.7354 94.9441 92.6683 95.6231C92.599 96.177 92.6137 96.7407 92.7117 97.2887C92.7443 97.5884 92.8608 97.8674 93.0432 98.0825C93.5719 98.5918 93.864 97.6787 94.0297 97.2291C94.3761 96.41 94.5182 95.4944 94.4401 94.5862ZM117.627 105.745C117.656 104.83 117.465 103.925 117.075 103.13C116.81 102.671 116.361 102.212 115.938 102.726C115.516 103.24 115.642 104.277 115.82 104.938C115.953 105.473 116.163 105.977 116.443 106.429C116.579 106.688 116.784 106.888 117.027 106.998C117.663 107.209 117.627 106.236 117.627 105.745ZM96.713 88.9012C96.3539 88.7176 96.054 88.9746 95.833 89.36C95.557 89.8196 95.3637 90.3393 95.2648 90.8879C95.2135 91.2137 95.1227 91.8056 95.395 92.0442C95.6673 92.2828 96.0146 92.0075 96.1842 91.7597C96.5157 91.3146 97.4786 89.3233 96.6893 88.9012H96.713ZM92.692 100.202C92.471 99.6471 92.1119 98.578 91.449 98.6927C91.2438 99.7205 91.0543 100.647 90.9162 101.446C91.073 102.036 91.3218 102.589 91.6502 103.075C91.8633 103.382 92.2066 103.786 92.5262 103.767C92.8459 103.749 93.0589 103.524 93.1379 103.07C93.2475 102.08 93.083 101.076 92.6683 100.202H92.692ZM95.1543 97.9494C94.7913 97.9081 94.2822 98.7157 94.2743 99.9683C94.2743 101.345 94.7163 102.061 95.032 102.019C95.6555 101.928 95.8488 100.803 95.8528 99.927C95.837 99.2617 95.5687 98.0045 95.1346 97.9494H95.1543ZM95.6831 83.8081C95.2885 83.9366 95.1385 84.4137 95.107 84.9185C95.0694 85.2948 95.0827 85.6756 95.1464 86.0472C95.1938 86.2904 95.3161 86.5978 95.5765 86.506C95.837 86.4143 95.9948 85.9141 96.054 85.6388C96.1053 85.2901 96.421 83.5465 95.6594 83.8081H95.6831ZM118.874 100.67C118.48 100.799 118.334 101.276 118.302 101.785C118.265 102.162 118.278 102.542 118.341 102.914C118.385 103.153 118.507 103.465 118.768 103.373C119.028 103.281 119.19 102.786 119.245 102.51C119.296 102.152 119.6 100.409 118.85 100.67H118.874ZM114.364 75.1865C114.032 75.7275 113.828 76.3604 113.772 77.0219C113.638 77.5862 113.646 78.1231 114.095 78.1736C114.403 78.2103 114.715 77.7744 114.924 77.4669C114.711 76.6961 114.526 75.9344 114.34 75.1865H114.364ZM116.566 83.9044C116.284 84.173 116.032 84.4812 115.816 84.8221C115.595 85.1616 115.338 85.7398 115.737 86.038C116.136 86.3363 116.688 86.0059 117.083 85.7581C116.893 85.1984 116.72 84.5789 116.542 83.9182L116.566 83.9044ZM113.859 82.5279C113.196 82.4637 112.628 83.2299 112.28 83.7943C112.003 84.25 111.795 84.7575 111.665 85.2947C111.575 85.5779 111.568 85.8874 111.645 86.1757C111.909 86.9052 112.533 86.2583 112.86 85.9463C113.493 85.4017 113.982 84.6628 114.273 83.8127C114.419 83.2942 114.443 82.6059 113.835 82.5417L113.859 82.5279ZM109.834 85.7948C109.214 85.6939 108.859 86.4693 108.65 87.0291C108.349 87.9153 108.269 88.8824 108.421 89.8188C108.488 90.2134 108.63 90.7365 108.922 90.9109C109.214 91.0852 109.49 90.9751 109.743 90.6126C110.233 89.8088 110.49 88.8446 110.477 87.8596C110.493 87.2035 110.607 85.9554 109.81 85.8086L109.834 85.7948ZM113.567 87.1713C113.263 86.9373 112.493 87.3778 111.988 88.4928C111.444 89.6858 111.55 90.5805 111.85 90.709C112.442 90.9705 113.034 90.0712 113.409 89.3003C113.657 88.7084 113.914 87.4604 113.543 87.1805L113.567 87.1713ZM115.816 92.3562C115.331 92.4342 115.066 92.9756 114.952 93.5813C114.848 94.0295 114.807 94.4943 114.829 94.9578C114.829 95.2561 114.952 95.6507 115.279 95.6002C115.607 95.5497 115.875 94.9716 115.99 94.6504C116.112 94.242 116.755 92.2002 115.792 92.3791L115.816 92.3562Z" fill="#263238"/>
<path d="M110.97 63.6237C114.948 56.3511 118.176 51.125 123.834 42.6594C126.782 38.25 130.48 32.9825 131.786 31.1059C133.506 28.6282 142.109 40.7415 140.779 42.2969C139.911 43.3018 137.058 46.5458 132.098 51.6847C126.431 57.5349 121.644 62.3986 115.09 67.9826C110.13 72.1902 108.342 68.4323 110.97 63.6237Z" fill="#FFC4C0"/>
<path d="M138.005 44.5041C140.625 43.7975 148.92 38.8925 150.364 37.5022C151.808 36.1119 155.727 31.7622 154.926 30.3627C154.124 28.9633 152.889 30.1333 152.889 30.1333C152.889 30.1333 154.468 27.8391 153.375 26.6737C152.511 25.756 150.699 27.2977 150.699 27.2977C150.699 27.2977 152.301 24.6502 151.094 23.6775C150.005 22.7873 148.411 25.0173 148.411 25.0173C148.411 25.0173 149.555 22.6451 148.367 22.0256C146.943 21.2594 144.958 25.3889 143.277 26.7654C142.882 27.082 132.539 32.1797 132.539 32.1797L138.005 44.5041Z" fill="#FFC4C0"/>
<path d="M148.383 24.8794C146.627 27.7749 145.83 28.9174 143.253 30.528C143.202 30.5601 143.233 30.6565 143.289 30.629C145.94 29.3166 146.97 28.041 148.521 24.9529C148.588 24.806 148.466 24.7464 148.383 24.8794Z" fill="#263238"/>
<path d="M150.672 27.2884C148.916 30.2664 147.724 31.3034 145.123 33.2215C145.088 33.249 145.124 33.327 145.163 33.2995C147.846 31.6659 149.35 30.5738 150.766 27.3343C150.833 27.1874 150.774 27.1553 150.672 27.2884Z" fill="#263238"/>
<path d="M152.747 30.2295C150.869 32.9826 149.626 34.2628 146.899 35.7358C146.887 35.743 146.878 35.7552 146.873 35.77C146.868 35.7849 146.868 35.8013 146.873 35.8162C146.877 35.831 146.887 35.8432 146.899 35.8504C146.911 35.8576 146.925 35.8593 146.939 35.8551C149.847 34.6529 151.406 33.0515 152.814 30.2937C152.921 30.1193 152.878 30.0597 152.747 30.2295Z" fill="#263238"/>
<path d="M158.984 32.1637L144.657 9.34204L141.926 11.6606L156.253 34.4823L158.984 32.1637Z" fill="#1355FF"/>
<path d="M156.252 34.4801L141.924 11.6589L130.508 21.3496L144.835 44.1708L156.252 34.4801Z" fill="#1355FF"/>
<path opacity="0.1" d="M156.252 34.4801L141.924 11.6589L130.508 21.3496L144.835 44.1708L156.252 34.4801Z" fill="#1A1D3E"/>
<path d="M158.701 32.4044L144.373 9.58276L142.209 11.4198L156.537 34.2414L158.701 32.4044Z" fill="white"/>
<path d="M143.569 12.5415C148.012 19.3231 152.747 26.8939 156.966 33.8682C152.538 27.0729 147.787 19.4975 143.569 12.5415Z" fill="#DBDBDB"/>
<path d="M143.995 12.1653C148.407 18.9652 153.173 26.5361 157.392 33.5104C152.964 26.715 148.213 19.1396 143.995 12.1653Z" fill="#DBDBDB"/>
<path d="M144.417 11.8027C148.845 18.6027 153.6 26.1735 157.834 33.1478C153.406 26.3525 148.651 18.7771 144.417 11.8027Z" fill="#DBDBDB"/>
<path d="M144.855 11.4446C149.283 18.24 154.038 25.8154 158.252 32.7897C153.813 25.9897 149.062 18.4189 144.855 11.4446Z" fill="#DBDBDB"/>
<path d="M130.562 33.0102C130.562 33.0102 132.168 28.4815 136.213 27.394C137.851 26.9352 140.672 21.9706 142.085 22.3147C143.663 22.7047 141.927 27.3619 139.662 29.624C139.662 29.624 141.663 34.8455 139.579 37.1535C139.125 37.6536 136.122 38.9888 135.452 38.6952L130.562 33.0102Z" fill="#FFC4C0"/>
<path d="M139.504 29.9498C140.345 31.9504 140.743 34.8504 139.737 36.7364C139.734 36.7418 139.731 36.7479 139.73 36.7544C139.729 36.7609 139.728 36.7677 139.729 36.7743C139.73 36.7809 139.732 36.7872 139.735 36.7929C139.738 36.7986 139.742 36.8036 139.747 36.8075C139.752 36.8114 139.757 36.8142 139.762 36.8157C139.768 36.8173 139.774 36.8175 139.779 36.8165C139.785 36.8154 139.791 36.813 139.796 36.8095C139.8 36.806 139.805 36.8014 139.808 36.796C141.126 34.9606 140.688 31.5879 139.844 29.8534C139.682 29.5185 139.287 29.4359 139.504 29.9498Z" fill="#263238"/>
<path d="M121.775 63.1192L116.724 52.5659C116.724 52.5659 110.457 63.6744 109.408 67.547C108.224 71.9059 110.398 71.6535 113.729 69.6805C117.059 67.7075 121.775 63.1192 121.775 63.1192Z" fill="#1355FF"/>
<path d="M116.246 61.7428C115.887 61.5547 115.587 61.8117 115.366 62.2017C115.094 62.6622 114.901 63.1795 114.798 63.7251C114.747 64.0555 114.656 64.6429 114.932 64.8861C115.208 65.1292 115.548 64.8448 115.721 64.6016C116.073 64.1519 117.035 62.1604 116.246 61.7428ZM114.948 55.8052C114.356 56.8881 113.681 58.1637 113.006 59.4761C113.031 59.6286 113.082 59.7737 113.156 59.903C113.23 60.0323 113.325 60.143 113.437 60.2286C113.697 60.4351 114.005 60.2974 114.257 59.9349C114.883 58.6888 115.126 57.233 114.948 55.8052ZM118.069 56.4889C117.761 56.2595 116.996 56.7 116.491 57.8058C115.946 59.0034 116.053 59.8982 116.353 60.0267C116.941 60.2837 117.556 59.3889 117.911 58.618C118.184 58.0123 118.44 56.7734 118.069 56.4889Z" fill="#263238"/>
<path d="M119.955 63.8122C119.166 62.5687 117.193 58.4481 116.881 57.769C116.708 57.4111 116.073 55.9336 115.899 55.5986C115.875 55.5527 115.942 55.5206 115.962 55.5665C116.297 56.241 116.692 56.8788 117.031 57.5579C117.371 58.237 119.478 62.3393 119.999 63.7801C119.995 63.8122 119.971 63.8397 119.955 63.8122Z" fill="#263238"/>
<path d="M112.588 70.924C112.718 70.7726 112.852 70.6257 112.983 70.4651C112.225 70.9974 111.452 71.4884 110.658 71.9473C110.658 71.9473 110.627 71.9243 110.658 71.9106C111.483 71.2452 112.312 70.6028 113.164 69.9925C113.559 69.7034 114.163 69.2905 114.608 68.9509C114.66 68.9096 114.719 69.0014 114.668 69.0381C114.238 69.3593 113.835 69.8732 113.46 70.1439C113.373 70.2652 113.279 70.3802 113.18 70.4881C113.022 70.667 112.856 70.8414 112.687 71.002C112.343 71.3278 111.988 71.6398 111.641 71.9564C111.957 71.6306 112.276 71.2727 112.588 70.924Z" fill="#263238"/>
<path d="M105.02 62.9078C101.938 62.5178 95.7344 72.5434 94.1639 76.9849C93.3747 79.2378 93.8127 86.4461 93.9232 86.5287C94.0337 86.6113 94.3612 84.9366 94.519 84.3079C94.6769 83.6793 95.8883 78.9808 96.6736 76.7784C98.0468 72.9242 105.185 63.6144 105.3 63.4722C105.414 63.3299 105.304 62.9445 105.02 62.9078Z" fill="#455A64"/>
<path d="M104.68 69.1166C105.793 69.4975 108.654 67.74 110.003 65.9046C110.094 65.7807 110.189 64.2573 110.398 62.4126C110.516 61.2884 110.674 60.0449 110.887 58.9253L104.503 59.0813C104.582 60.5735 104.504 62.0714 104.27 63.5414C104.24 63.6993 104.197 63.8531 104.14 64.0003C104.138 64.0247 104.138 64.0493 104.14 64.0737C103.816 64.9364 102.94 68.5201 104.68 69.1166Z" fill="#FFC4C0"/>
<path d="M104.128 64.0188C104.116 64.0421 104.107 64.0667 104.1 64.0922C104.302 64.1771 104.509 64.2431 104.72 64.2895C108.18 65.0833 109.948 60.4167 110.41 58.9575L104.491 59.0998C104.571 60.5948 104.494 62.0956 104.262 63.5691C104.225 63.722 104.18 63.8721 104.128 64.0188Z" fill="#263238"/>
<path d="M114.076 50.6248C114.052 53.2952 111.029 59.9346 109.112 60.9578C106.33 62.4399 102.727 61.357 101.886 57.746C101.069 54.2221 105.142 45.651 107.198 44.8343C110.205 43.5954 114.076 46.6559 114.076 50.6248Z" fill="#FFC4C0"/>
<path d="M108.867 51.763C108.713 51.6115 108.599 51.4464 108.472 51.3041C108.31 51.1575 108.193 50.9527 108.141 50.7214C108.137 50.6455 108.154 50.5702 108.19 50.5071C108.227 50.4441 108.28 50.3968 108.342 50.3726C108.471 50.3454 108.603 50.3588 108.726 50.4112C108.849 50.4636 108.958 50.5533 109.041 50.6709C109.241 50.8799 109.367 51.1675 109.396 51.4785C109.398 51.5509 109.382 51.6224 109.349 51.6842C109.317 51.7459 109.269 51.7951 109.213 51.8255C109.156 51.8559 109.093 51.8662 109.032 51.8551C108.97 51.844 108.913 51.8119 108.867 51.763Z" fill="#263238"/>
<path d="M105.02 49.5604C105.205 49.6183 105.394 49.6628 105.584 49.6934C105.778 49.7714 105.989 49.7714 106.184 49.6934C106.241 49.6564 106.285 49.5985 106.311 49.5288C106.337 49.4591 106.342 49.3815 106.326 49.308C106.275 49.1674 106.194 49.045 106.089 48.9538C105.984 48.8626 105.86 48.8058 105.73 48.7895C105.466 48.7027 105.184 48.7355 104.941 48.8813C104.885 48.9169 104.839 48.9715 104.811 49.0377C104.782 49.104 104.771 49.1788 104.779 49.2523C104.788 49.3259 104.816 49.3947 104.858 49.4497C104.901 49.5047 104.957 49.5433 105.02 49.5604Z" fill="#263238"/>
<path d="M106.361 56.8832C106.228 56.9687 106.073 56.9979 105.923 56.9658C105.779 56.8785 105.652 56.7585 105.548 56.6128H105.521C105.541 56.7332 105.588 56.8454 105.657 56.938C105.726 57.0305 105.815 57.1002 105.915 57.1399C106.005 57.1606 106.098 57.1504 106.183 57.1105C106.268 57.0706 106.341 57.0027 106.393 56.9153C106.409 56.9062 106.381 56.8787 106.361 56.8832Z" fill="#263238"/>
<path d="M106.527 55.2915C106.351 55.4155 106.155 55.4959 105.952 55.5274C105.748 55.559 105.541 55.5412 105.343 55.475C105.171 55.4173 105.007 55.3341 104.854 55.2272C104.823 55.2085 104.794 55.187 104.767 55.163L104.688 55.0987C104.669 55.0819 104.656 55.0585 104.65 55.0321C104.643 55.0057 104.644 54.9776 104.653 54.9519L104.676 54.906V54.8647C104.814 54.5114 105.071 53.9975 105.071 53.9975C104.933 53.9975 104.25 53.9699 104.333 53.791C105.034 52.235 105.868 50.7653 106.823 49.4043C106.826 49.3992 106.829 49.3947 106.834 49.3913C106.838 49.3878 106.843 49.3854 106.848 49.3841C106.853 49.3828 106.858 49.3827 106.864 49.3838C106.869 49.3849 106.874 49.3872 106.878 49.3905C106.883 49.3938 106.886 49.3981 106.889 49.4031C106.892 49.4082 106.894 49.4138 106.895 49.4198C106.897 49.4257 106.897 49.4319 106.896 49.4379C106.895 49.4439 106.893 49.4496 106.89 49.4547C106.251 50.9002 105.398 52.2079 104.735 53.6396C104.98 53.6465 105.223 53.6928 105.458 53.7772C105.493 53.8139 104.952 54.7638 104.901 54.929C105.134 55.0977 105.394 55.2098 105.665 55.2587C105.937 55.3076 106.214 55.2922 106.48 55.2135C106.547 55.2135 106.578 55.2685 106.527 55.2915Z" fill="#263238"/>
<path d="M105.11 55.1489C105.174 55.4884 105.309 55.804 105.505 56.0666C105.616 56.2068 105.763 56.303 105.923 56.342C106.274 56.4246 106.424 56.0942 106.487 55.7776C106.519 55.6088 106.533 55.4363 106.531 55.2636C106.059 55.402 105.561 55.3618 105.11 55.1489Z" fill="#263238"/>
<path d="M105.501 56.0801C105.612 56.22 105.759 56.3162 105.919 56.3551C106.27 56.4376 106.42 56.1076 106.483 55.7913C106.316 55.7039 106.127 55.6848 105.949 55.7372C105.771 55.7897 105.613 55.9104 105.501 56.0801Z" fill="#FF9BBC"/>
<path d="M108.338 52.864C108.369 52.7319 108.369 52.5924 108.338 52.4602C108.316 52.3898 108.282 52.3254 108.238 52.2709C108.194 52.2165 108.141 52.1731 108.082 52.1436C108.018 52.1128 107.949 52.1005 107.88 52.1077C107.811 52.1149 107.745 52.1414 107.687 52.1849C107.59 52.2569 107.509 52.3543 107.45 52.4694C107.415 52.538 107.384 52.6102 107.36 52.6851C107.302 52.838 107.276 53.0047 107.285 53.1715C107.318 53.0571 107.363 52.9477 107.419 52.8457C107.466 52.7516 107.52 52.6625 107.581 52.5795C107.703 52.4098 107.857 52.295 107.975 52.3685C108.093 52.4419 108.176 52.6163 108.161 52.8273C108.142 53.0561 108.104 53.2821 108.046 53.5019C108.185 53.3189 108.285 53.1004 108.338 52.864Z" fill="#263238"/>
<path d="M104.566 50.5745C104.64 50.4696 104.737 50.389 104.846 50.3405C104.907 50.3157 104.972 50.3061 105.037 50.3124C105.101 50.3188 105.164 50.3408 105.221 50.3772C105.278 50.4165 105.326 50.4704 105.362 50.5349C105.399 50.5993 105.422 50.6725 105.43 50.7489C105.441 50.8829 105.425 51.0181 105.383 51.1435C105.358 51.2184 105.328 51.2906 105.292 51.3592C105.223 51.5058 105.126 51.6316 105.008 51.7263C105.112 51.5319 105.185 51.3174 105.225 51.093C105.264 50.8774 105.248 50.6617 105.118 50.5883C105.045 50.5492 104.962 50.5397 104.884 50.5613C104.805 50.5829 104.735 50.6344 104.684 50.7076C104.537 50.8656 104.405 51.0409 104.29 51.2307C104.335 50.9895 104.43 50.7644 104.566 50.5745Z" fill="#263238"/>
<path d="M111.744 56.3512C111.487 55.8923 111.625 53.4008 111.625 53.4008C111.625 53.4008 108.224 50.4184 108.729 46.2568C108.729 46.2568 106.334 48.037 104.605 48.0416C104.605 48.0416 105.647 43.9121 109.06 44.3985C109.06 44.3985 112.612 43.9901 114.51 48.4225C116.408 52.8548 112.706 56.7549 112.706 56.7549L111.744 56.3512Z" fill="#263238"/>
<path d="M109.009 45.5271C108.729 46.1596 108.601 46.8682 108.638 47.5782C108.649 48.2805 108.746 48.9774 108.926 49.6477C109.094 50.34 109.361 50.9946 109.715 51.5841C110.153 52.2237 110.67 52.7836 111.25 53.2452C111.25 53.2452 111.25 53.2956 111.227 53.2819C110.613 52.8222 110.054 52.2698 109.565 51.6392C109.173 51.0488 108.868 50.3867 108.662 49.6798C108.427 48.9789 108.321 48.2287 108.35 47.4773C108.41 46.768 108.615 46.0854 108.946 45.4858C108.966 45.4399 109.033 45.4812 109.009 45.5271Z" fill="#263238"/>
<path d="M108.366 43.5542C109.116 43.2009 110.864 42.5722 112.272 42.82C113.681 43.0678 115.429 44.27 116.037 44.6555C116.534 44.9767 118.282 45.5732 119.506 46.7433C119.854 47.1377 120.104 47.6339 120.231 48.1797C120.357 48.7255 120.355 49.3008 120.224 49.8452C119.857 50.9373 117.963 49.8452 117.801 50.2582C117.694 50.5381 117.801 52.0569 117.087 52.603C116.372 53.149 116.412 53.0618 116.005 53.3417C115.015 54.0621 114.822 48.4962 113.326 46.6836C111.83 44.8711 108.366 43.5542 108.366 43.5542Z" fill="#1355FF"/>
<path opacity="0.1" d="M108.496 43.6644C108.496 43.6644 111.838 44.8758 113.326 46.6883C114.814 48.5008 114.778 53.8006 115.773 53.0802C116.207 52.7636 116.428 52.2772 116.625 51.4558C116.459 49.9003 115.982 47.4775 114.912 45.7751C113.91 44.1783 112.15 43.3294 110.228 43.022C109.637 43.1804 109.057 43.3953 108.496 43.6644Z" fill="#1A1D3E"/>
<path d="M115.457 55.6446C114.754 53.8092 114.234 50.9782 112.991 48.762C111.748 46.5458 107.971 45.1555 107.438 45.1739C106.14 45.2198 105.84 45.9264 105.639 45.7841C105.438 45.6419 106.772 43.9809 107.143 43.7377C107.707 43.4314 108.323 43.2747 108.946 43.2789C109.506 43.311 112.963 43.8295 114.178 45.5731C115.394 47.3167 117.059 52.2124 116.704 53.433C116.617 53.7266 116.274 53.8918 116.155 54.3231C116.001 54.8691 115.883 55.5023 115.733 55.8831C115.607 56.2135 115.5 55.7547 115.457 55.6446Z" fill="#1355FF"/>
<path d="M112.718 47.7848C113.02 47.5841 113.307 47.3538 113.575 47.0965C113.85 46.8416 114.099 46.5505 114.316 46.2292C114.316 46.2292 114.364 46.2292 114.352 46.2292C114.176 46.6024 113.949 46.9401 113.681 47.2296C113.407 47.504 113.091 47.7171 112.75 47.8582C112.706 47.872 112.683 47.8077 112.718 47.7848Z" fill="#263238"/>
<path d="M115.473 54.8097C115.515 54.7099 115.562 54.6134 115.615 54.5207C115.664 54.41 115.704 54.2949 115.737 54.1765C115.766 53.9441 115.818 53.7162 115.891 53.4974C115.974 53.3314 116.073 53.1773 116.187 53.0385C116.328 52.8867 116.419 52.6821 116.443 52.4604C116.443 52.4282 116.487 52.4282 116.483 52.4604C116.419 52.8567 116.27 53.2278 116.049 53.5387C115.97 53.7752 115.909 54.0193 115.867 54.2683C115.811 54.4975 115.694 54.6999 115.532 54.8464C115.5 54.874 115.461 54.8419 115.473 54.8097Z" fill="#263238"/>
<path d="M115.09 53.268C115.212 53.1074 115.338 52.9697 115.445 52.8091C115.547 52.643 115.638 52.4681 115.717 52.286C115.8 52.1117 115.867 51.9281 115.946 51.7492C116.025 51.5702 116.155 51.3362 116.238 51.1205C116.238 51.093 116.282 51.1205 116.27 51.1481C116.187 51.3683 116.132 51.6069 116.053 51.8409C115.974 52.075 115.895 52.2264 115.808 52.4099C115.721 52.5851 115.621 52.7509 115.508 52.9055C115.4 53.0646 115.266 53.1972 115.114 53.2955C115.114 53.2955 115.082 53.2772 115.09 53.268Z" fill="#263238"/>
<path d="M114.238 50.5333C114.366 50.4342 114.478 50.31 114.569 50.1662C114.676 50.0102 114.782 49.8542 114.885 49.7073L115.181 49.2485C115.289 49.0991 115.367 48.9235 115.41 48.7345C115.411 48.7296 115.414 48.7255 115.418 48.7225C115.422 48.7196 115.427 48.718 115.431 48.718C115.436 48.718 115.44 48.7196 115.444 48.7225C115.448 48.7255 115.451 48.7296 115.453 48.7345C115.431 48.9261 115.379 49.1112 115.299 49.2806C115.215 49.4706 115.118 49.6518 115.007 49.822C114.9 49.9919 114.782 50.1529 114.656 50.3039C114.553 50.4476 114.416 50.5517 114.261 50.6021C114.226 50.5975 114.206 50.5516 114.238 50.5333Z" fill="#263238"/>
<path d="M113.93 48.8446C114.048 48.7207 114.163 48.5922 114.269 48.4592C114.376 48.3261 114.478 48.1839 114.577 48.0416C114.676 47.8994 114.786 47.7434 114.881 47.5828C114.879 47.5793 114.879 47.5754 114.879 47.5715C114.879 47.5676 114.88 47.5639 114.882 47.5606C114.884 47.5573 114.886 47.5546 114.889 47.5527C114.892 47.5508 114.895 47.5498 114.898 47.5498C114.902 47.5498 114.905 47.5508 114.908 47.5527C114.911 47.5546 114.913 47.5573 114.915 47.5606C114.917 47.5639 114.918 47.5676 114.918 47.5715C114.918 47.5754 114.918 47.5793 114.916 47.5828C114.849 47.7581 114.77 47.9269 114.679 48.0875C114.494 48.3966 114.276 48.6785 114.032 48.9272C113.92 49.0596 113.786 49.1642 113.638 49.2347C113.614 49.2347 113.59 49.2347 113.606 49.1888C113.704 49.0615 113.812 48.9462 113.93 48.8446Z" fill="#263238"/>
<path d="M111.807 46.9543C111.931 46.7828 112.063 46.6189 112.201 46.4634C112.341 46.3005 112.488 46.1473 112.643 46.0045C112.939 45.7272 113.26 45.4901 113.602 45.2979C113.622 45.2979 113.646 45.2979 113.63 45.3346C113.038 45.8852 112.446 46.4083 111.846 46.9681L111.807 46.9543Z" fill="#263238"/>
<path d="M111.1 45.7153C111.226 45.5444 111.368 45.3904 111.523 45.2565C111.855 45.0007 112.209 44.7869 112.58 44.6187C112.604 44.6187 112.624 44.6187 112.604 44.6599C112.28 44.894 111.957 45.1188 111.649 45.3712C111.495 45.4954 111.346 45.6286 111.203 45.7704C111.061 45.9172 110.954 46.0916 110.808 46.2293H110.781C110.859 46.0362 110.967 45.8619 111.1 45.7153Z" fill="#263238"/>
<path d="M110.102 45.1188C110.219 44.9496 110.351 44.7957 110.497 44.66C110.767 44.4101 111.071 44.2147 111.396 44.0818C111.42 44.0818 111.432 44.1139 111.396 44.1277C111.096 44.3237 110.811 44.5493 110.544 44.8022C110.41 44.9307 110.28 45.0683 110.149 45.2014C110.019 45.3345 109.909 45.5043 109.755 45.619C109.755 45.619 109.731 45.619 109.735 45.596C109.845 45.425 109.968 45.2653 110.102 45.1188Z" fill="#263238"/>
<path d="M109.388 44.3986C109.522 44.2854 109.653 44.1753 109.782 44.0682C109.913 43.9552 110.058 43.867 110.213 43.8066C110.236 43.8066 110.244 43.8342 110.213 43.8479C109.956 44.0728 109.707 44.3068 109.455 44.5271C109.238 44.7577 109.041 45.0128 108.867 45.2888C108.867 45.2888 108.843 45.2888 108.847 45.2888C108.946 44.9352 109.134 44.6248 109.388 44.3986Z" fill="#263238"/>
<path d="M108.484 44.1416C108.725 43.8946 109.005 43.7044 109.309 43.5818C109.329 43.5818 109.344 43.6139 109.309 43.6231C109.033 43.7855 108.779 43.9942 108.555 44.2425C108.329 44.4902 108.127 44.7655 107.951 45.0639C107.951 45.0639 107.92 45.0639 107.928 45.0639C108.048 44.7095 108.238 44.3933 108.484 44.1416Z" fill="#263238"/>
<path d="M107.273 44.7335C107.306 44.6605 107.343 44.59 107.383 44.5224C107.465 44.3855 107.559 44.2594 107.663 44.1461C107.88 43.9215 108.115 43.7231 108.366 43.5542C108.39 43.5542 108.409 43.5542 108.39 43.5955C108.148 43.7675 107.926 43.9724 107.727 44.2058C107.63 44.3206 107.54 44.4432 107.458 44.5729C107.416 44.6357 107.378 44.7016 107.344 44.7702C107.314 44.8402 107.279 44.9063 107.237 44.9675H107.206C107.214 44.885 107.237 44.8054 107.273 44.7335Z" fill="#263238"/>
<path d="M106.539 44.784C106.614 44.6784 106.689 44.5729 106.772 44.4765C106.853 44.3777 106.94 44.2857 107.032 44.2012C107.123 44.114 107.221 44.0314 107.312 43.9396C107.316 43.936 107.322 43.9344 107.327 43.9353C107.332 43.9361 107.337 43.9394 107.34 43.9442C107.343 43.9491 107.344 43.9552 107.344 43.9612C107.343 43.9673 107.34 43.9727 107.336 43.9764C107.242 44.0655 107.154 44.1621 107.071 44.2654L106.839 44.5545L106.602 44.8436C106.523 44.94 106.456 45.0547 106.369 45.1419H106.341C106.396 45.015 106.463 44.895 106.539 44.784Z" fill="#263238"/>
<path d="M111.199 55.8694C111.199 55.8694 113.219 54.1441 113.938 55.0526C114.656 55.9612 112.679 58.8474 111.511 58.8841C111.362 58.9018 111.211 58.8841 111.068 58.8321C110.925 58.7801 110.792 58.6949 110.678 58.5817C110.564 58.4684 110.471 58.3295 110.405 58.1733C110.338 58.0171 110.3 57.8468 110.291 57.6727L111.199 55.8694Z" fill="#FFC4C0"/>
<path d="M113.354 55.8647C113.373 55.8647 113.354 55.8968 113.354 55.8968C112.529 55.9519 111.917 56.5897 111.412 57.2734C111.479 57.2051 111.557 57.1544 111.642 57.1249C111.727 57.0955 111.817 57.0879 111.905 57.1027C111.993 57.1176 112.077 57.1545 112.151 57.2109C112.226 57.2673 112.288 57.3419 112.336 57.4294C112.336 57.4524 112.336 57.4799 112.304 57.4661C112.188 57.3724 112.05 57.3221 111.909 57.3221C111.768 57.3221 111.631 57.3724 111.515 57.4661C111.32 57.6236 111.138 57.8035 110.974 58.003C110.919 58.0672 110.816 57.98 110.864 57.902C111.167 56.8054 112.328 55.5802 113.354 55.8647Z" fill="#263238"/>
<path d="M110.41 64.133C108.224 66.6979 111.045 79.1874 113.046 83.3766C114.064 85.5102 117.955 88.5798 118.081 88.5339C118.207 88.488 118.405 86.0883 118.081 85.5515C117.757 85.0147 116.029 83.0508 115.039 80.9631C113.302 77.2924 110.986 64.445 110.974 64.2431C110.962 64.0412 110.607 63.899 110.41 64.133Z" fill="#455A64"/>
</g>
<defs>
<clipPath id="clip0_1_8433">
<rect width="220" height="159" fill="white"/>
</clipPath>
</defs>
</svg>
