<svg width="42" height="42" viewBox="0 0 42 42" fill="none" xmlns="http://www.w3.org/2000/svg">
<g clip-path="url(#clip0_1_4764)">
<path d="M20 27H22V25H20V27ZM21 11C15.48 11 11 15.48 11 21C11 26.52 15.48 31 21 31C26.52 31 31 26.52 31 21C31 15.48 26.52 11 21 11ZM21 29C16.59 29 13 25.41 13 21C13 16.59 16.59 13 21 13C25.41 13 29 16.59 29 21C29 25.41 25.41 29 21 29ZM21 15C18.79 15 17 16.79 17 19H19C19 17.9 19.9 17 21 17C22.1 17 23 17.9 23 19C23 21 20 20.75 20 24H22C22 21.75 25 21.5 25 19C25 16.79 23.21 15 21 15Z" fill="#768397"/>
</g>
<defs>
<clipPath id="clip0_1_4764">
<rect width="24" height="24" fill="white" transform="translate(9 9)"/>
</clipPath>
</defs>
</svg>
