<svg width="15" height="15" viewBox="0 0 15 15" fill="none" xmlns="http://www.w3.org/2000/svg">
<path fill-rule="evenodd" clip-rule="evenodd" d="M7.25375 1.30007C7.33156 1.26671 7.41534 1.24951 7.5 1.24951C7.58466 1.24951 7.66844 1.26671 7.74625 1.30007L11.7425 3.01319C11.9674 3.1096 12.1591 3.2699 12.2937 3.47422C12.4284 3.67853 12.5001 3.91787 12.5 4.16257V8.45007C12.4999 9.22127 12.296 9.97875 11.9089 10.6457C11.5218 11.3127 10.9652 11.8656 10.2956 12.2482L7.81 13.6682C7.71558 13.7221 7.60873 13.7505 7.5 13.7505C7.39127 13.7505 7.28442 13.7221 7.19 13.6682L4.70438 12.2482C4.0346 11.8655 3.47794 11.3124 3.09081 10.6452C2.70368 9.97797 2.49986 9.22023 2.5 8.44882V4.16257C2.50003 3.91798 2.57181 3.67877 2.70646 3.47458C2.8411 3.27039 3.0327 3.11019 3.2575 3.01382L7.25375 1.30132V1.30007ZM9.81687 6.69194C9.93072 6.57407 9.99372 6.41619 9.9923 6.25232C9.99087 6.08844 9.92514 5.93169 9.80926 5.81581C9.69338 5.69993 9.53662 5.6342 9.37275 5.63277C9.20888 5.63135 9.051 5.69434 8.93313 5.80819L6.875 7.86632L6.06687 7.05819C5.949 6.94434 5.79112 6.88135 5.62725 6.88277C5.46338 6.8842 5.30662 6.94993 5.19074 7.06581C5.07486 7.18169 5.00913 7.33844 5.0077 7.50232C5.00628 7.66619 5.06928 7.82407 5.18313 7.94194L6.43313 9.19194C6.55033 9.30911 6.70927 9.37493 6.875 9.37493C7.04073 9.37493 7.19967 9.30911 7.31687 9.19194L9.81687 6.69194Z" fill="#1355FF"/>
</svg>
