<svg width="343" height="345" viewBox="0 0 343 345" fill="none" xmlns="http://www.w3.org/2000/svg">
<path d="M330.722 242.564H182.317C179.663 242.564 177.504 240.397 177.504 237.734V20.8194C177.504 18.1561 179.663 15.9897 182.317 15.9897H330.722C333.376 15.9897 335.535 18.1561 335.535 20.8194V237.734C335.535 240.397 333.376 242.564 330.722 242.564ZM182.317 16.1957C179.777 16.1957 177.709 18.27 177.709 20.8194V237.734C177.709 240.284 179.777 242.358 182.317 242.358H330.722C333.263 242.358 335.33 240.284 335.33 237.734V20.8194C335.33 18.27 333.263 16.1957 330.722 16.1957H182.317Z" fill="#E0E0E0"/>
<path d="M159.588 242.564H11.1838C8.52976 242.564 6.37085 240.397 6.37085 237.734V20.8194C6.37085 18.1561 8.52976 15.9897 11.1838 15.9897H159.588C162.242 15.9897 164.402 18.1561 164.402 20.8194V237.734C164.402 240.397 162.242 242.564 159.588 242.564ZM11.1838 16.1957C8.64323 16.1957 6.57612 18.27 6.57612 20.8194V237.734C6.57612 240.284 8.64323 242.358 11.1838 242.358H159.588C162.129 242.358 164.197 240.284 164.197 237.734V20.8194C164.197 18.27 162.129 16.1957 159.588 16.1957H11.1838Z" fill="#E0E0E0"/>
<path d="M21.8472 304.632H8.66089V304.838H21.8472V304.632Z" fill="#E0E0E0"/>
<path d="M150.056 302.4H106.104V302.605H150.056V302.4Z" fill="#E0E0E0"/>
<path d="M52.4313 312.287H22.6677V312.492H52.4313V312.287Z" fill="#E0E0E0"/>
<path d="M312.348 302.292H276.886V302.498H312.348V302.292Z" fill="#E0E0E0"/>
<path d="M324.86 302.292H319.663V302.498H324.86V302.292Z" fill="#E0E0E0"/>
<path d="M270.112 307.425H225.865V307.631H270.112V307.425Z" fill="#E0E0E0"/>
<path d="M301.944 139.961C301.952 142.421 301.597 144.869 300.888 147.224C300.173 149.584 299.125 151.829 297.775 153.89C297.741 153.944 297.669 153.96 297.615 153.926C297.561 153.891 297.546 153.82 297.58 153.766C298.996 151.765 300.086 149.551 300.808 147.206C301.544 144.861 301.926 142.42 301.944 139.961Z" fill="#E0E0E0"/>
<path d="M295.522 156.8C293.863 158.645 291.952 160.246 289.846 161.553C289.689 161.649 289.485 161.599 289.389 161.442C289.294 161.285 289.343 161.08 289.5 160.984C291.635 159.809 293.574 158.307 295.247 156.533C295.316 156.465 295.427 156.465 295.496 156.533C295.576 156.59 295.594 156.701 295.538 156.782C295.533 156.788 295.528 156.794 295.522 156.8Z" fill="#E0E0E0"/>
<path d="M275.531 165.202C274.27 165.139 273.016 164.981 271.779 164.731C271.346 164.644 271.064 164.222 271.149 163.787C271.235 163.352 271.656 163.069 272.089 163.155H272.134C273.284 163.45 274.455 163.655 275.637 163.769C276.029 163.799 276.323 164.141 276.294 164.535C276.264 164.928 275.923 165.223 275.531 165.193V165.202Z" fill="#E0E0E0"/>
<path d="M264.647 162.132C262.398 160.904 260.352 159.333 258.581 157.477C256.795 155.616 255.3 153.495 254.146 151.185C253.833 150.556 254.087 149.791 254.714 149.476C255.341 149.161 256.103 149.416 256.417 150.046C257.399 152.166 258.691 154.127 260.248 155.866C261.814 157.616 263.621 159.133 265.614 160.37C266.089 160.645 266.252 161.255 265.978 161.732C265.704 162.208 265.096 162.372 264.621 162.096L264.647 162.132Z" fill="#E0E0E0"/>
<path d="M252.727 147.59C251.955 145.121 251.558 142.549 251.548 139.962C251.548 139.224 252.143 138.626 252.878 138.626C253.613 138.626 254.208 139.224 254.208 139.962C254.196 142.289 254.531 144.605 255.202 146.833C255.412 147.516 255.031 148.242 254.35 148.453C253.669 148.664 252.947 148.282 252.736 147.598L252.727 147.59Z" fill="#E0E0E0"/>
<path d="M256.125 125.393C256.863 124.34 257.679 123.343 258.564 122.411C259.017 121.955 259.753 121.955 260.207 122.41C260.637 122.841 260.663 123.532 260.267 123.995C259.488 124.865 258.776 125.794 258.138 126.772C257.724 127.308 256.955 127.405 256.421 126.989C255.945 126.619 255.809 125.957 256.098 125.428L256.125 125.393Z" fill="#E0E0E0"/>
<path d="M264.586 117.756C267.935 115.918 271.656 114.865 275.469 114.676H277.349L279.229 114.792C279.572 114.811 279.834 115.105 279.815 115.449L279.815 115.451C279.787 115.78 279.514 116.035 279.185 116.038H277.367C276.772 116.038 276.178 116.091 275.593 116.154C274.411 116.275 273.24 116.484 272.089 116.777C269.803 117.367 267.618 118.297 265.606 119.536C265.145 119.825 264.537 119.685 264.249 119.222L264.24 119.207C263.95 118.74 264.092 118.125 264.558 117.834L264.568 117.827L264.586 117.756Z" fill="#E0E0E0"/>
<path d="M282.962 115.415C285.383 116.027 287.697 117.002 289.827 118.308C289.984 118.41 290.031 118.62 289.934 118.78C289.842 118.933 289.645 118.984 289.49 118.895C287.374 117.74 285.095 116.915 282.732 116.448C282.439 116.424 282.221 116.166 282.245 115.872C282.269 115.578 282.526 115.359 282.818 115.383C282.858 115.386 282.898 115.394 282.936 115.406L282.962 115.415Z" fill="#E0E0E0"/>
<path d="M299.558 129.21C300.089 130.32 300.534 131.468 300.889 132.646V132.7C300.52 131.53 300.064 130.39 299.522 129.291C299.506 129.266 299.506 129.235 299.522 129.21C299.542 129.188 299.575 129.186 299.597 129.206L299.602 129.21H299.558Z" fill="#E0E0E0"/>
<path d="M261.765 109.114C263.246 111.552 264.612 114.044 265.978 116.536C267.344 119.028 268.639 121.538 269.952 124.066C271.264 126.594 272.506 129.139 273.783 131.675L277.473 139.347H275.069L278.759 131.675C280.036 129.139 281.26 126.585 282.581 124.066C283.903 121.547 285.242 119.028 286.555 116.528C287.868 114.027 289.296 111.552 290.777 109.114C289.837 111.784 288.781 114.454 287.743 117.124C286.706 119.794 285.588 122.384 284.462 124.991C283.335 127.599 282.173 130.189 281.038 132.788L277.491 140.522L276.293 143.13L275.087 140.522L271.539 132.788C270.395 130.189 269.207 127.608 268.116 124.991C267.025 122.375 265.907 119.758 264.834 117.124C263.761 114.489 262.714 111.802 261.765 109.114Z" fill="#E0E0E0"/>
<path d="M308.045 151.211C305.296 150.562 302.59 149.778 299.876 149.022C297.162 148.265 294.475 147.411 291.788 146.556C289.1 145.702 286.466 144.776 283.805 143.94L275.823 141.163L277.597 139.97C277.446 142.64 277.34 145.23 277.162 147.865C276.985 150.499 276.816 153.125 276.586 155.75C276.355 158.376 276.116 161.001 275.849 163.627C275.583 166.252 275.264 168.869 274.865 171.486C274.705 168.816 274.643 166.208 274.581 163.565C274.519 160.921 274.528 158.287 274.581 155.652C274.634 153.018 274.652 150.383 274.705 147.749C274.759 145.115 274.892 142.489 274.98 139.855L275.034 138.075L276.736 138.689L284.674 141.563C287.335 142.569 289.943 143.539 292.559 144.59C295.176 145.64 297.783 146.69 300.382 147.785C302.981 148.879 305.535 149.983 308.045 151.211Z" fill="#E0E0E0"/>
<path d="M250.076 160.129C252.08 158.216 254.155 156.391 256.231 154.567C258.306 152.742 260.417 151.007 262.546 149.227C264.674 147.447 266.821 145.729 268.958 143.993C271.096 142.258 273.295 140.585 275.46 138.876L275.841 141.19L267.858 138.404C265.198 137.416 262.537 136.491 259.92 135.467C257.304 134.444 254.652 133.42 252.036 132.361C249.419 131.302 246.847 130.172 244.186 128.988C246.954 129.611 249.685 130.358 252.417 131.097C255.149 131.836 257.854 132.637 260.55 133.456C263.246 134.274 265.934 135.138 268.63 135.983L276.666 138.653L279.052 139.445L277.047 140.967C274.847 142.632 272.666 144.323 270.448 145.96C268.231 147.598 266.014 149.253 263.761 150.837C261.508 152.422 259.255 154.024 256.976 155.59C254.696 157.157 252.435 158.652 250.076 160.129Z" fill="#E0E0E0"/>
<path d="M308.045 130.038C305.491 131.16 302.892 132.156 300.294 133.162L296.427 134.622L292.497 136.019C289.872 136.927 287.241 137.817 284.604 138.689C281.943 139.517 279.327 140.407 276.621 141.19L277.358 139.241C278.599 141.306 279.876 143.362 281.074 145.471C282.271 147.58 283.513 149.645 284.684 151.754C285.854 153.864 287.025 156 288.16 158.127C289.296 160.254 290.404 162.425 291.442 164.624C289.943 162.71 288.524 160.743 287.114 158.776C285.704 156.81 284.329 154.825 282.99 152.804C281.65 150.784 280.329 148.782 278.998 146.752C277.668 144.723 276.409 142.676 275.123 140.638L274.236 139.214L275.859 138.68C278.52 137.79 281.18 137.06 283.841 136.241C286.502 135.423 289.163 134.702 291.823 133.963L295.85 132.895L299.895 131.871C302.635 131.204 305.385 130.554 308.045 130.038Z" fill="#E0E0E0"/>
<path d="M84.8492 201.37C83.5799 203.063 82.0658 204.556 80.3572 205.801C78.6378 207.042 76.7526 208.033 74.7574 208.745C74.7051 208.758 74.6511 208.732 74.6275 208.684C74.6115 208.631 74.6379 208.575 74.6886 208.553C76.7011 207.922 78.6013 206.975 80.319 205.747C82.0398 204.525 83.5671 203.049 84.8492 201.37Z" fill="#E0E0E0"/>
<path d="M71.6862 209.565C69.5921 209.965 67.4519 210.063 65.3301 209.856C65.174 209.819 65.0769 209.663 65.1134 209.506C65.1437 209.376 65.2581 209.283 65.3912 209.281C67.454 209.607 69.5548 209.607 71.6175 209.281C71.6987 209.271 71.7744 209.324 71.7932 209.404C71.8001 209.476 71.7554 209.543 71.6862 209.565Z" fill="#E0E0E0"/>
<path d="M53.6185 204.866C52.797 204.159 52.0308 203.39 51.3266 202.566C51.0732 202.282 51.0971 201.846 51.3799 201.592L51.3877 201.585C51.6751 201.332 52.1118 201.359 52.3656 201.646C53.0017 202.448 53.6962 203.201 54.4436 203.9C54.6967 204.124 54.7207 204.512 54.497 204.766C54.2735 205.02 53.8869 205.044 53.6338 204.82L53.6185 204.866Z" fill="#E0E0E0"/>
<path d="M47.7591 197.069C46.8497 195.052 46.2594 192.906 46.0096 190.706C45.7624 188.496 45.8447 186.261 46.2541 184.075C46.3875 183.485 46.9728 183.115 47.5611 183.249C48.1164 183.375 48.4819 183.908 48.4008 184.474V184.512C47.9708 186.479 47.8369 188.5 48.0035 190.507C48.165 192.526 48.6152 194.512 49.3405 196.402C49.4986 196.849 49.2658 197.34 48.8204 197.499C48.4115 197.644 47.9586 197.46 47.7667 197.069H47.7591Z" fill="#E0E0E0"/>
<path d="M47.1398 180.863C47.8907 178.762 48.9545 176.787 50.2949 175.006C50.6736 174.497 51.3917 174.393 51.8987 174.773C52.4058 175.153 52.5099 175.873 52.1312 176.382L52.1284 176.386C50.9061 177.975 49.9299 179.74 49.233 181.622C49.0221 182.2 48.3842 182.497 47.8082 182.285C47.2323 182.074 46.9365 181.434 47.1474 180.856L47.1398 180.863Z" fill="#E0E0E0"/>
<path d="M60.9987 167.416C62.0539 167.084 63.1312 166.828 64.2226 166.65C64.7696 166.57 65.2775 166.95 65.357 167.499C65.4334 168.026 65.0865 168.521 64.5664 168.628C63.581 168.81 62.6107 169.067 61.6634 169.394C61.117 169.587 60.5185 169.299 60.3264 168.75C60.1345 168.202 60.4217 167.601 60.9682 167.409L60.9987 167.416Z" fill="#E0E0E0"/>
<path d="M70.7922 166.635C72.9578 166.964 75.0618 167.618 77.0337 168.574C78.0134 169.049 78.9558 169.597 79.8528 170.215C80.301 170.522 80.7364 170.844 81.1592 171.181L82.3891 172.247C82.5985 172.456 82.5994 172.795 82.3911 173.006C82.2115 173.187 81.9293 173.216 81.7168 173.075H81.6787L80.464 172.124C80.0438 171.833 79.6236 171.541 79.1805 171.273C78.3104 170.737 77.4012 170.268 76.4608 169.87C74.5867 169.068 72.6042 168.552 70.5783 168.337C70.1016 168.328 69.7217 167.934 69.7299 167.456C69.738 166.977 70.131 166.596 70.6077 166.604C70.6568 166.605 70.7058 166.61 70.7541 166.619L70.7922 166.635Z" fill="#E0E0E0"/>
<path d="M84.5892 174.607C85.9298 176.301 87.0089 178.188 87.7902 180.204C87.8426 180.354 87.7688 180.519 87.6221 180.579C87.4765 180.638 87.3107 180.57 87.2477 180.426C86.3996 178.528 85.2688 176.77 83.894 175.213C83.7193 175.034 83.7193 174.748 83.894 174.569C84.0787 174.401 84.3637 174.416 84.5306 174.601L84.5356 174.607L84.5892 174.607Z" fill="#E0E0E0"/>
<path d="M88.7992 192.769C88.5794 193.81 88.2856 194.835 87.9201 195.835L88.7992 192.769ZM87.8743 195.835V195.797C88.2283 194.797 88.5068 193.772 88.7074 192.73C88.7149 192.703 88.7414 192.687 88.7686 192.692C88.7963 192.699 88.8154 192.724 88.8145 192.753L87.8743 195.835Z" fill="#E0E0E0"/>
<path d="M73.3364 159.214C73.0767 161.659 72.7176 164.082 72.3662 166.504C72.0148 168.927 71.6023 171.342 71.1744 173.749C70.7466 176.156 70.2882 178.563 69.8451 180.97L68.386 188.153L66.7434 186.873L73.2524 183.546C75.4449 182.48 77.6222 181.369 79.8301 180.334C82.0379 179.299 84.2458 178.256 86.4689 177.267C88.692 176.279 90.938 175.282 93.2222 174.385C91.1748 175.734 89.0816 176.999 86.9884 178.264C84.8951 179.529 82.7866 180.748 80.6552 181.944C78.5237 183.14 76.3923 184.313 74.2531 185.493L67.7977 188.928L65.6357 190.1L66.1705 187.678L67.7519 180.518C68.3172 178.134 68.8443 175.75 69.4555 173.381C70.0667 171.012 70.6625 168.635 71.2967 166.274C71.9308 163.913 72.5801 161.575 73.3364 159.214Z" fill="#E0E0E0"/>
<path d="M83.2072 212.309C81.6793 210.423 80.2048 208.476 78.738 206.529C77.2712 204.581 75.8732 202.604 74.4751 200.618C73.077 198.633 71.7172 196.616 70.3344 194.623L66.3161 188.544L68.1419 188.651C66.6751 190.376 65.2388 192.124 63.7491 193.834C62.2594 195.543 60.785 197.26 59.257 198.939C57.7291 200.618 56.2012 202.297 54.6733 203.953C53.1454 205.609 51.5487 207.242 49.9138 208.828C51.1744 206.927 52.5036 205.087 53.8329 203.247C55.1622 201.408 56.5374 199.598 57.9277 197.812C59.3181 196.026 60.7162 194.24 62.1219 192.446C63.5276 190.652 64.9791 188.927 66.4077 187.172L67.3932 185.96L68.2336 187.279L72.1832 193.412C73.459 195.482 74.773 197.529 76.003 199.614C77.233 201.699 78.4935 203.792 79.7082 205.892C80.9229 207.993 82.0994 210.132 83.2072 212.309Z" fill="#E0E0E0"/>
<path d="M38.7976 188.069C41.1735 187.808 43.5418 187.64 45.9177 187.479C48.2936 187.318 50.6543 187.195 53.0302 187.103C55.4061 187.011 57.7743 186.95 60.1426 186.873C62.5109 186.796 64.8868 186.812 67.2627 186.773L66.3231 188.56L62.2893 182.465C60.9906 180.403 59.646 178.379 58.3779 176.294C57.1097 174.209 55.8262 172.139 54.5581 170.046C53.2899 167.953 52.0981 165.822 50.9522 163.66C52.526 165.538 54.008 167.493 55.5359 169.402C57.0638 171.311 58.4619 173.304 59.8829 175.282C61.3038 177.26 62.7018 179.261 64.1152 181.239L68.233 187.279L69.4553 189.073H60.1731C57.8049 189.073 55.429 189.012 53.0531 188.92C50.6772 188.828 48.3089 188.744 45.933 188.629C43.5571 188.514 41.1888 188.307 38.7976 188.069Z" fill="#E0E0E0"/>
<path d="M94.2154 197.79C91.87 197.222 89.5782 196.548 87.271 195.881L83.8408 194.831L80.4183 193.773C78.1468 193.021 75.883 192.255 73.6268 191.473C71.3806 190.652 69.1117 189.894 66.881 189.027L68.4089 188.077C68.1874 190.147 67.9963 192.216 67.729 194.286C67.4615 196.356 67.2324 198.426 66.965 200.488C66.6976 202.55 66.3615 204.612 66.0406 206.675C65.7197 208.737 65.3378 210.791 64.9099 212.846C64.9099 210.745 64.9099 208.66 64.9864 206.575C65.0627 204.49 65.1315 202.405 65.2613 200.319C65.3912 198.234 65.5135 196.157 65.6663 194.079C65.8191 192.002 66.0101 189.932 66.1858 187.854L66.308 186.413L67.7061 186.896C69.9597 187.663 72.1828 188.567 74.4288 189.395C76.6749 190.223 78.8904 191.128 81.1058 192.025L84.4215 193.397L87.7217 194.815C89.8685 195.743 92.0611 196.716 94.2154 197.79Z" fill="#E0E0E0"/>
<path d="M90.1843 45.0674C91.962 45.8471 93.6146 46.8872 95.0881 48.1536C96.5553 49.4297 97.8338 50.9093 98.8849 52.5475C98.912 52.5902 98.8994 52.6469 98.8569 52.6741C98.8144 52.7012 98.7579 52.6887 98.7308 52.6459C97.7461 50.9795 96.5048 49.4799 95.053 48.2028C93.5946 46.9204 91.9536 45.8636 90.1843 45.0674Z" fill="#E0E0E0"/>
<path d="M100.251 55.1203C101.047 56.91 101.587 58.8033 101.856 60.7445C101.862 60.8919 101.747 61.016 101.6 61.0217C101.472 61.0266 101.359 60.9398 101.33 60.8148C101.181 58.8986 100.734 57.0176 100.006 55.2398C99.9759 55.1699 100.007 55.0889 100.076 55.057C100.142 55.0305 100.217 55.0577 100.251 55.1203Z" fill="#E0E0E0"/>
<path d="M99.8876 72.2934C99.4413 73.1886 98.9285 74.0487 98.3534 74.8665C98.1283 75.1382 97.7263 75.1752 97.4557 74.9492C97.214 74.7474 97.1549 74.3989 97.3167 74.1283C97.8945 73.3889 98.419 72.6089 98.8858 71.7943C99.0309 71.5225 99.3681 71.4202 99.6389 71.5658C99.9098 71.7114 100.012 72.0498 99.8666 72.3215L99.8876 72.2934Z" fill="#E0E0E0"/>
<path d="M94.1856 79.1897C92.5833 80.4287 90.7991 81.4106 88.8966 82.1002C86.9926 82.7858 84.9977 83.1839 82.9771 83.2813C82.4245 83.309 81.9542 82.882 81.9265 82.3275L81.9263 82.3251C81.8988 81.7745 82.3212 81.3057 82.87 81.2781L82.8791 81.2777C84.7216 81.2506 86.5495 80.9448 88.3012 80.3707C90.0612 79.7975 91.7311 78.9761 93.261 77.9312C93.6074 77.6834 94.0887 77.7644 94.3356 78.1121L94.3467 78.1281C94.5791 78.4695 94.5087 78.9331 94.1856 79.1897Z" fill="#E0E0E0"/>
<path d="M79.9153 83.1686C77.8887 82.9333 75.908 82.3978 74.0378 81.5797C73.5059 81.3468 73.2628 80.7251 73.495 80.1913C73.7271 79.6574 74.3465 79.4134 74.8785 79.6464C76.5485 80.4016 78.3218 80.9016 80.1395 81.1298C80.6986 81.1958 81.0984 81.7041 81.0327 82.2652C80.9669 82.8262 80.4604 83.2275 79.9013 83.1615L79.9153 83.1686Z" fill="#E0E0E0"/>
<path d="M65.0357 73.594C64.5125 72.723 64.0558 71.8136 63.6696 70.8734C63.5186 70.3878 63.7883 69.8713 64.2721 69.7197C64.695 69.5872 65.1518 69.7768 65.3579 70.1703C65.7347 71.0122 66.1726 71.8251 66.6679 72.6027C66.9542 73.0512 66.824 73.6476 66.3772 73.935C65.9304 74.2223 65.336 74.0917 65.0497 73.6433L65.0357 73.594Z" fill="#E0E0E0"/>
<path d="M62.2619 64.9895C62.1026 62.9936 62.237 60.985 62.6612 59.0284C62.8794 58.0521 63.1698 57.0934 63.5299 56.1603C63.7049 55.6894 63.9082 55.2324 64.1113 54.7544L64.8118 53.4328C64.9329 53.1898 65.2275 53.0911 65.4697 53.2127C65.7076 53.3321 65.8074 53.6199 65.6945 53.8617L65.106 55.148C64.9309 55.5839 64.7628 56.0268 64.6227 56.4767C64.3193 57.3687 64.085 58.2829 63.9221 59.2112C63.6131 61.0564 63.5801 62.9377 63.8241 64.7927C63.8802 65.2256 63.576 65.6221 63.1446 65.6784C62.7132 65.7347 62.318 65.4294 62.2619 64.9965V64.9895Z" fill="#E0E0E0"/>
<path d="M66.4582 50.9516C67.6745 49.3961 69.1175 48.0333 70.7385 46.9093C70.8584 46.8219 71.0262 46.8487 71.1132 46.9691C71.2003 47.0894 71.1737 47.2578 71.0537 47.3451C69.5455 48.5077 68.2206 49.8917 67.1238 51.4508C66.9922 51.6449 66.7288 51.6953 66.5353 51.5633C66.3419 51.4313 66.2916 51.1668 66.4232 50.9727L66.4582 50.9516Z" fill="#E0E0E0"/>
<path d="M81.7015 43.3522C82.6703 43.3252 83.6398 43.372 84.6016 43.4923C83.6415 43.3813 82.6743 43.3439 81.7084 43.3802C81.6839 43.3804 81.663 43.3624 81.6594 43.3381C81.6594 43.311 81.6813 43.2891 81.7084 43.2891L81.7015 43.3522Z" fill="#E0E0E0"/>
<path d="M55.1306 64.2867C57.3583 63.9985 59.586 63.8087 61.8207 63.5837C64.0554 63.3588 66.2831 63.2463 68.5178 63.1198C70.7525 62.9932 72.9802 62.8949 75.2149 62.7894L81.9119 62.5715L81.1413 64.3148L76.805 59.1832C75.4039 57.4469 73.9469 55.7317 72.5599 53.9743C71.1727 52.2169 69.7577 50.4595 68.4127 48.681C67.0677 46.9025 65.7086 45.0959 64.4266 43.2471C66.0589 44.7936 67.6281 46.3963 69.1973 47.9991C70.7665 49.6018 72.2936 51.2468 73.7997 52.9198C75.3059 54.5929 76.8121 56.2378 78.3112 57.8968L82.7315 62.9581L84.2237 64.6663H81.961L75.2569 64.7647H68.5528C66.3181 64.7647 64.0834 64.6874 61.8417 64.6241C59.6 64.5608 57.3723 64.4624 55.1306 64.2867Z" fill="#E0E0E0"/>
<path d="M100.259 44.2661C98.9068 46.0446 97.4567 47.7809 96.0556 49.4821C94.6545 51.1833 93.1694 52.8844 91.6983 54.5504C90.2272 56.2165 88.7281 57.8684 87.243 59.5274L82.6895 64.4059L82.3953 62.747C84.2447 63.696 86.1011 64.6169 87.9364 65.5939C89.7718 66.5711 91.6072 67.5201 93.4216 68.5323C95.236 69.5446 97.0503 70.5569 98.8508 71.5902C100.651 72.6236 102.437 73.6991 104.196 74.8238C102.241 74.1209 100.322 73.2914 98.4024 72.49C96.483 71.6887 94.5915 70.8451 92.7071 69.9735C90.8226 69.1018 88.9382 68.2371 87.0608 67.3513C85.1834 66.4656 83.3339 65.5307 81.4566 64.6239L80.1746 63.9491L81.1623 62.9086L85.7719 58.0793C87.341 56.5047 88.8822 54.9019 90.4794 53.3414C92.0766 51.7808 93.6668 50.2343 95.285 48.7018C96.9033 47.1693 98.5565 45.672 100.259 44.2661Z" fill="#E0E0E0"/>
<path d="M88.084 89.1077C87.3834 87.041 86.6829 84.9532 86.0524 82.8654C85.422 80.7777 84.8055 78.6477 84.224 76.574C83.6426 74.5002 83.0822 72.3562 82.5148 70.2473C81.9473 68.1384 81.4499 66.0295 80.9175 63.9206L82.7109 64.3846L78.1434 69.3053C76.5882 70.9011 75.0611 72.5389 73.4779 74.1136C71.8947 75.6882 70.3256 77.2769 68.7213 78.8304C67.1171 80.384 65.4919 81.9235 63.8176 83.4067C65.1486 81.6001 66.5637 79.8919 67.9647 78.1205C69.3658 76.349 70.8159 74.6759 72.273 72.9889C73.7301 71.3017 75.2082 69.6287 76.6793 67.9416L81.1768 62.9786L82.5148 61.5024L82.9631 63.4497C83.4535 65.5586 83.9718 67.6675 84.4412 69.8255C84.9106 71.9836 85.3869 74.0854 85.8072 76.2295C86.2275 78.3736 86.6549 80.5175 87.0472 82.6686C87.4395 84.8197 87.7968 86.9356 88.084 89.1077Z" fill="#E0E0E0"/>
<path d="M85.0293 37.4404C85.0293 39.6548 84.9032 41.855 84.7911 44.0553L84.5809 47.3522L84.3288 50.6491C84.1466 52.8423 83.9364 55.0285 83.7123 57.2218C83.4881 59.4149 83.2569 61.5941 82.9697 63.7734L81.7998 62.6205C83.6842 62.3814 85.5686 62.1143 87.4671 61.9175C89.3656 61.7207 91.25 61.4887 93.1484 61.32C95.0469 61.1513 96.9453 60.9826 98.8437 60.842C100.742 60.7014 102.655 60.5959 104.567 60.5468C102.711 61.0177 100.847 61.4184 98.9628 61.805C97.0784 62.1917 95.222 62.5572 93.3586 62.8806C91.4952 63.204 89.6037 63.5343 87.7543 63.8366C85.905 64.1389 83.9924 64.406 82.108 64.6802L80.7981 64.877L80.9382 63.5273C81.1553 61.3411 81.4705 59.1619 81.7297 56.9827C81.989 54.8036 82.3322 52.6243 82.6615 50.4452L83.1798 47.1835L83.7473 43.9287C84.1186 41.7636 84.5249 39.5985 85.0293 37.4404Z" fill="#E0E0E0"/>
<path d="M224.702 125.974C224.961 127.071 225.135 128.187 225.221 129.311C225.315 130.413 225.368 131.521 225.368 132.649C225.368 133.777 225.315 134.858 225.221 135.986C225.137 137.111 224.964 138.227 224.702 139.324C224.441 138.227 224.267 137.111 224.183 135.986C224.083 134.878 224.03 133.77 224.037 132.649C224.043 131.527 224.09 130.433 224.183 129.311C224.27 128.187 224.444 127.071 224.702 125.974Z" fill="#E0E0E0"/>
<path d="M218.275 132.609C219.33 132.348 220.405 132.174 221.488 132.088C222.559 131.988 223.63 131.941 224.701 131.941C225.772 131.941 226.843 131.988 227.914 132.088C228.998 132.17 230.072 132.345 231.127 132.609C230.071 132.867 228.997 133.041 227.914 133.13C226.843 133.223 225.772 133.277 224.701 133.277C223.63 133.277 222.559 133.223 221.488 133.13C220.405 133.041 219.331 132.867 218.275 132.609Z" fill="#E0E0E0"/>
<path d="M266.112 193.857C266.255 194.464 266.351 195.081 266.399 195.703C266.45 196.312 266.48 196.925 266.48 197.549C266.48 198.172 266.45 198.771 266.399 199.394C266.352 200.016 266.256 200.634 266.112 201.24C265.967 200.634 265.871 200.016 265.825 199.394C265.77 198.782 265.74 198.169 265.744 197.549C265.747 196.928 265.773 196.323 265.825 195.703C265.873 195.081 265.969 194.464 266.112 193.857Z" fill="#E0E0E0"/>
<path d="M262.557 197.526C263.141 197.382 263.735 197.285 264.334 197.238C264.926 197.183 265.519 197.157 266.111 197.157C266.703 197.157 267.295 197.183 267.888 197.238C268.487 197.283 269.081 197.38 269.664 197.526C269.081 197.669 268.486 197.765 267.888 197.814C267.295 197.866 266.703 197.895 266.111 197.895C265.519 197.895 264.926 197.866 264.334 197.814C263.735 197.765 263.141 197.669 262.557 197.526Z" fill="#E0E0E0"/>
<path d="M319.664 120.966C319.807 121.573 319.903 122.19 319.951 122.812C320.002 123.421 320.032 124.034 320.032 124.657C320.032 125.281 320.002 125.879 319.951 126.503C319.904 127.125 319.808 127.742 319.664 128.349C319.519 127.742 319.423 127.125 319.377 126.503C319.321 125.89 319.292 125.278 319.296 124.657C319.299 124.037 319.325 123.432 319.377 122.812C319.425 122.19 319.521 121.573 319.664 120.966Z" fill="#E0E0E0"/>
<path d="M316.11 124.635C316.693 124.491 317.287 124.395 317.886 124.347C318.479 124.292 319.071 124.266 319.663 124.266C320.255 124.266 320.848 124.292 321.44 124.347C322.039 124.393 322.633 124.489 323.217 124.635C322.633 124.778 322.039 124.874 321.44 124.923C320.848 124.975 320.255 125.004 319.663 125.004C319.071 125.004 318.479 124.975 317.886 124.923C317.288 124.874 316.693 124.778 316.11 124.635Z" fill="#E0E0E0"/>
<path d="M129.559 73.1909C129.752 73.9998 129.88 74.8228 129.942 75.652C130.015 76.4691 130.055 77.2862 130.05 78.1131C130.045 78.94 130.015 79.7473 129.942 80.5742C129.882 81.4037 129.754 82.2269 129.559 83.0353C129.369 82.2259 129.241 81.4032 129.176 80.5742C129.108 79.7571 129.068 78.94 129.068 78.1131C129.068 77.2862 129.108 76.4839 129.181 75.652C129.242 74.8229 129.368 74 129.559 73.1909Z" fill="#E0E0E0"/>
<path d="M124.82 78.0831C125.598 77.8922 126.39 77.7655 127.189 77.704C127.979 77.6302 128.768 77.5908 129.558 77.5908C130.348 77.5908 131.137 77.6302 131.927 77.6992C132.726 77.7646 133.518 77.8929 134.296 78.0831C133.519 78.278 132.726 78.4064 131.927 78.467C131.137 78.5409 130.348 78.5802 129.558 78.5753C128.768 78.5704 127.979 78.5409 127.189 78.467C126.39 78.404 125.598 78.2756 124.82 78.0831Z" fill="#E0E0E0"/>
<path d="M295.57 187.282C295.915 188.745 296.144 190.233 296.254 191.732C296.387 193.209 296.458 194.687 296.458 196.182C296.458 197.677 296.387 199.128 296.262 200.632C296.145 202.131 295.914 203.618 295.57 205.082C295.218 203.62 294.986 202.132 294.878 200.632C294.745 199.154 294.674 197.677 294.683 196.182C294.692 194.687 294.745 193.227 294.878 191.732C294.991 190.232 295.222 188.744 295.57 187.282Z" fill="#E0E0E0"/>
<path d="M287.002 196.137C288.408 195.785 289.841 195.553 291.286 195.443C292.714 195.31 294.142 195.238 295.57 195.247C296.998 195.256 298.426 195.31 299.854 195.434C301.298 195.551 302.731 195.786 304.138 196.137C302.73 196.481 301.298 196.713 299.854 196.832C298.426 196.956 296.998 197.027 295.57 197.027C294.142 197.027 292.714 196.956 291.286 196.823C289.842 196.712 288.409 196.482 287.002 196.137Z" fill="#E0E0E0"/>
<path d="M113.774 172.813C114.118 174.276 114.35 175.764 114.466 177.263C114.59 178.74 114.661 180.209 114.661 181.713C114.661 183.217 114.59 184.659 114.466 186.163C114.355 187.663 114.123 189.151 113.774 190.613C113.425 189.151 113.193 187.663 113.082 186.163C112.949 184.686 112.878 183.217 112.886 181.713C112.895 180.209 112.957 178.767 113.082 177.263C113.198 175.764 113.43 174.276 113.774 172.813Z" fill="#E0E0E0"/>
<path d="M105.206 181.66C106.614 181.316 108.046 181.084 109.49 180.965C110.918 180.841 112.346 180.77 113.774 180.77C115.202 180.77 116.63 180.841 118.058 180.965C119.502 181.079 120.935 181.312 122.342 181.66C120.935 182.008 119.502 182.24 118.058 182.354C116.63 182.487 115.202 182.559 113.774 182.55C112.346 182.541 110.918 182.479 109.49 182.354C108.046 182.236 106.614 182.004 105.206 181.66Z" fill="#E0E0E0"/>
<path d="M296.054 56.981C296.421 58.5446 296.668 60.134 296.793 61.7354C296.926 63.3139 297.002 64.8923 297.002 66.4898C297.002 68.0873 296.926 69.6468 296.793 71.2443C296.668 72.8457 296.421 74.4352 296.054 75.9987C295.677 74.4371 295.43 72.8468 295.314 71.2443C295.172 69.6658 295.096 68.0873 295.106 66.4898C295.115 64.8923 295.172 63.3424 295.314 61.7354C295.435 60.1335 295.682 58.5437 296.054 56.981Z" fill="#E0E0E0"/>
<path d="M286.899 66.4329C288.402 66.0642 289.933 65.8193 291.476 65.7006C293.002 65.558 294.527 65.4819 296.053 65.4819C297.579 65.4819 299.104 65.558 300.63 65.6911C302.173 65.8175 303.703 66.0655 305.207 66.4329C303.705 66.8095 302.174 67.0576 300.63 67.1746C299.104 67.3173 297.579 67.3933 296.053 67.3839C294.527 67.3744 293.002 67.3173 291.476 67.1746C289.933 67.0529 288.402 66.8048 286.899 66.4329Z" fill="#E0E0E0"/>
<path d="M269.426 37.3911C269.615 38.1912 269.74 39.0053 269.799 39.8255C269.872 40.6289 269.911 41.437 269.906 42.2599C269.901 43.0827 269.872 43.8714 269.804 44.6943C269.741 45.5143 269.614 46.3281 269.426 47.1286C269.233 46.3287 269.105 45.5147 269.042 44.6943C268.974 43.886 268.936 43.0827 268.94 42.2599C268.945 41.437 268.974 40.6435 269.047 39.8255C269.106 39.0049 269.232 38.1906 269.426 37.3911Z" fill="#E0E0E0"/>
<path d="M264.74 42.2301C265.509 42.0396 266.293 41.9126 267.083 41.8503C267.864 41.7772 268.645 41.7432 269.426 41.7432C270.207 41.7432 270.983 41.7772 271.764 41.8503C272.555 41.9102 273.339 42.0372 274.108 42.2301C273.338 42.4181 272.554 42.5451 271.764 42.6098C270.983 42.678 270.207 42.7169 269.426 42.7169C268.645 42.7169 267.864 42.678 267.083 42.6098C266.293 42.5451 265.509 42.4181 264.74 42.2301Z" fill="#E0E0E0"/>
<path d="M60.2714 104.472C60.6165 105.935 60.845 107.423 60.9547 108.922C61.0878 110.4 61.1588 111.877 61.1499 113.372C61.1411 114.867 61.0878 116.327 60.9636 117.822C60.8465 119.321 60.6151 120.809 60.2714 122.272C59.9206 120.81 59.6861 119.322 59.5704 117.822C59.4461 116.345 59.3752 114.867 59.384 113.372C59.3929 111.877 59.4461 110.426 59.5792 108.922C59.6876 107.422 59.9191 105.934 60.2714 104.472Z" fill="#E0E0E0"/>
<path d="M51.7024 113.319C53.1095 112.974 54.5421 112.745 55.9863 112.633C57.4143 112.5 58.8422 112.429 60.2702 112.429C61.6982 112.429 63.1173 112.5 64.5452 112.625C65.9891 112.743 67.4215 112.975 68.8291 113.319C67.4226 113.67 65.9899 113.905 64.5452 114.022C63.1173 114.147 61.6893 114.218 60.2702 114.209C58.8511 114.2 57.4143 114.147 55.9863 114.013C54.5414 113.903 53.1083 113.671 51.7024 113.319Z" fill="#E0E0E0"/>
<path d="M26.1306 131.949C26.321 132.758 26.4489 133.581 26.5133 134.41C26.5821 135.227 26.6213 136.039 26.6213 136.871C26.6213 137.703 26.5821 138.505 26.5133 139.332C26.4493 140.161 26.3213 140.984 26.1306 141.793C25.935 140.985 25.8069 140.162 25.7478 139.332C25.6741 138.52 25.635 137.703 25.6398 136.871C25.6447 136.039 25.6741 135.242 25.7478 134.41C25.8098 133.581 25.9378 132.758 26.1306 131.949Z" fill="#E0E0E0"/>
<path d="M21.3928 136.841C22.1712 136.651 22.9633 136.522 23.7618 136.457C24.5515 136.388 25.3411 136.349 26.1308 136.349C26.9204 136.349 27.7101 136.388 28.4998 136.457C29.2985 136.52 30.0908 136.648 30.8687 136.841C30.0908 137.033 29.2985 137.162 28.4998 137.225C27.7101 137.299 26.9204 137.338 26.1308 137.333C25.3411 137.328 24.5515 137.294 23.7618 137.225C22.9633 137.159 22.1712 137.031 21.3928 136.841Z" fill="#E0E0E0"/>
<path d="M43.7346 32.0068C44.0609 33.3937 44.2803 34.8039 44.3906 36.2245C44.5084 37.6249 44.5757 39.0167 44.5757 40.4423C44.5757 41.8679 44.5084 43.243 44.3906 44.6601C44.2809 46.0809 44.0616 47.4911 43.7346 48.8779C43.3994 47.4927 43.1799 46.0818 43.0786 44.6601C42.9524 43.2683 42.8851 41.8679 42.8935 40.4423C42.902 39.0167 42.9524 37.6502 43.0786 36.2245C43.1847 34.8034 43.4042 33.3929 43.7346 32.0068Z" fill="#E0E0E0"/>
<path d="M35.6133 40.392C36.9474 40.0661 38.3051 39.8461 39.6735 39.734C41.027 39.6159 42.3804 39.5483 43.7339 39.5483C45.0872 39.5483 46.4407 39.6159 47.7941 39.734C49.1632 39.842 50.521 40.0621 51.8544 40.392C50.521 40.7219 49.1632 40.942 47.7941 41.0501C46.4407 41.1765 45.0872 41.2441 43.7339 41.2356C42.3804 41.2272 41.027 41.1681 39.6735 41.0501C38.3051 40.9379 36.9474 40.7179 35.6133 40.392Z" fill="#E0E0E0"/>
<path d="M216.766 0H125.998V34.1182H216.766V0Z" fill="#E0E0E0"/>
<path d="M189.174 3.47705H153.581V18.7936H189.174V3.47705Z" fill="#F5F5F5"/>
<path d="M174.818 22.814H167.938V29.719H174.818V22.814Z" fill="#F5F5F5"/>
<path d="M146.664 9.39258H131.72V22.8141H146.664V9.39258Z" fill="#F5F5F5"/>
<path d="M211.036 9.39258H196.092V22.8141H211.036V9.39258Z" fill="#F5F5F5"/>
<path d="M211.036 3.47705H196.092V5.86661H211.036V3.47705Z" fill="#F5F5F5"/>
<path d="M146.664 3.47705H131.72V5.86661H146.664V3.47705Z" fill="#F5F5F5"/>
<path d="M165.408 25.0718H159.505V27.4613H165.408V25.0718Z" fill="#F5F5F5"/>
<path d="M183.251 25.0718H177.347V27.4613H183.251V25.0718Z" fill="#F5F5F5"/>
<path d="M343 339.948C343 342.739 266.217 345.001 171.5 345.001C76.7832 345.001 0 342.739 0 339.948C0 337.157 76.7831 334.895 171.5 334.895C266.217 334.895 343 337.157 343 339.948Z" fill="#F5F5F5"/>
<path d="M36.3154 121.969L38.8938 120.995C38.8938 120.995 38.2239 123.739 41.9012 124.53L39.5623 126.22C39.5623 126.22 36.4109 125.039 36.3154 121.969Z" fill="#1355FF"/>
<path d="M148.905 42.5058L149.701 45.1527C149.701 45.1527 147.017 44.2984 145.986 47.9278L144.462 45.4727C144.462 45.4727 145.846 42.3962 148.905 42.5058Z" fill="#1355FF"/>
<path d="M3.79639 193.524L4.02054 191.626C4.02054 191.626 5.48647 192.911 7.13952 190.896L7.42977 192.875C7.42977 192.875 5.70528 194.442 3.79639 193.524Z" fill="#1355FF"/>
<path d="M129.559 130.545L129.783 128.647C129.783 128.647 131.249 129.932 132.902 127.917L133.192 129.896C133.192 129.896 131.467 131.463 129.559 130.545Z" fill="#1355FF"/>
<path d="M80.3291 17.1594L80.5534 15.2609C80.5534 15.2609 82.0193 16.5464 83.6722 14.5317L83.9626 16.5105C83.9626 16.5105 82.2379 18.0769 80.3291 17.1594Z" fill="#1355FF"/>
<path d="M11.2935 48.574L11.6176 45.8284C11.6176 45.8284 13.7375 47.6875 16.1281 44.7739L16.5479 47.6355C16.5479 47.6355 14.0539 49.9008 11.2935 48.574Z" fill="#1355FF"/>
<path opacity="0.7" d="M11.2935 48.574L11.6176 45.8284C11.6176 45.8284 13.7375 47.6875 16.1281 44.7739L16.5479 47.6355C16.5479 47.6355 14.0539 49.9008 11.2935 48.574Z" fill="white"/>
<path d="M72.686 70.5594L75.1217 69.2676C75.1217 69.2676 74.8014 72.0746 78.5486 72.3939L76.4404 74.3661C76.4404 74.3661 73.166 73.5931 72.686 70.5594Z" fill="#1355FF"/>
<path opacity="0.7" d="M72.686 70.5594L75.1217 69.2676C75.1217 69.2676 74.8014 72.0746 78.5486 72.3939L76.4404 74.3661C76.4404 74.3661 73.166 73.5931 72.686 70.5594Z" fill="white"/>
<path d="M183.042 38.6967L185.477 37.4048C185.477 37.4048 185.157 40.2118 188.904 40.5311L186.796 42.5034C186.796 42.5034 183.521 41.7304 183.042 38.6967Z" fill="#1355FF"/>
<path opacity="0.7" d="M183.042 38.6967L185.477 37.4048C185.477 37.4048 185.157 40.2118 188.904 40.5311L186.796 42.5034C186.796 42.5034 183.521 41.7304 183.042 38.6967Z" fill="white"/>
<path d="M273.51 122.371L274.306 125.017C274.306 125.017 271.622 124.163 270.59 127.792L269.066 125.337C269.066 125.337 270.451 122.261 273.51 122.371Z" fill="#1355FF"/>
<path d="M303.095 235.373L302.851 232.619C302.851 232.619 305.306 234.002 307.049 230.658L308.046 233.372C308.046 233.372 306.068 236.103 303.095 235.373Z" fill="#1355FF"/>
<path d="M321.833 77.9895L321.588 75.2357C321.588 75.2357 324.043 76.6181 325.786 73.2739L326.783 75.988C326.783 75.988 324.806 78.7191 321.833 77.9895Z" fill="#1355FF"/>
<path d="M62.6191 199.224L62.3745 196.47C62.3745 196.47 64.8298 197.853 66.573 194.509L67.5696 197.223C67.5696 197.223 65.5924 199.954 62.6191 199.224Z" fill="#1355FF"/>
<path d="M14.1954 264.173L13.9507 261.419C13.9507 261.419 16.406 262.802 18.1492 259.458L19.1457 262.171C19.1457 262.171 17.1686 264.903 14.1954 264.173Z" fill="#1355FF"/>
<path d="M80.8155 305.617L80.5708 302.864C80.5708 302.864 83.0261 304.246 84.7693 300.902L85.7658 303.616C85.7658 303.616 83.7887 306.347 80.8155 305.617Z" fill="#1355FF"/>
<path d="M300.025 28.3772L300.25 26.4787C300.25 26.4787 301.716 27.7642 303.368 25.7495L303.659 27.7282C303.659 27.7282 301.934 29.2947 300.025 28.3772Z" fill="#1355FF"/>
<path d="M242.834 51.7394L243.059 49.8409C243.059 49.8409 244.525 51.1265 246.178 49.1118L246.468 51.0905C246.468 51.0905 244.743 52.6569 242.834 51.7394Z" fill="#1355FF"/>
<path d="M330.613 153.848L333.048 152.556C333.048 152.556 332.728 155.363 336.475 155.682L334.367 157.654C334.367 157.654 331.093 156.881 330.613 153.848Z" fill="#1355FF"/>
<path opacity="0.7" d="M330.613 153.848L333.048 152.556C333.048 152.556 332.728 155.363 336.475 155.682L334.367 157.654C334.367 157.654 331.093 156.881 330.613 153.848Z" fill="white"/>
<path d="M221.104 201.809L223.54 200.517C223.54 200.517 223.219 203.324 226.967 203.643L224.858 205.615C224.858 205.615 221.584 204.842 221.104 201.809Z" fill="#1355FF"/>
<path opacity="0.7" d="M221.104 201.809L223.54 200.517C223.54 200.517 223.219 203.324 226.967 203.643L224.858 205.615C224.858 205.615 221.584 204.842 221.104 201.809Z" fill="white"/>
<path d="M333.341 276.687L335.777 275.396C335.777 275.396 335.456 278.202 339.203 278.522L337.095 280.494C337.095 280.494 333.821 279.721 333.341 276.687Z" fill="#1355FF"/>
<path opacity="0.7" d="M333.341 276.687L335.777 275.396C335.777 275.396 335.456 278.202 339.203 278.522L337.095 280.494C337.095 280.494 333.821 279.721 333.341 276.687Z" fill="white"/>
<path d="M114.456 233.349L116.891 232.057C116.891 232.057 116.571 234.864 120.318 235.183L118.21 237.156C118.21 237.156 114.935 236.383 114.456 233.349Z" fill="#1355FF"/>
<path opacity="0.7" d="M114.456 233.349L116.891 232.057C116.891 232.057 116.571 234.864 120.318 235.183L118.21 237.156C118.21 237.156 114.935 236.383 114.456 233.349Z" fill="white"/>
<path d="M246.597 285.262L247.382 282.612C247.382 282.612 249.156 284.806 252.006 282.344L251.934 285.236C251.934 285.236 249.091 287.041 246.597 285.262Z" fill="#1355FF"/>
<path opacity="0.7" d="M246.597 285.262L247.382 282.612C247.382 282.612 249.156 284.806 252.006 282.344L251.934 285.236C251.934 285.236 249.091 287.041 246.597 285.262Z" fill="white"/>
<path d="M190.395 18.9244L191.18 16.2745C191.18 16.2745 192.953 18.469 195.804 16.0068L195.731 18.8984C195.731 18.8984 192.889 20.704 190.395 18.9244Z" fill="#1355FF"/>
<path opacity="0.7" d="M190.395 18.9244L191.18 16.2745C191.18 16.2745 192.953 18.469 195.804 16.0068L195.731 18.8984C195.731 18.8984 192.889 20.704 190.395 18.9244Z" fill="white"/>
<path d="M186.529 42.282L190.211 28.1852L190.738 26.1693C190.838 25.7843 190.245 25.62 190.144 26.005L186.462 40.1018L185.935 42.1177C185.835 42.5027 186.429 42.6669 186.529 42.282Z" fill="#263238"/>
<path d="M194.145 45.983L199.334 39.7334L200.063 38.8546C200.315 38.5511 199.882 38.1117 199.628 38.4176L194.439 44.6673L193.709 45.546C193.457 45.8495 193.891 46.289 194.145 45.983Z" fill="#263238"/>
<path d="M198.274 51.3507C201.912 50.5185 205.444 49.2901 208.818 47.6946C209.177 47.5252 208.864 46.9923 208.508 47.161C205.181 48.7336 201.695 49.9346 198.111 50.7548C197.724 50.8432 197.888 51.4391 198.274 51.3507Z" fill="#263238"/>
<path d="M179.143 41.4604L176.894 33.6804L176.566 32.5493C176.456 32.1681 175.862 32.3302 175.973 32.7136L178.222 40.4936L178.549 41.6247C178.659 42.0059 179.254 41.8438 179.143 41.4604Z" fill="#263238"/>
<path d="M171.347 44.5311C168.39 42.3403 165.681 39.8261 163.264 37.0479C163.003 36.7478 162.569 37.1863 162.828 37.4849C165.282 40.3045 168.036 42.8417 171.037 45.0647C171.356 45.3011 171.663 44.765 171.347 44.5311Z" fill="#263238"/>
<path d="M211.714 76.3642C218.906 68.961 230.717 68.8099 238.094 76.0268C245.472 83.2436 245.622 95.0953 238.43 102.498C232.878 108.214 224.58 109.587 217.686 106.605L212.605 108.973L212.282 103.041C212.207 102.969 212.125 102.909 212.05 102.836C204.673 95.6191 204.522 83.7673 211.714 76.3642Z" fill="#1355FF"/>
<path d="M236.973 72.073C236.929 72.073 236.885 72.0589 236.847 72.0299C232.124 68.3598 225.439 67.2944 219.815 69.3158C219.712 69.352 219.591 69.2989 219.553 69.1915C219.514 69.084 219.571 68.9662 219.677 68.9279C225.429 66.8615 232.267 67.9503 237.099 71.7041C237.189 71.7737 237.205 71.9032 237.135 71.9929C237.095 72.0456 237.034 72.073 236.973 72.073Z" fill="#1355FF"/>
<path d="M214.71 71.6287C214.651 71.6287 214.592 71.6026 214.551 71.5527C214.479 71.4642 214.493 71.3346 214.581 71.263C215.318 70.6619 216.191 70.2105 217.105 69.957C217.217 69.9256 217.327 69.992 217.358 70.1011C217.387 70.2105 217.323 70.324 217.214 70.3545C216.355 70.5927 215.534 71.0172 214.839 71.5825C214.802 71.6138 214.756 71.6287 214.71 71.6287Z" fill="#1355FF"/>
<path d="M224.725 98.4393C224.024 98.4393 223.438 98.212 222.968 97.7572C222.497 97.3027 222.262 96.7491 222.262 96.0965C222.262 95.4445 222.493 94.8994 222.955 94.4618C223.417 94.0242 224.007 93.8054 224.725 93.8054C225.443 93.8054 226.033 94.0242 226.495 94.4618C226.957 94.8994 227.188 95.4445 227.188 96.0965C227.188 96.7491 226.953 97.3027 226.482 97.7572C226.012 98.212 225.427 98.4393 224.725 98.4393ZM226.316 91.9776H223.134L222.339 80.2124H227.111L226.316 91.9776Z" fill="white"/>
<path d="M78.5721 282.386C78.4571 282.431 78.3312 282.441 78.2105 282.415L69.3718 280.875C69.0126 280.813 68.7722 280.47 68.8346 280.11C68.897 279.749 69.2388 279.508 69.5978 279.57L78.4365 281.11C78.7944 281.171 79.0353 281.511 78.9746 281.87L78.9736 281.876C78.9384 282.105 78.786 282.298 78.5721 282.386Z" fill="#263238"/>
<g opacity="0.4">
<path d="M78.5721 282.386C78.4571 282.432 78.3312 282.442 78.2105 282.415L69.3718 280.876C69.0126 280.813 68.7722 280.47 68.8346 280.11C68.897 279.75 69.2388 279.508 69.5978 279.571L78.4365 281.11C78.7944 281.171 79.0353 281.512 78.9746 281.871L78.9736 281.876C78.9384 282.105 78.786 282.299 78.5721 282.386Z" fill="white"/>
<path d="M110.185 242.244C110.041 242.294 109.885 242.298 109.739 242.255C107.584 241.526 105.696 240.165 104.32 238.348C104.118 238.044 104.195 237.635 104.493 237.426C104.799 237.223 105.21 237.305 105.416 237.61C106.628 239.18 108.275 240.356 110.15 240.992C110.503 241.074 110.723 241.429 110.641 241.784C110.589 242.008 110.424 242.19 110.205 242.261L110.185 242.244Z" fill="white"/>
<path d="M93.798 332.663C93.5949 332.747 93.3634 332.724 93.1811 332.601C92.884 332.403 92.8027 332.001 92.9995 331.703L93.0101 331.688C94.4675 329.501 99.5821 328.092 100.152 327.941C100.503 327.846 100.863 328.055 100.958 328.407L100.96 328.417C101.058 328.761 100.86 329.119 100.517 329.218L100.497 329.223C99.0542 329.609 95.1002 330.926 94.0576 332.442C93.9896 332.535 93.9007 332.611 93.798 332.663Z" fill="white"/>
<path d="M136.619 289.349C136.51 289.395 136.389 289.407 136.273 289.385L133.352 288.84C133.02 288.785 132.795 288.47 132.85 288.137L132.855 288.109C132.918 287.771 133.242 287.547 133.579 287.61L133.583 287.61L136.503 288.155C136.846 288.137 137.139 288.401 137.157 288.745C137.174 289.063 136.95 289.342 136.637 289.393L136.619 289.349Z" fill="white"/>
</g>
<path d="M95.7952 333.604C77.5077 331.416 65.2452 307.707 68.4575 280.778C71.6699 253.85 89.163 233.714 107.45 235.902C125.738 238.089 138 261.799 134.781 288.743C131.562 315.687 114.076 335.807 95.7952 333.604ZM107.116 238.322C89.9445 236.255 73.4765 255.41 70.4259 281.034C67.3753 306.657 78.8919 329.143 96.101 331.273C113.31 333.402 129.747 314.169 132.802 288.557C135.857 262.944 124.342 240.368 107.116 238.322Z" fill="#263238"/>
<path d="M112.384 238.622C95.2438 236.567 78.8178 255.732 75.7628 281.344C72.7078 306.956 84.1623 329.48 101.303 331.534C118.443 333.588 134.857 314.428 137.908 288.805C140.959 263.181 129.48 240.694 112.384 238.622ZM132.582 287.069L114.088 284.848C114.155 283.914 114.146 282.975 114.063 282.042L132.386 273.121C132.986 277.752 133.04 282.438 132.549 287.082L132.582 287.069ZM132.066 270.963L113.743 279.885C113.586 279.141 113.372 278.411 113.104 277.7L128.52 259.394C130.201 263.08 131.382 266.976 132.033 270.976L132.066 270.963ZM127.55 257.51L112.112 275.761C111.78 275.201 111.39 274.678 110.948 274.201L120.896 249.217C123.617 251.531 125.865 254.352 127.517 257.524L127.55 257.51ZM111.611 245.106C114.411 245.461 117.085 246.487 119.407 248.097L109.486 273.018C109.067 272.758 108.615 272.558 108.141 272.422L111.398 245.088L111.611 245.106ZM109.583 244.991L106.286 272.224C105.752 272.248 105.224 272.347 104.717 272.518L100.862 247.266C103.531 245.814 106.513 245.038 109.549 245.004L109.583 244.991ZM99.1826 248.25L103.026 273.378C102.523 273.713 102.056 274.1 101.633 274.532L91.8566 254.925C93.9147 252.326 96.3772 250.076 99.1493 248.264L99.1826 248.25ZM90.5722 256.642L100.28 276.173C99.8215 276.849 99.4164 277.561 99.0686 278.3L84.9489 267.038C86.3777 263.359 88.2553 259.871 90.5389 256.656L90.5722 256.642ZM84.1838 269.089L98.2679 280.327C98.0066 281.161 97.8 282.012 97.6493 282.874L81.348 280.922C81.8862 276.898 82.8252 272.938 84.1505 269.102L84.1838 269.089ZM81.0467 283.071L97.3524 285.034C97.287 285.965 97.2939 286.899 97.373 287.828L81.1201 295.777C80.6567 291.555 80.632 287.297 81.0467 283.071ZM81.3536 297.943L97.6929 289.986C97.8508 290.729 98.0646 291.46 98.3325 292.17L84.3136 308.883C82.8971 305.375 81.9062 301.71 81.3624 297.965L81.3536 297.943ZM85.1994 310.813L99.2847 294.074C99.6237 294.631 100.017 295.152 100.459 295.63L90.9949 319.374C88.5891 316.882 86.6212 314 85.175 310.849L85.1994 310.813ZM92.4731 320.691L101.972 296.844C102.389 297.101 102.838 297.303 103.306 297.445L100.065 324.656C97.257 323.957 94.6495 322.612 92.4487 320.727L92.4731 320.691ZM102.056 325.032L101.825 325.099L105.086 297.776C105.619 297.747 106.146 297.645 106.65 297.471L110.756 323.901C107.983 325.009 104.975 325.395 102.014 325.023L102.056 325.032ZM112.496 323.034L108.445 296.517C108.943 296.175 109.409 295.789 109.839 295.364L120.49 316.776C118.218 319.343 115.501 321.475 112.471 323.07L112.496 323.034ZM121.848 315.146L111.192 293.722C111.651 293.043 112.055 292.328 112.399 291.584L128.258 304.24C126.626 308.167 124.46 311.849 121.823 315.181L121.848 315.146ZM129.066 302.198L113.157 289.549C113.422 288.715 113.629 287.864 113.776 287.001L132.281 289.218C131.685 293.664 130.598 298.029 129.041 302.234L129.066 302.198Z" fill="#263238"/>
<path d="M77.3111 281.549C80.3661 255.936 97.1161 236.81 114.633 238.906C132.151 241.003 143.929 263.564 140.879 289.187C137.828 314.811 121.074 333.926 103.552 331.818C86.0301 329.711 74.2561 307.161 77.3111 281.549ZM82.8809 282.218C80.2557 304.261 89.8767 323.607 104.33 325.345C118.783 327.084 132.684 310.561 135.309 288.518C137.934 266.475 128.313 247.129 113.86 245.391C99.4074 243.652 85.5062 260.175 82.8809 282.218Z" fill="#263238"/>
<path d="M77.3111 281.549C80.3661 255.936 97.1161 236.81 114.633 238.906C132.151 241.003 143.929 263.564 140.879 289.187C137.828 314.811 121.074 333.926 103.552 331.818C86.0301 329.711 74.2561 307.161 77.3111 281.549ZM82.8809 282.218C80.2557 304.261 89.8767 323.607 104.33 325.345C118.783 327.084 132.684 310.561 135.309 288.518C137.934 266.475 128.313 247.129 113.86 245.391C99.4074 243.652 85.5062 260.175 82.8809 282.218Z" fill="#263238"/>
<g opacity="0.2">
<path d="M77.3111 281.549C80.3661 255.936 97.1161 236.81 114.633 238.906C132.151 241.003 143.929 263.564 140.879 289.187C137.828 314.811 121.074 333.926 103.552 331.818C86.0301 329.711 74.2561 307.161 77.3111 281.549ZM82.8809 282.218C80.2557 304.261 89.8767 323.607 104.33 325.345C118.783 327.084 132.684 310.561 135.309 288.518C137.934 266.475 128.313 247.129 113.86 245.391C99.4074 243.652 85.5062 260.175 82.8809 282.218Z" fill="white"/>
<path d="M77.3111 281.549C80.3661 255.936 97.1161 236.81 114.633 238.906C132.151 241.003 143.929 263.564 140.879 289.187C137.828 314.811 121.074 333.926 103.552 331.818C86.0301 329.711 74.2561 307.161 77.3111 281.549ZM82.8809 282.218C80.2557 304.261 89.8767 323.607 104.33 325.345C118.783 327.084 132.684 310.561 135.309 288.518C137.934 266.475 128.313 247.129 113.86 245.391C99.4074 243.652 85.5062 260.175 82.8809 282.218Z" fill="white"/>
</g>
<path d="M116.918 234.243C112.361 233.708 107.743 234.349 103.502 236.105L103.533 236.183C89.1105 241.975 77.2355 259.479 74.6257 281.271C71.245 309.52 84.7615 334.534 104.711 336.855C109.268 337.375 113.882 336.735 118.127 334.993C132.549 329.201 144.436 311.692 147.03 289.894C150.408 261.607 136.91 236.637 116.918 234.243ZM140.541 289.18C138.301 307.865 128.337 323.802 115.711 328.872C112.488 330.213 108.977 330.707 105.511 330.308C98.0325 329.437 91.3455 324.192 86.7105 315.604C81.6981 306.264 79.6876 294.35 81.1609 282.004C83.3963 263.308 93.3809 247.39 105.984 242.328L105.966 242.283C109.193 240.941 112.707 240.446 116.178 240.843C132.262 242.766 143.412 264.882 140.541 289.18Z" fill="#263238"/>
<path d="M195.881 316.139H159.933C152.698 316.133 146.834 310.016 146.828 302.469V264.097C146.91 263.001 147.828 262.182 148.879 262.267C149.816 262.343 150.56 263.12 150.633 264.097V302.469C150.64 307.824 154.8 312.163 159.933 312.17H195.881C201.533 312.111 206.093 307.333 206.124 301.438V264.145C206.206 263.049 207.124 262.23 208.175 262.315C209.112 262.391 209.856 263.167 209.929 264.145V301.438C209.929 309.538 203.647 316.113 195.881 316.139Z" fill="#263238"/>
<path d="M123.824 251.615C123.672 251.608 123.526 251.553 123.406 251.459C121.675 249.978 120.426 248.011 119.821 245.81C119.747 245.453 119.969 245.102 120.323 245.019C120.682 244.945 121.034 245.175 121.112 245.534C121.656 247.444 122.749 249.15 124.254 250.439C124.552 250.648 124.625 251.059 124.418 251.358C124.286 251.547 124.066 251.653 123.836 251.639L123.824 251.615Z" fill="#263238"/>
<path d="M75.1287 329.45C74.909 329.452 74.7027 329.344 74.579 329.162C74.3763 328.868 74.4495 328.464 74.7426 328.261L74.7582 328.251C76.9211 326.764 82.191 327.363 82.7765 327.435C83.137 327.478 83.3944 327.806 83.3515 328.168L83.3501 328.179C83.3138 328.535 82.997 328.793 82.6424 328.757L82.6212 328.754C81.1394 328.574 76.9809 328.323 75.4513 329.342C75.3538 329.403 75.2432 329.44 75.1287 329.45Z" fill="#263238"/>
<path d="M78.7373 328.898C75.1524 328.898 72.2485 332.495 72.2485 336.872C72.2485 341.249 75.1524 344.846 78.7373 344.846C82.3223 344.846 85.226 341.249 85.226 336.872C85.226 332.495 82.3103 328.898 78.7373 328.898Z" fill="#263238"/>
<path d="M77.8411 337.257V328.239H84.2821L80.9003 337.833C80.6842 338.468 80.0873 338.893 79.4185 338.888C78.5473 338.888 77.8407 338.18 77.8403 337.306L77.8411 337.257Z" fill="#263238"/>
<path d="M161.25 229.49C161.25 229.49 124.015 227.596 114.312 264.193H163.306L161.25 229.49Z" fill="#1355FF"/>
<path opacity="0.4" d="M161.25 229.49C161.25 229.49 124.015 227.596 114.312 264.193H163.306L161.25 229.49Z" fill="black"/>
<path d="M143.817 264.145C143.817 264.145 147.641 259.157 147.641 250.475V223.051C147.639 219.739 149.937 216.874 153.162 216.168C163.917 213.77 187.518 209.753 199.671 216.516C200.655 217.073 201.29 218.094 201.356 219.226L203.973 265.345L143.817 264.145Z" fill="#1355FF"/>
<path opacity="0.4" d="M143.817 264.145C143.817 264.145 147.641 259.157 147.641 250.475V223.051C147.639 219.739 149.937 216.874 153.162 216.168C163.917 213.77 187.518 209.753 199.671 216.516C200.655 217.073 201.29 218.094 201.356 219.226L203.973 265.345L143.817 264.145Z" fill="black"/>
<path d="M114.311 264.146C114.311 264.146 113.63 259.349 117.215 258.857C120.8 258.366 196.383 258.174 199.526 258.857C202.668 259.541 203.302 261.663 203.302 264.146H114.311Z" fill="#1355FF"/>
<path opacity="0.3" d="M114.311 264.146C114.311 264.146 113.63 259.349 117.215 258.857C120.8 258.366 196.383 258.174 199.526 258.857C202.668 259.541 203.302 261.663 203.302 264.146H114.311Z" fill="black"/>
<path d="M213.567 286.905H104.812V293.153H213.567V286.905Z" fill="#263238"/>
<path opacity="0.2" d="M213.567 286.905H104.812V293.153H213.567V286.905Z" fill="white"/>
<path opacity="0.2" d="M213.567 286.905H104.812V293.153H213.567V286.905Z" fill="black"/>
<path d="M93.7461 328.322H73.6704C72.5781 328.407 71.6238 327.588 71.5388 326.492C71.4538 325.396 72.2704 324.438 73.3626 324.353C73.465 324.345 73.5679 324.345 73.6704 324.353H93.7461C95.1168 324.378 96.4173 323.745 97.2473 322.65C105.313 311.462 107.668 282.575 108.301 270.668C108.555 265.901 112.482 262.166 117.239 262.166H205.441C206.533 262.081 207.488 262.9 207.573 263.996C207.658 265.092 206.841 266.05 205.749 266.135C205.646 266.143 205.544 266.143 205.441 266.135H117.287C114.615 266.139 112.419 268.253 112.304 270.932C111.491 286.149 108.875 313.417 100.498 325.025C98.9029 327.145 96.3928 328.371 93.7461 328.322Z" fill="#263238"/>
<path opacity="0.4" d="M93.7461 328.322H73.6704C72.5781 328.407 71.6238 327.588 71.5388 326.492C71.4538 325.396 72.2704 324.438 73.3626 324.353C73.465 324.345 73.5679 324.345 73.6704 324.353H93.7461C95.1168 324.378 96.4173 323.745 97.2473 322.65C105.313 311.462 107.668 282.575 108.301 270.668C108.555 265.901 112.482 262.166 117.239 262.166H205.441C206.533 262.081 207.488 262.9 207.573 263.996C207.658 265.092 206.841 266.05 205.749 266.135C205.646 266.143 205.544 266.143 205.441 266.135H117.287C114.615 266.139 112.419 268.253 112.304 270.932C111.491 286.149 108.875 313.417 100.498 325.025C98.9029 327.145 96.3928 328.371 93.7461 328.322Z" fill="white"/>
<path d="M132.65 216.672C132.673 216.6 132.691 216.527 132.715 216.456C132.65 216.548 132.635 216.62 132.65 216.672Z" fill="#263238"/>
<path d="M186.231 210.118C186.231 210.118 168.089 208.277 152.112 208.605V212.879L133.276 216.261C133.076 216.605 132.697 216.655 132.649 216.491C131.971 218.527 131.552 220.637 131.412 222.774C131.197 225.507 131.221 228.252 131.483 230.981C132.475 242.012 137.279 247.874 139.848 250.219C140.345 250.699 140.885 251.134 141.461 251.52L166.969 252.094C175.214 252.071 182.808 253.149 187.026 250.254C196.514 243.724 186.231 210.118 186.231 210.118Z" fill="#263238"/>
<path d="M131.267 216.564C119.96 219.262 95.6421 223.407 91.2407 232.715C85.1794 245.533 88.9909 315.015 88.9909 315.015L100.091 314.155C100.091 314.155 109.749 258.779 108.852 252.675C119.463 248.322 130.783 250.412 139.848 251.146C141.509 251.29 143.182 251.398 144.879 251.494L152.112 212.978C152.112 212.978 143.712 214.85 131.267 216.564ZM108.4 252.591C108.489 252.608 108.595 252.628 108.709 252.649L108.4 252.591Z" fill="#263238"/>
<path d="M202.848 229.49C195.158 229.862 172.178 233.208 164.102 259.301C163.768 260.394 164.23 261.608 165.134 262.012C165.324 262.097 165.525 262.141 165.727 262.143H207.208L205.553 232.416C205.458 230.714 204.257 229.415 202.848 229.49Z" fill="#1355FF"/>
<path opacity="0.3" d="M202.848 229.49C195.188 229.862 172.129 233.195 164.072 259.312C163.739 260.406 164.2 261.62 165.104 262.024C165.294 262.109 165.495 262.153 165.698 262.154H207.178L205.523 232.428C205.428 230.738 204.247 229.441 202.848 229.49Z" fill="black"/>
<path d="M131.508 328.898C127.923 328.898 125.019 332.495 125.019 336.872C125.019 341.249 127.935 344.846 131.508 344.846C135.081 344.846 137.997 341.249 137.997 336.872C137.997 332.495 135.093 328.898 131.508 328.898Z" fill="#263238"/>
<path opacity="0.2" d="M131.508 341.994C129.536 341.994 127.863 339.655 127.863 336.873C127.863 334.091 129.536 331.74 131.508 331.74C133.48 331.74 135.093 334.139 135.093 336.873C135.093 339.607 133.492 341.994 131.508 341.994Z" fill="white"/>
<path d="M130.623 337.257V328.239H137.052L133.682 337.833C133.46 338.463 132.867 338.886 132.2 338.888C131.329 338.888 130.622 338.18 130.622 337.306L130.623 337.257Z" fill="#263238"/>
<path opacity="0.6" d="M130.623 337.257V328.239H137.052L133.682 337.833C133.46 338.463 132.867 338.886 132.2 338.888C131.329 338.888 130.622 338.18 130.622 337.306L130.623 337.257Z" fill="white"/>
<path d="M145.552 328.322H88.0725C87.0217 328.237 86.2362 327.279 86.3178 326.183C86.3908 325.206 87.1353 324.429 88.0725 324.353H145.552C146.871 324.378 148.122 323.745 148.92 322.65C156.68 311.462 158.945 282.575 159.554 270.668C159.798 265.901 163.576 262.166 168.153 262.166H212.389C213.44 262.081 214.358 262.9 214.44 263.996C214.522 265.092 213.736 266.05 212.685 266.135C212.587 266.143 212.488 266.143 212.389 266.135H168.188C165.614 266.133 163.499 268.25 163.394 270.932C162.612 286.149 160.094 313.417 152.036 325.025C150.504 327.141 148.094 328.367 145.552 328.322Z" fill="#263238"/>
<path opacity="0.4" d="M145.552 328.322H88.0725C87.0217 328.237 86.2362 327.279 86.3178 326.183C86.3908 325.206 87.1353 324.429 88.0725 324.353H145.552C146.871 324.378 148.122 323.745 148.92 322.65C156.68 311.462 158.945 282.575 159.554 270.668C159.798 265.901 163.576 262.166 168.153 262.166H212.389C213.44 262.081 214.358 262.9 214.44 263.996C214.522 265.092 213.736 266.05 212.685 266.135C212.587 266.143 212.488 266.143 212.389 266.135H168.188C165.614 266.133 163.499 268.25 163.394 270.932C162.612 286.149 160.094 313.417 152.036 325.025C150.504 327.141 148.094 328.367 145.552 328.322Z" fill="white"/>
<path d="M164.405 286.777C164.359 315.276 180.699 338.5 200.819 338.49C220.938 338.48 237.339 315.366 237.396 286.872C237.453 258.378 221.106 235.165 200.994 235.138C180.881 235.11 164.435 258.308 164.405 286.777ZM174.159 271.042C174.375 270.272 174.639 269.514 174.92 268.725L173.67 267.97C175.026 263.658 176.958 259.55 179.414 255.759L180.646 257.544C181.099 256.89 181.577 256.265 182.054 255.665L180.786 253.82C183.163 250.546 186.152 247.768 189.587 245.642L190.332 248.295C190.961 247.916 191.616 247.565 192.264 247.252L191.525 244.589C194.447 243.119 197.668 242.345 200.937 242.327C201.01 242.321 201.083 242.32 201.156 242.324L201.119 244.888C201.446 244.863 201.788 244.86 202.114 244.861C202.492 244.853 202.87 244.869 203.246 244.91L203.232 242.441C206.71 242.877 210.039 244.119 212.957 246.067L212.541 247.478C213.19 247.836 213.84 248.193 214.49 248.551L214.833 247.372C217.766 249.716 220.302 252.52 222.345 255.675L222.299 255.759C228.579 263.671 232.524 275.208 232.508 288.012C232.488 311.248 219.381 330.253 203.12 331.058C202.734 331.092 202.365 331.094 201.979 331.101C201.594 331.108 201.306 331.086 200.981 331.058L200.976 331.192L200.751 331.205C197.309 331.184 193.922 330.334 190.876 328.727L191.029 328.196C190.38 327.838 189.74 327.487 189.126 327.04L188.96 327.618C185.708 325.504 182.871 322.808 180.59 319.664L180.975 319.11C180.512 318.486 180.06 317.841 179.642 317.16L179.235 317.729C176.668 313.761 174.68 309.444 173.333 304.91L173.912 304.573C173.679 303.802 173.502 302.979 173.29 302.22L172.682 302.584C171.456 297.786 170.803 292.86 170.738 287.907L171.593 287.913C171.591 287.119 171.611 286.309 171.641 285.505L170.737 285.514C170.859 280.373 171.612 275.266 172.978 270.31L174.159 271.042Z" fill="#263238"/>
<path d="M202.574 333.63C184.885 333.582 170.594 312.593 170.635 286.798C170.676 261.003 185.07 240.04 202.723 240.055C220.376 240.069 234.697 261.102 234.657 286.897C234.616 312.692 220.221 333.655 202.574 333.63ZM202.73 246.554C188.174 246.533 176.301 264.576 176.262 286.776C176.223 308.975 188.028 327.079 202.562 327.141C217.095 327.204 229.001 309.125 229.03 286.92C229.058 264.714 217.269 246.606 202.73 246.554Z" fill="#263238"/>
<path d="M202.574 333.63C184.885 333.582 170.594 312.593 170.635 286.798C170.676 261.003 185.07 240.04 202.723 240.055C220.376 240.069 234.697 261.102 234.657 286.897C234.616 312.692 220.221 333.655 202.574 333.63ZM202.73 246.554C188.174 246.533 176.301 264.576 176.262 286.776C176.223 308.975 188.028 327.079 202.562 327.141C217.095 327.204 229.001 309.125 229.03 286.92C229.058 264.714 217.269 246.606 202.73 246.554Z" fill="#263238"/>
<g opacity="0.2">
<path d="M202.574 333.63C184.885 333.582 170.594 312.593 170.635 286.798C170.676 261.003 185.07 240.04 202.723 240.055C220.376 240.069 234.697 261.102 234.657 286.897C234.616 312.692 220.221 333.655 202.574 333.63ZM202.73 246.554C188.174 246.533 176.301 264.576 176.262 286.776C176.223 308.975 188.028 327.079 202.562 327.141C217.095 327.204 229.001 309.125 229.03 286.92C229.058 264.714 217.269 246.606 202.73 246.554Z" fill="white"/>
<path d="M202.574 333.63C184.885 333.582 170.594 312.593 170.635 286.798C170.676 261.003 185.07 240.04 202.723 240.055C220.376 240.069 234.697 261.102 234.657 286.897C234.616 312.692 220.221 333.655 202.574 333.63ZM202.73 246.554C188.174 246.533 176.301 264.576 176.262 286.776C176.223 308.975 188.028 327.079 202.562 327.141C217.095 327.204 229.001 309.125 229.03 286.92C229.058 264.714 217.269 246.606 202.73 246.554Z" fill="white"/>
</g>
<path d="M173.663 286.795C173.627 312.606 187.612 333.604 204.885 333.642C222.157 333.68 236.21 312.693 236.251 286.898C236.292 261.103 222.296 240.099 205.034 240.067C187.772 240.035 173.704 261 173.663 286.795ZM181.016 271.886L198.135 282.957C197.946 283.875 197.825 284.804 197.774 285.74L179.148 285.709C179.23 281.044 179.857 276.405 181.016 271.886ZM186.533 258.744L199.682 278.803C199.33 279.476 199.03 280.175 198.785 280.894L181.666 269.824C182.782 265.927 184.42 262.2 186.533 258.744ZM195.216 249.558L202.103 275.568C201.6 275.982 201.147 276.453 200.751 276.971L187.669 256.962C189.687 254.031 192.25 251.517 195.216 249.558ZM205.185 246.577L205.137 274.105C204.652 274.187 204.179 274.331 203.731 274.535L196.873 248.596C199.374 247.276 202.156 246.583 204.981 246.575L205.185 246.577ZM215.351 249.994L208.493 274.597C208.01 274.367 207.498 274.205 206.971 274.116L207.019 246.711C210.042 247.109 212.921 248.246 215.403 250.023L215.351 249.994ZM223.392 258.698L211.355 276.992C210.987 276.512 210.57 276.072 210.11 275.678L216.942 251.198C219.493 253.336 221.682 255.874 223.424 258.715L223.392 258.698ZM228.817 271.569L213.449 281.043C213.192 280.266 212.875 279.512 212.502 278.785L224.482 260.569C226.391 264.044 227.858 267.745 228.849 271.586L228.817 271.569ZM230.726 285.787L214.346 285.762C214.3 284.888 214.197 284.018 214.038 283.158L229.368 273.704C230.238 277.68 230.704 281.734 230.757 285.804L230.726 285.787ZM229.18 300.567L213.956 290.716C214.143 289.801 214.258 288.872 214.301 287.939L230.767 287.957C230.687 292.208 230.165 296.441 229.211 300.584L229.18 300.567ZM224.426 313.186L212.498 294.933C212.858 294.264 213.161 293.567 213.405 292.847L228.66 302.715C227.672 306.363 226.251 309.878 224.426 313.186ZM216.535 322.793L210.009 298.117C210.505 297.696 210.958 297.226 211.361 296.714L223.335 315.033C221.526 317.99 219.226 320.615 216.535 322.793ZM206.916 326.979L206.964 299.574C207.447 299.49 207.916 299.344 208.361 299.139L214.929 323.961C212.527 325.576 209.784 326.61 206.916 326.979ZM196.423 324.858L203.598 299.076C204.078 299.31 204.588 299.476 205.114 299.568L205.073 327.086L204.874 327.1C201.915 327.074 199.009 326.303 196.423 324.858ZM187.598 316.667L200.793 296.727C201.169 297.2 201.585 297.64 202.038 298.04L194.823 323.896C191.998 321.945 189.55 319.496 187.598 316.667ZM181.39 303.284L198.663 292.642C198.916 293.423 199.23 294.181 199.605 294.911L186.434 314.906C184.228 311.283 182.531 307.372 181.39 303.284ZM179.167 287.894L197.793 287.924C197.839 288.801 197.946 289.673 198.112 290.534L180.822 301.18C179.778 296.827 179.223 292.371 179.167 287.894Z" fill="#263238"/>
<path opacity="0.2" d="M173.663 286.795C173.627 312.606 187.612 333.604 204.885 333.642C222.157 333.68 236.21 312.693 236.251 286.898C236.292 261.103 222.296 240.099 205.034 240.067C187.772 240.035 173.704 261 173.663 286.795ZM181.016 271.886L198.135 282.957C197.946 283.875 197.825 284.804 197.774 285.74L179.148 285.709C179.23 281.044 179.857 276.405 181.016 271.886ZM186.533 258.744L199.682 278.803C199.33 279.476 199.03 280.175 198.785 280.894L181.666 269.824C182.782 265.927 184.42 262.2 186.533 258.744ZM195.216 249.558L202.103 275.568C201.6 275.982 201.147 276.453 200.751 276.971L187.669 256.962C189.687 254.031 192.25 251.517 195.216 249.558ZM205.185 246.577L205.137 274.105C204.652 274.187 204.179 274.331 203.731 274.535L196.873 248.596C199.374 247.276 202.156 246.583 204.981 246.575L205.185 246.577ZM215.351 249.994L208.493 274.597C208.01 274.367 207.498 274.205 206.971 274.116L207.019 246.711C210.042 247.109 212.921 248.246 215.403 250.023L215.351 249.994ZM223.392 258.698L211.355 276.992C210.987 276.512 210.57 276.072 210.11 275.678L216.942 251.198C219.493 253.336 221.682 255.874 223.424 258.715L223.392 258.698ZM228.817 271.569L213.449 281.043C213.192 280.266 212.875 279.512 212.502 278.785L224.482 260.569C226.391 264.044 227.858 267.745 228.849 271.586L228.817 271.569ZM230.726 285.787L214.346 285.762C214.3 284.888 214.197 284.018 214.038 283.158L229.368 273.704C230.238 277.68 230.704 281.734 230.757 285.804L230.726 285.787ZM229.18 300.567L213.956 290.716C214.143 289.801 214.258 288.872 214.301 287.939L230.767 287.957C230.687 292.208 230.165 296.441 229.211 300.584L229.18 300.567ZM224.426 313.186L212.498 294.933C212.858 294.264 213.161 293.567 213.405 292.847L228.66 302.715C227.672 306.363 226.251 309.878 224.426 313.186ZM216.535 322.793L210.009 298.117C210.505 297.696 210.958 297.226 211.361 296.714L223.335 315.033C221.526 317.99 219.226 320.615 216.535 322.793ZM206.916 326.979L206.964 299.574C207.447 299.49 207.916 299.344 208.361 299.139L214.929 323.961C212.527 325.576 209.784 326.61 206.916 326.979ZM196.423 324.858L203.598 299.076C204.078 299.31 204.588 299.476 205.114 299.568L205.073 327.086L204.874 327.1C201.915 327.074 199.009 326.303 196.423 324.858ZM187.598 316.667L200.793 296.727C201.169 297.2 201.585 297.64 202.038 298.04L194.823 323.896C191.998 321.945 189.55 319.496 187.598 316.667ZM181.39 303.284L198.663 292.642C198.916 293.423 199.23 294.181 199.605 294.911L186.434 314.906C184.228 311.283 182.531 307.372 181.39 303.284ZM179.167 287.894L197.793 287.924C197.839 288.801 197.946 289.673 198.112 290.534L180.822 301.18C179.778 296.827 179.223 292.371 179.167 287.894Z" fill="white"/>
<path opacity="0.4" d="M207.945 278.645C211.282 278.648 214.015 282.502 213.991 287.235C213.968 291.967 211.257 295.809 207.941 295.817C204.624 295.826 201.877 291.949 201.895 287.227C201.912 282.505 204.598 278.636 207.945 278.645Z" fill="white"/>
<path d="M233.305 287.575C233.414 287.634 233.538 287.66 233.661 287.648L242.62 287.188C242.984 287.169 243.264 286.858 243.245 286.493C243.226 286.127 242.916 285.846 242.552 285.865L233.593 286.325C233.23 286.342 232.95 286.651 232.968 287.015L232.968 287.021C232.975 287.252 233.103 287.463 233.305 287.575Z" fill="#263238"/>
<path d="M212.157 335.646C212.348 335.757 212.581 335.761 212.777 335.659C213.097 335.495 213.226 335.103 213.066 334.779C211.871 332.426 206.974 330.416 206.415 330.191C206.076 330.053 205.691 330.218 205.554 330.558C205.417 330.898 205.581 331.285 205.92 331.422C207.305 331.979 211.072 333.764 211.925 335.396C211.982 335.497 212.061 335.582 212.157 335.646Z" fill="#263238"/>
<path d="M174.846 287.473C174.949 287.532 175.067 287.559 175.185 287.551L178.149 287.362C178.492 287.347 178.757 287.055 178.742 286.711L178.741 286.703C178.716 286.355 178.416 286.091 178.068 286.114L175.104 286.302C174.767 286.317 174.506 286.602 174.521 286.939L174.522 286.967C174.532 287.182 174.655 287.375 174.846 287.473Z" fill="#263238"/>
<g opacity="0.4">
<path d="M233.305 287.576C233.414 287.635 233.538 287.66 233.661 287.648L242.62 287.188C242.984 287.17 243.264 286.858 243.245 286.493C243.226 286.128 242.916 285.847 242.552 285.866L233.593 286.326C233.23 286.343 232.95 286.652 232.968 287.016L232.968 287.021C232.975 287.253 233.103 287.463 233.305 287.576Z" fill="white"/>
<path d="M206.739 243.905C206.876 243.972 207.03 243.995 207.181 243.97C209.41 243.513 211.449 242.389 213.03 240.746C213.271 240.474 213.246 240.057 212.974 239.815L212.969 239.81C212.689 239.572 212.27 239.604 212.03 239.882C210.638 241.293 208.862 242.262 206.925 242.667C206.564 242.706 206.303 243.031 206.342 243.393C206.367 243.623 206.509 243.823 206.717 243.92L206.739 243.905Z" fill="white"/>
<path d="M212.157 335.646C212.348 335.757 212.581 335.761 212.777 335.659C213.097 335.495 213.226 335.103 213.066 334.779C211.871 332.426 206.974 330.416 206.415 330.191C206.076 330.053 205.691 330.218 205.554 330.558C205.417 330.898 205.581 331.285 205.92 331.422C207.305 331.979 211.072 333.764 211.925 335.396C211.982 335.497 212.061 335.582 212.157 335.646Z" fill="white"/>
<path d="M174.846 287.473C174.949 287.532 175.067 287.559 175.185 287.551L178.149 287.362C178.492 287.347 178.757 287.055 178.742 286.711L178.741 286.703C178.716 286.355 178.416 286.091 178.068 286.114L175.104 286.302C174.767 286.317 174.506 286.602 174.521 286.939L174.522 286.967C174.532 287.182 174.655 287.375 174.846 287.473Z" fill="white"/>
</g>
<path d="M176.743 287.094C176.791 259.963 191.793 237.939 210.216 237.94C228.64 237.941 243.578 260.064 243.54 287.201C243.502 314.338 228.49 336.357 210.062 336.339C191.634 336.322 176.672 314.267 176.743 287.094ZM178.759 287.096C178.718 312.891 192.72 333.884 210.067 333.935C227.414 333.987 241.483 312.995 241.524 287.2C241.565 261.405 227.563 240.412 210.216 240.36C192.869 240.309 178.806 261.29 178.79 287.113L178.759 287.096Z" fill="#263238"/>
<path opacity="0.6" d="M176.743 287.094C176.791 259.963 191.793 237.939 210.216 237.94C228.64 237.941 243.578 260.064 243.54 287.201C243.502 314.338 228.49 336.357 210.062 336.339C191.634 336.322 176.672 314.267 176.743 287.094ZM178.759 287.096C178.718 312.891 192.72 333.884 210.067 333.935C227.414 333.987 241.483 312.995 241.524 287.2C241.565 261.405 227.563 240.412 210.216 240.36C192.869 240.309 178.806 261.29 178.79 287.113L178.759 287.096Z" fill="white"/>
<path opacity="0.4" d="M163.306 215.753L151.106 218.339V214.441L147.947 219.793C147.947 219.793 139.485 220.804 131.412 222.775C126.21 224.044 113.601 227.689 111.191 232.103C108.782 236.518 108.853 252.676 108.853 252.676L111.384 251.64C111.384 251.64 140.505 228.407 148.867 221.852L163.306 215.753Z" fill="black"/>
<path d="M166.427 225.761C164.468 223.432 161.81 221.804 158.851 221.12C158.851 221.12 157.8 221.168 156.007 221.288C147.833 221.84 119.806 224.311 113.156 234.072C108.388 241.072 110.033 315.911 110.033 315.911H123.495C123.495 315.911 133.195 257.729 132.299 251.626L164.019 251.254C164.019 251.254 174.637 235.725 166.427 225.761Z" fill="#263238"/>
<path d="M89.0657 308.374C90.7048 307.998 91.7148 308.397 91.8446 309.88C92.6191 309.875 93.35 310.298 93.831 310.978C95.9055 313.909 97.3507 312.788 99.4029 310.008C100.762 309.826 101.188 311.534 101.315 311.992L104.222 322.14C104.473 322.988 104.053 323.875 103.284 324.122C103.148 324.166 103.005 324.188 102.861 324.186C98.7046 324.212 96.7381 324.224 91.565 324.255L75.7439 324.351C71.4309 324.377 70.3747 319.636 72.1362 319.187C80.0589 317.21 85.628 314.609 88.0103 312.056C88.4529 311.609 88.6151 309.753 89.0657 308.374Z" fill="#1355FF"/>
<path d="M75.4454 323.054C78.3749 323.789 82.476 320.894 86.2111 320.867C89.946 320.839 89.946 322.487 96.464 322.99C102.982 323.493 103.857 320.867 103.857 320.867L103.857 320.867L104.222 322.14C104.473 322.988 104.053 323.875 103.284 324.122C103.148 324.166 103.005 324.188 102.861 324.186C98.7046 324.212 96.7381 324.224 91.565 324.255L75.7439 324.351C73.4431 324.365 72.0779 323.023 71.564 321.698C72.0417 321.947 73.259 322.506 75.4454 323.054Z" fill="white"/>
<path d="M98.0735 318.742C95.9166 319.015 93.7708 318.47 91.9649 317.265C91.634 317.045 91.3252 317.58 91.6541 317.799C93.5381 319.055 95.8219 319.645 98.0735 319.36C98.4614 319.311 98.4663 318.692 98.0735 318.742Z" fill="white"/>
<path d="M87.4727 315.474C87.0472 314.863 86.6216 314.252 86.1961 313.641C86.104 313.509 85.9223 313.435 85.7746 313.531C85.6436 313.615 85.5654 313.812 85.6641 313.953C86.0896 314.564 86.5152 315.175 86.9407 315.786C87.0328 315.919 87.2146 315.993 87.3622 315.897C87.4932 315.813 87.5714 315.616 87.4727 315.474Z" fill="black"/>
<path d="M85.4458 316.614C85.2304 316.362 85.0443 316.1 84.8617 315.79C84.6818 315.484 84.527 315.159 84.4134 314.86C84.3562 314.709 84.2032 314.589 84.0345 314.644C83.888 314.691 83.7579 314.862 83.8193 315.024C84.1008 315.765 84.4948 316.448 85.0102 317.051C85.1155 317.174 85.3392 317.167 85.4458 317.051C85.5658 316.92 85.5582 316.745 85.4458 316.614Z" fill="black"/>
<path d="M83.2964 317.743C83.081 317.491 82.8948 317.23 82.7123 316.919C82.5324 316.613 82.3776 316.288 82.264 315.989C82.2068 315.838 82.0538 315.718 81.885 315.773C81.7386 315.821 81.6085 315.992 81.6699 316.153C81.9514 316.895 82.3454 317.578 82.8608 318.18C82.9661 318.303 83.1898 318.297 83.2964 318.18C83.4164 318.049 83.4087 317.875 83.2964 317.743Z" fill="black"/>
<g opacity="0.4">
<path d="M89.0657 308.374C90.7048 307.998 91.7148 308.397 91.8446 309.88C92.6191 309.875 93.35 310.298 93.831 310.978C95.9055 313.909 97.3507 312.788 99.4029 310.008C100.762 309.826 101.188 311.534 101.315 311.992L104.222 322.14C104.473 322.988 104.053 323.875 103.284 324.122C103.148 324.166 103.005 324.188 102.861 324.186C98.7046 324.212 96.7381 324.224 91.565 324.255L75.7439 324.351C71.4309 324.377 70.3747 319.636 72.1362 319.187C80.0589 317.21 85.628 314.609 88.0103 312.056C88.4529 311.609 88.6151 309.753 89.0657 308.374Z" fill="black"/>
</g>
<path d="M110.588 307.659C112.536 307.268 113.736 307.684 113.89 309.228C114.811 309.223 115.679 309.664 116.251 310.372C118.716 313.425 120.433 312.257 122.872 309.361C124.487 309.172 124.993 310.951 125.144 311.429L128.598 321.999C128.897 322.881 128.398 323.806 127.484 324.063C127.322 324.109 127.152 324.132 126.981 324.13C122.042 324.156 119.705 324.169 113.558 324.202L94.7576 324.302C89.6324 324.329 88.3772 319.391 90.4704 318.922C99.8852 316.864 106.503 314.154 109.334 311.495C109.86 311.03 110.053 309.096 110.588 307.659Z" fill="#1355FF"/>
<path d="M94.4038 322.951C97.885 323.716 102.758 320.701 107.197 320.672C111.635 320.644 111.635 322.36 119.381 322.884C127.126 323.408 128.165 320.672 128.165 320.672L128.166 320.673L128.599 321.999C128.898 322.882 128.399 323.806 127.485 324.064C127.323 324.11 127.153 324.132 126.982 324.13C122.043 324.157 119.706 324.169 113.559 324.202L94.7585 324.302C92.0245 324.316 90.4021 322.918 89.7915 321.539C90.3591 321.797 91.8057 322.38 94.4038 322.951Z" fill="white"/>
<path d="M121.293 318.472C118.762 318.752 116.206 318.219 114.005 316.932C113.661 316.731 113.351 317.265 113.694 317.466C115.981 318.802 118.66 319.381 121.293 319.09C121.683 319.047 121.687 318.428 121.293 318.472Z" fill="white"/>
<path d="M108.595 315C108.09 314.363 107.585 313.727 107.079 313.09C106.978 312.963 106.748 312.977 106.644 313.09C106.521 313.225 106.536 313.392 106.644 313.527C107.149 314.164 107.655 314.8 108.16 315.437C108.261 315.564 108.492 315.55 108.595 315.437C108.719 315.302 108.703 315.135 108.595 315Z" fill="black"/>
<path d="M106.245 316.252C105.707 315.7 105.287 315.072 104.973 314.345C104.908 314.196 104.68 314.151 104.551 314.234C104.398 314.334 104.372 314.498 104.441 314.657C104.768 315.411 105.236 316.101 105.809 316.689C105.922 316.804 106.133 316.811 106.245 316.689C106.359 316.564 106.365 316.375 106.245 316.252Z" fill="black"/>
<path d="M103.69 317.428C103.152 316.876 102.732 316.248 102.418 315.521C102.353 315.372 102.125 315.327 101.996 315.41C101.842 315.51 101.817 315.674 101.886 315.833C102.212 316.587 102.681 317.277 103.254 317.865C103.367 317.981 103.578 317.987 103.69 317.865C103.803 317.74 103.81 317.551 103.69 317.428Z" fill="black"/>
<path opacity="0.4" d="M132.738 253.058C132.959 250.479 133.18 247.899 133.401 245.32C133.435 244.924 132.819 244.926 132.785 245.32C132.564 247.899 132.343 250.479 132.121 253.058C132.087 253.454 132.704 253.452 132.738 253.058Z" fill="black"/>
<path d="M147.487 141.484C147.985 145.29 148.012 149.187 147.565 153.067C147.565 153.067 168.46 154.627 173.55 149.907C178.64 145.187 180.657 119.34 169.327 117.78C157.998 116.219 144.729 125.867 147.487 141.484Z" fill="#263238"/>
<path d="M156.165 120.808C150.937 124.382 149.481 129.462 149.583 133.129C150.281 138.076 152.026 141.566 153.403 146.368L166.224 117.257C163.171 117.894 161.789 117.277 156.165 120.808Z" fill="#263238"/>
<path d="M172.954 118.496C182.973 122.044 186.827 128.382 186.29 135.622C185.753 142.861 177.194 150.842 175.787 151.179L171.382 151.99C171.382 151.99 177.774 142.179 176.365 139.018C174.956 135.857 173.586 135.588 173.586 135.588L172.954 118.496Z" fill="#263238"/>
<path d="M162.876 118.232C167.981 115.792 173.038 118.568 175.99 120.503C179.225 123.206 181.153 127.168 181.29 131.39C181.326 135.338 181.37 140.124 179.005 142.204C177.68 143.408 175.911 143.998 174.131 143.829L154.506 125.993C156.593 122.734 159.474 120.063 162.876 118.232Z" fill="#263238"/>
<path d="M162.619 171.618C164.129 173.153 165.491 172.623 167.48 171.785C179.322 167.386 175.752 161.661 175.752 161.661C173.473 159.028 173.345 155.855 174.122 151.008C174.136 150.866 174.141 150.724 174.136 150.582C174.122 149.937 173.909 149.311 173.527 148.792C172.521 147.344 170.535 146.988 169.092 147.998L169.088 148.001L163.783 149.576C163.769 149.65 163.755 149.723 163.74 149.806C163.75 152.453 163.844 154.507 163.841 156.124C163.804 156.316 163.841 156.523 163.833 156.712C163.797 156.905 163.813 157.117 163.815 157.308C163.708 159.523 160.005 162.81 158.491 163.596C157.573 164.134 157.494 166.443 162.619 171.618Z" fill="#FFB573"/>
<path opacity="0.2" d="M163.832 155.168C163.836 153.551 163.999 152.39 163.989 149.743C164.017 149.666 164.032 149.585 164.035 149.504L169.299 147.893C170.756 146.903 172.735 147.281 173.728 148.738C174.084 149.265 174.28 149.884 174.291 150.52C171.632 153.77 167.796 156.54 163.764 157.681L163.832 155.168Z" fill="black"/>
<path d="M177.984 132.526C177.865 141.656 178.016 145.509 173.74 150.507C167.301 158.011 156.385 156.127 153.793 147.193C151.526 139.148 152.058 125.596 160.594 121.327C169.132 117.058 178.096 123.385 177.984 132.526Z" fill="#FFB573"/>
<path d="M182.316 140.307C181.414 142.286 179.774 143.63 178.206 144.186C175.848 145.021 174.236 141.242 174.833 138.736C175.371 136.481 177.608 134.81 180.003 135.065C182.362 135.317 183.347 138.044 182.316 140.307Z" fill="#FFB573"/>
<path opacity="0.2" d="M177.167 140.506C177.056 140.506 176.965 140.418 176.961 140.306C176.937 139.374 177.288 138.452 177.925 137.775C178.563 137.098 179.46 136.693 180.388 136.665H180.394C180.505 136.665 180.596 136.753 180.599 136.865C180.603 136.978 180.514 137.073 180.4 137.077C179.58 137.102 178.787 137.459 178.224 138.058C177.661 138.656 177.35 139.471 177.372 140.295C177.375 140.408 177.285 140.503 177.172 140.506L177.167 140.506Z" fill="black"/>
<path d="M166.401 136.566C166.447 137.539 165.998 138.384 165.399 138.453C164.801 138.522 164.278 137.789 164.232 136.816C164.187 135.844 164.635 134.999 165.234 134.93C165.832 134.861 166.355 135.593 166.401 136.566Z" fill="#263238"/>
<path d="M157.401 137.387C157.443 138.33 156.994 139.15 156.397 139.219C155.8 139.288 155.282 138.58 155.239 137.637C155.196 136.694 155.646 135.873 156.243 135.804C156.84 135.735 157.358 136.444 157.401 137.387Z" fill="#263238"/>
<path d="M167.988 133.013C167.873 133.037 167.752 133.014 167.654 132.939C166.126 131.766 164.587 132.374 164.569 132.381C164.341 132.471 164.091 132.361 164.015 132.125C163.939 131.891 164.065 131.625 164.295 131.53C164.376 131.498 166.308 130.733 168.204 132.19C168.392 132.335 168.423 132.621 168.271 132.828C168.198 132.927 168.096 132.991 167.988 133.013Z" fill="#263238"/>
<path d="M153.945 133.078C153.85 133.056 153.767 132.995 153.717 132.898C153.615 132.699 153.692 132.426 153.889 132.289C155.864 130.916 157.493 131.664 157.562 131.698C157.756 131.79 157.824 132.046 157.715 132.27C157.606 132.493 157.361 132.599 157.167 132.508C157.104 132.478 155.831 131.919 154.26 133.011C154.159 133.082 154.045 133.102 153.945 133.078Z" fill="#263238"/>
<path d="M159.807 136.71C159.807 136.71 158.701 140.272 157.291 142.56C157.044 142.96 157.27 143.488 157.722 143.609C158.888 143.919 160.171 143.418 160.171 143.418L159.807 136.71Z" fill="#E88B3F"/>
<path d="M165.581 134.938L163.441 134.639C163.441 134.639 164.732 136.098 165.581 134.938Z" fill="#263238"/>
<path d="M156.461 135.806L154.321 135.507C154.321 135.507 155.612 136.966 156.461 135.806Z" fill="#263238"/>
<path d="M160.788 145.918C161.55 146.76 162.579 148.465 162.579 148.465C162.75 148.399 162.921 148.333 163.088 148.259C165.381 147.309 166.132 146.109 166.269 145.065C166.342 144.495 166.224 143.967 166.075 143.558C165.907 143.084 165.679 142.785 165.679 142.785C164.763 144.017 162.694 145.067 161.565 145.582C161.094 145.802 160.788 145.918 160.788 145.918Z" fill="#263238"/>
<path d="M161.564 145.582L162.112 146.319C164.27 145.42 165.669 144.496 166.075 143.558C165.907 143.084 165.679 142.785 165.679 142.785C164.763 144.017 162.693 145.067 161.564 145.582Z" fill="white"/>
<path d="M163.087 148.259C165.381 147.309 166.132 146.109 166.269 145.065C165.5 145.419 164.612 145.932 163.931 146.626C163.408 147.155 163.18 147.732 163.087 148.259Z" fill="#FD504E"/>
<path d="M175.086 134.78C175.086 134.78 169.833 128.87 169.625 123.775C169.625 123.775 150.993 119.809 152.857 135.897C152.857 135.897 148.709 122.008 163.879 119.593C179.049 117.178 182.369 137.057 175.548 144.061C175.52 143.989 178.336 138.483 175.086 134.78Z" fill="#263238"/>
<path d="M156.99 121.652C155.008 123.596 153.695 126.123 153.241 128.866C153.26 130.852 155.968 132.263 155.968 132.263L159.218 127.901L159.253 131.706C164.637 131.062 167.726 128.161 169.532 123.999L166.477 118.644C166.477 118.644 158.764 120.08 156.99 121.652Z" fill="#263238"/>
<path d="M152.836 165.66L146.242 177.725C139.78 167.056 128.334 130.532 130.895 124.821C133.456 119.109 153.613 103.997 153.613 103.997L159.026 105.734C159.026 105.734 141.265 126.089 140.947 130.464C140.628 134.839 148.233 154.183 152.786 158.912L152.836 165.66Z" fill="#FFB573"/>
<path d="M193.294 67.4685C193.943 65.6408 195.138 63.6417 197.085 62.9906L197.143 62.975C199.115 62.4623 201.127 63.6506 201.638 65.6294C202.143 67.4356 201.918 69.3688 201.012 71.0097C200.071 72.6546 198.707 74.0157 197.062 74.9506C195.37 75.9659 193.512 76.6736 191.575 77.041C190.593 77.2467 189.595 77.3728 188.593 77.418C187.492 77.4347 186.396 77.5455 185.314 77.7493C184.111 78.0056 183.022 78.6422 182.206 79.5656C181.281 80.5985 181.107 82.1061 181.774 83.3238C182.161 83.8999 182.75 84.308 183.425 84.4661C184.11 84.6552 184.845 84.4975 185.394 84.0434C185.92 83.5946 186.159 82.894 186.02 82.2157C185.904 81.5787 185.367 81.1054 184.722 81.0734C184.982 81.1885 185.19 81.3969 185.305 81.6578C185.558 82.235 185.297 82.9093 184.722 83.1639C184.046 83.4496 183.264 83.1912 182.889 82.5584C182.584 81.8431 182.756 81.0122 183.322 80.4794C183.942 79.8677 184.739 79.468 185.599 79.337C186.583 79.205 187.578 79.1629 188.57 79.2114C189.663 79.2163 190.756 79.1362 191.837 78.9716C194.045 78.6755 196.181 77.9829 198.144 76.9268C200.2 75.8385 201.932 74.2224 203.164 72.2433C204.444 70.1325 204.852 67.6037 204.302 65.1952L204.052 64.3156L203.915 63.8816L203.71 63.4246C203.577 63.1135 203.409 62.8184 203.209 62.5451C203.025 62.2536 202.808 61.9852 202.56 61.7455C201.61 60.7654 200.375 60.1134 199.031 59.8835C197.695 59.6338 196.314 59.8096 195.081 60.3861C193.707 61.0081 192.671 62.2014 192.247 63.6531L193.294 67.4685Z" fill="#1355FF"/>
<path d="M160.942 61.3805C160.999 59.4386 160.6 57.1425 159.018 55.8403C158.99 55.8189 158.961 55.7979 158.933 55.7774C157.279 54.5945 154.983 54.9807 153.804 56.6399C152.686 58.1469 152.2 60.0327 152.45 61.8945C152.741 63.7666 153.527 65.526 154.726 66.9893C155.941 68.5504 157.421 69.8845 159.098 70.9302C159.94 71.473 160.823 71.9503 161.739 72.3582C162.766 72.7626 163.753 73.2636 164.687 73.8546C165.733 74.5148 166.533 75.5024 166.964 76.6647C167.457 77.9607 167.078 79.4281 166.019 80.3201C165.459 80.7329 164.761 80.913 164.072 80.8227C163.353 80.7468 162.718 80.3191 162.376 79.6804C162.047 79.0711 162.077 78.3297 162.456 77.7499C162.795 77.2167 163.453 76.9854 164.049 77.1901C163.761 77.197 163.486 77.3138 163.279 77.5166C162.831 77.9585 162.824 78.6817 163.264 79.1321C163.797 79.6408 164.621 79.6798 165.199 79.2234C165.735 78.6658 165.871 77.8332 165.541 77.133C165.175 76.3219 164.561 75.6495 163.788 75.2139C162.916 74.7545 162.005 74.3723 161.067 74.0716C160.042 73.6804 159.049 73.2107 158.096 72.6666C156.143 71.592 154.399 70.1717 152.95 68.4742C151.421 66.7233 150.387 64.5934 149.957 62.3058C149.495 59.8747 150.006 57.3591 151.379 55.3034L151.926 54.5723L152.21 54.2068L152.575 53.8641C153.062 53.3939 153.624 53.0079 154.237 52.7217C155.476 52.1529 156.863 51.993 158.198 52.2648C159.539 52.5131 160.769 53.1762 161.716 54.161C162.767 55.2401 163.298 56.7242 163.173 58.2277L160.942 61.3805Z" fill="#1355FF"/>
<g opacity="0.2">
<path d="M193.294 67.4685C193.943 65.6408 195.138 63.6417 197.085 62.9906L197.143 62.975C199.115 62.4623 201.127 63.6506 201.638 65.6294C202.143 67.4356 201.918 69.3688 201.012 71.0097C200.071 72.6546 198.707 74.0157 197.062 74.9506C195.37 75.9659 193.512 76.6736 191.575 77.041C190.593 77.2467 189.595 77.3728 188.593 77.418C187.492 77.4347 186.396 77.5455 185.314 77.7493C184.111 78.0056 183.022 78.6422 182.206 79.5656C181.281 80.5985 181.107 82.1061 181.774 83.3238C182.161 83.8999 182.75 84.308 183.425 84.4661C184.11 84.6552 184.845 84.4975 185.394 84.0434C185.92 83.5946 186.159 82.894 186.02 82.2157C185.904 81.5787 185.367 81.1054 184.722 81.0734C184.982 81.1885 185.19 81.3969 185.305 81.6578C185.558 82.235 185.297 82.9093 184.722 83.1639C184.046 83.4496 183.264 83.1912 182.889 82.5584C182.584 81.8431 182.756 81.0122 183.322 80.4794C183.942 79.8677 184.739 79.468 185.599 79.337C186.583 79.205 187.578 79.1629 188.57 79.2114C189.663 79.2163 190.756 79.1362 191.837 78.9716C194.045 78.6755 196.181 77.9829 198.144 76.9268C200.2 75.8385 201.932 74.2224 203.164 72.2433C204.444 70.1325 204.852 67.6037 204.302 65.1952L204.052 64.3156L203.915 63.8816L203.71 63.4246C203.577 63.1135 203.409 62.8184 203.209 62.5451C203.025 62.2536 202.808 61.9852 202.56 61.7455C201.61 60.7654 200.375 60.1134 199.031 59.8835C197.695 59.6338 196.314 59.8096 195.081 60.3861C193.707 61.0081 192.671 62.2014 192.247 63.6531L193.294 67.4685Z" fill="black"/>
<path d="M160.942 61.3805C160.999 59.4386 160.6 57.1425 159.018 55.8403C158.99 55.8189 158.961 55.7979 158.933 55.7774C157.279 54.5945 154.983 54.9807 153.804 56.6399C152.686 58.1469 152.2 60.0327 152.45 61.8945C152.741 63.7666 153.527 65.526 154.726 66.9893C155.941 68.5504 157.421 69.8845 159.098 70.9302C159.94 71.473 160.823 71.9503 161.739 72.3582C162.766 72.7626 163.753 73.2636 164.687 73.8546C165.733 74.5148 166.533 75.5024 166.964 76.6647C167.457 77.9607 167.078 79.4281 166.019 80.3201C165.459 80.7329 164.761 80.913 164.072 80.8227C163.353 80.7468 162.718 80.3191 162.376 79.6804C162.047 79.0711 162.077 78.3297 162.456 77.7499C162.795 77.2167 163.453 76.9854 164.049 77.1901C163.761 77.197 163.486 77.3138 163.279 77.5166C162.831 77.9585 162.824 78.6817 163.264 79.1321C163.797 79.6408 164.621 79.6798 165.199 79.2234C165.735 78.6658 165.871 77.8332 165.541 77.133C165.175 76.3219 164.561 75.6495 163.788 75.2139C162.916 74.7545 162.005 74.3723 161.067 74.0716C160.042 73.6804 159.049 73.2107 158.096 72.6666C156.143 71.592 154.399 70.1717 152.95 68.4742C151.421 66.7233 150.387 64.5934 149.957 62.3058C149.495 59.8747 150.006 57.3591 151.379 55.3034L151.926 54.5723L152.21 54.2068L152.575 53.8641C153.062 53.3939 153.624 53.0079 154.237 52.7217C155.476 52.1529 156.863 51.993 158.198 52.2648C159.539 52.5131 160.769 53.1762 161.716 54.161C162.767 55.2401 163.298 56.7242 163.173 58.2277L160.942 61.3805Z" fill="black"/>
</g>
<path d="M175.626 85.0373L174.1 92.4852C173.716 94.2994 174.721 96.1209 176.457 96.7574C177.996 97.3107 179.283 98.4069 180.077 99.8417L181.022 101.624L160.053 97.7056L161.567 96.3919C162.819 95.3327 164.415 94.7717 166.052 94.8155C167.9 94.8506 169.492 93.5162 169.786 91.6856L171.027 84.1805C171.325 82.3895 170.6 80.5814 169.149 79.4971C163.684 75.5561 160.372 67.8568 160.975 59.221L162.284 49.9282L195.554 55.1059L193.999 65.3895C191.461 73.6941 185.609 79.6798 179.109 81.3819C177.357 81.8493 176.013 83.2601 175.626 85.0373Z" fill="#1355FF"/>
<path d="M156.992 103.166L181.934 107.826L182.457 100.104L159.269 95.7749L156.992 103.166Z" fill="#263238"/>
<path opacity="0.2" d="M162.285 104.149L176.64 106.833L177.163 99.1221L164.562 96.7573L162.285 104.149Z" fill="white"/>
<path d="M166.684 99.4604L166.138 102.403L173.67 103.81L174.216 100.868L166.684 99.4604Z" fill="white"/>
<path d="M150.542 155.607C158.171 160.046 162.047 160.09 170.866 160.143C176.683 160.086 185.561 153.314 185.561 153.314L191.047 164.442C190.034 172.803 186.047 189.501 186.685 212.005L151.955 212.546C149.866 201.272 147.069 190.593 145.948 180.79C144.916 171.761 148.572 165.384 150.542 155.607Z" fill="#1355FF"/>
<path d="M188.626 175.311C188.626 175.311 206.501 145.572 203.803 132.276C201.105 118.979 187.203 104.168 187.203 104.168L183.155 108.194C183.155 108.194 192.689 127.134 194.704 135.187C196.719 143.24 182.42 156.102 182.42 156.102C178.743 162.454 188.626 175.311 188.626 175.311Z" fill="#FFB573"/>
<path d="M158.997 159.682L163.539 157.925C163.539 157.925 164.822 159.502 166.007 160.327C166.007 160.327 162.371 161.751 161.208 165.169L158.997 159.682Z" fill="#263238"/>
<path d="M173.695 155.833L166.008 160.328C168.783 161.547 169.293 164.943 169.698 165.782L177.986 157.85L173.695 155.833Z" fill="#263238"/>
<path d="M146.243 177.725C146.243 177.725 136.135 161.96 133.949 156.649L144.503 143.208L151.86 158.023L146.243 177.725Z" fill="#1355FF"/>
<path d="M179.741 157.925C179.741 157.925 179.387 154.952 180.395 154.484C181.403 154.015 182.723 153.543 182.723 153.543L190.894 143.631L202.106 154.739L188.099 178.648C188.099 178.648 182.909 175.109 181.299 168.234C179.69 161.359 179.741 157.925 179.741 157.925Z" fill="#1355FF"/>
<path opacity="0.4" d="M165.059 50.3604C165.059 50.3604 161.566 70.6852 171.382 79.129C171.382 79.129 165.849 68.892 169.724 51.0863L165.059 50.3604Z" fill="white"/>
<g opacity="0.4">
<path d="M177.623 190.263C171.163 190.097 166.291 189.637 162.506 182.93C162.506 182.93 162.16 189.118 168.029 191.005C173.898 192.893 177.623 190.263 177.623 190.263Z" fill="black"/>
</g>
<path d="M188.913 145.844L200.383 157.68L202.106 154.739L190.893 143.631L188.913 145.844Z" fill="#263238"/>
<path d="M133.949 156.649L135.326 159.502L146.022 146.368L144.503 143.208L133.949 156.649Z" fill="#263238"/>
<path d="M179.779 157.327C180.816 159.751 181.853 162.174 182.89 164.598C183.046 164.962 183.576 164.648 183.422 164.286C182.385 161.862 181.348 159.439 180.31 157.016C180.155 156.651 179.624 156.966 179.779 157.327Z" fill="#263238"/>
<path d="M145.997 178.401C145.74 173.142 146.646 167.906 148.65 163.04C148.801 162.673 148.205 162.513 148.056 162.876C146.034 167.787 145.122 173.093 145.381 178.401C145.401 178.796 146.017 178.799 145.997 178.401Z" fill="#263238"/>
<path d="M150.279 154.839C149.306 152.598 148.178 150.678 147.23 148.699C146.341 149.053 146.293 150.877 147.137 152.58C147.981 154.282 149.39 155.194 150.279 154.839Z" fill="white"/>
<path d="M189.287 203.066C189.636 196.923 189.986 190.78 190.335 184.637C190.358 184.24 189.742 184.241 189.719 184.637C189.37 190.78 189.02 196.923 188.671 203.066C188.648 203.463 189.264 203.462 189.287 203.066Z" fill="#1355FF"/>
<path d="M190.839 181.714C190.89 181.046 190.941 180.378 190.992 179.71C191.004 179.548 190.841 179.394 190.684 179.401C190.506 179.409 190.389 179.537 190.375 179.71C190.325 180.378 190.274 181.046 190.223 181.714C190.211 181.875 190.374 182.03 190.531 182.023C190.709 182.015 190.826 181.887 190.839 181.714Z" fill="#1355FF"/>
<path d="M187.033 104.651C187.033 104.651 187.214 98.4064 186.19 97.2101C185.165 96.014 179.047 92.4688 178.337 93.1902C177.627 93.9113 178.4 94.6622 178.4 94.6622L175.806 95.2186C175.806 95.2186 175.444 95.6999 176.003 96.2915C176.003 96.2915 175.17 97.5082 175.77 98.0464C176.369 98.5844 179.517 99.6269 179.517 99.6269L176.353 99.4957C176.353 99.4957 175.63 99.788 177.35 100.839C179.069 101.89 180.232 101.512 180.232 101.512C180.232 101.512 181.561 107.474 183.373 108.847C185.185 110.22 186.893 110.507 186.893 110.507L187.033 104.651Z" fill="#FFB573"/>
<path d="M153.293 101.971C153.293 101.971 153.112 95.7262 154.136 94.5299C155.16 93.3339 161.278 89.7886 161.989 90.51C162.699 91.2312 161.925 91.9819 161.925 91.9819L164.52 92.5384C164.52 92.5384 164.882 93.0197 164.323 93.6113C164.323 93.6113 165.155 94.828 164.556 95.3661C163.957 95.9041 160.808 96.9467 160.808 96.9467L163.973 96.8154C163.973 96.8154 164.695 97.1078 162.976 98.1589C161.256 99.21 160.093 98.832 160.093 98.832C160.093 98.832 160.838 104.361 159.026 105.734C157.215 107.107 153.432 107.827 153.432 107.827L153.293 101.971Z" fill="#FFB573"/>
</svg>
