<svg width="22" height="20" viewBox="0 0 22 20" fill="none" xmlns="http://www.w3.org/2000/svg">
<path d="M8.375 8.375C8.375 8.07663 8.49353 7.79048 8.7045 7.5795C8.91548 7.36853 9.20163 7.25 9.5 7.25H12.5C12.7984 7.25 13.0845 7.36853 13.2955 7.5795C13.5065 7.79048 13.625 8.07663 13.625 8.375C13.625 8.67337 13.5065 8.95952 13.2955 9.1705C13.0845 9.38147 12.7984 9.5 12.5 9.5H9.5C9.20163 9.5 8.91548 9.38147 8.7045 9.1705C8.49353 8.95952 8.375 8.67337 8.375 8.375ZM21.125 5.375V17.375C21.125 17.8723 20.9275 18.3492 20.5758 18.7008C20.2242 19.0525 19.7473 19.25 19.25 19.25H2.75C2.25272 19.25 1.77581 19.0525 1.42417 18.7008C1.07254 18.3492 0.875 17.8723 0.875 17.375V5.375C0.875 4.87772 1.07254 4.40081 1.42417 4.04917C1.77581 3.69754 2.25272 3.5 2.75 3.5H6.125V2.75C6.125 2.05381 6.40156 1.38613 6.89384 0.893845C7.38613 0.401562 8.05381 0.125 8.75 0.125H13.25C13.9462 0.125 14.6139 0.401562 15.1062 0.893845C15.5984 1.38613 15.875 2.05381 15.875 2.75V3.5H19.25C19.7473 3.5 20.2242 3.69754 20.5758 4.04917C20.9275 4.40081 21.125 4.87772 21.125 5.375ZM8.375 3.5H13.625V2.75C13.625 2.65054 13.5855 2.55516 13.5152 2.48484C13.4448 2.41451 13.3495 2.375 13.25 2.375H8.75C8.65054 2.375 8.55516 2.41451 8.48483 2.48484C8.41451 2.55516 8.375 2.65054 8.375 2.75V3.5ZM3.125 5.75V9.05281C5.5527 10.3323 8.25575 11.0007 11 11C13.7444 11.0006 16.4475 10.3319 18.875 9.05188V5.75H3.125ZM18.875 17V11.5569C16.3997 12.6732 13.7153 13.2503 11 13.25C8.28463 13.2505 5.60022 12.6733 3.125 11.5569V17H18.875Z" fill="white"/>
</svg>
